<svg xmlns="http://www.w3.org/2000/svg" viewBox="0 0 16.69 16.72"><defs><style>.cls-1{fill:#fff;}</style></defs><title>Recurso 7X</title><g id="Capa_2" data-name="Capa 2"><g id="pop_up_eCare" data-name="pop up eCare"><path class="cls-1" d="M14.68.29A.85.85,0,0,1,16,.29l.41.41a.92.92,0,0,1,.29.64.9.9,0,0,1-.29.64L10,8.33l6.38,6.38a.92.92,0,0,1,.29.64.9.9,0,0,1-.29.64l-.44.44a.9.9,0,0,1-.64.29.92.92,0,0,1-.64-.29L8.3,10.05,2,16.37a.86.86,0,0,1-.64.29.9.9,0,0,1-.64-.29L.29,16A.9.9,0,0,1,0,15.32a.92.92,0,0,1,.29-.64L6.61,8.36.41,2.16a.88.88,0,0,1-.29-.64A.85.85,0,0,1,.41.88L.84.44A.88.88,0,0,1,1.49.15a.88.88,0,0,1,.64.29l6.2,6.2Z"/></g></g></svg>