<svg xmlns="http://www.w3.org/2000/svg" viewBox="0 0 26.98 39.64"><defs><style>.cls-1{fill:#2ed9c3;}</style></defs><title>Recurso 3</title><g id="Capa_2" data-name="Capa 2"><g id="nombre_alumna" data-name="nombre alumna"><path class="cls-1" d="M24.88,29.8c1.4,1,2.1,1.92,2.1,2.89v5.58a1.3,1.3,0,0,1-.4,1,1.33,1.33,0,0,1-1,.39,1.39,1.39,0,0,1-.72-.19L1.91,24A5.17,5.17,0,0,1,.43,22.71,2.48,2.48,0,0,1,0,21.2V18.44a2.5,2.5,0,0,1,.43-1.51,5,5,0,0,1,1.48-1.24L24.88.2A1.31,1.31,0,0,1,25.6,0,1.35,1.35,0,0,1,27,1.38V7q0,1.44-2.1,2.88L10,19.82Z"/></g></g></svg>