<svg id="Layer_1" data-name="Layer 1" xmlns="http://www.w3.org/2000/svg" viewBox="0 0 600 600"><defs><style>.cls-1{fill:#f5f5f5;}.cls-2{fill:#e0e0e0;}.cls-3{fill:#455a64;}.cls-4{fill:#263238;}.cls-5,.cls-7{fill:#f0f0f0;}.cls-6{fill:#fafafa;}.cls-7,.cls-8{opacity:0.1;}.cls-10,.cls-12,.cls-13,.cls-15,.cls-16,.cls-20,.cls-21,.cls-22,.cls-23,.cls-33,.cls-35,.cls-36,.cls-7,.cls-8{isolation:isolate;}.cls-9{fill:#33d9c2;}.cls-10,.cls-19{opacity:0.2;}.cls-11{fill:#ffa8a7;}.cls-12,.cls-15,.cls-27,.cls-33,.cls-36{fill:#fff;}.cls-12{opacity:0.85;}.cls-13,.cls-31{opacity:0.15;}.cls-14{fill:#37474f;}.cls-15{opacity:0.75;}.cls-16,.cls-32{opacity:0.05;}.cls-17{fill:#f28f8f;}.cls-18,.cls-20{opacity:0.3;}.cls-21,.cls-28{opacity:0.5;}.cls-22,.cls-24,.cls-33{opacity:0.6;}.cls-23,.cls-36{opacity:0.4;}.cls-25{fill:#ebebeb;}.cls-26{opacity:0.35;}.cls-29{opacity:0.65;}.cls-30{opacity:0.8;}.cls-34{fill:#b16668;}.cls-35{opacity:0.25;}</style></defs><g id="freepik--Floor--inject-299"><path id="freepik--floor--inject-299-2" data-name="freepik--floor--inject-299" class="cls-1" d="M273.88,249.72c119.81,0,216.93,58.16,216.93,129.89S393.69,509.5,273.88,509.5,56.94,451.35,56.94,379.61,154.07,249.72,273.88,249.72Z"/></g><path id="freepik--Shadow--inject-299" class="cls-2" d="M404.58,308.21c36.37,0,65.84,17,65.84,38s-29.47,38-65.84,38-65.84-17-65.84-38S368.22,308.21,404.58,308.21Z"/><path id="freepik--shadow--inject-299-2" data-name="freepik--shadow--inject-299" class="cls-2" d="M384.92,452.88c11.11,0,20.11,5.2,20.11,11.61s-9,11.61-20.11,11.61-20.12-5.19-20.12-11.61S373.8,452.88,384.92,452.88Z"/><ellipse id="freepik--shadow--inject-299-3" data-name="freepik--shadow--inject-299" class="cls-2" cx="134.7" cy="363.18" rx="65.84" ry="38.02"/><path id="freepik--shadow--inject-299-4" data-name="freepik--shadow--inject-299" class="cls-2" d="M187.88,365.08c24.87,0,45,11.64,45,26s-20.16,26-45,26-45-11.65-45-26S163,365.08,187.88,365.08Z"/><path id="freepik--shadow--inject-299-5" data-name="freepik--shadow--inject-299" class="cls-2" d="M155,446l-12,6.68a7.37,7.37,0,0,1-6.63,0L84,422.47c-1.83-1.06-1.83-2.77,0-3.82L96,412a7.29,7.29,0,0,1,6.62,0L155,442.21C156.79,443.27,156.79,445,155,446Z"/><path id="freepik--shadow--inject-299-6" data-name="freepik--shadow--inject-299" class="cls-2" d="M361.07,459.36l81.4-46.92a1.19,1.19,0,0,0,.72-1.51,1.21,1.21,0,0,0-.72-.73l-162.1-94a4.26,4.26,0,0,0-3.87,0L195.11,363.1a1.18,1.18,0,0,0,0,2.23l162.14,94A4.28,4.28,0,0,0,361.07,459.36Z"/><g id="freepik--character-2--inject-299"><g id="freepik--Character--inject-299"><path class="cls-3" d="M450.59,356.62a4.66,4.66,0,0,1-.12,1.06,2.44,2.44,0,0,1-1,1.49h0a2.76,2.76,0,0,1-2.95-.23,8.94,8.94,0,0,1-4.1-7.09,2.82,2.82,0,0,1,1.14-2.56h0l.19-.12h0a2.46,2.46,0,0,1,1.73-.07,5.48,5.48,0,0,1,1,.43A9,9,0,0,1,450.59,356.62Z"/><path class="cls-4" d="M449.48,347.86a3.65,3.65,0,0,0-1.81-.55,2.18,2.18,0,0,0-1.14.32l-.11.05-2.62,1.52a2.51,2.51,0,0,1,1.73-.08,5.53,5.53,0,0,1,1,.44,9,9,0,0,1,4.06,7,4.63,4.63,0,0,1-.12,1.05,2.44,2.44,0,0,1-1,1.49l2.68-1.55h.05l.23-.14.06-.05a2.93,2.93,0,0,0,.95-2.49A8.92,8.92,0,0,0,449.48,347.86Z"/><path class="cls-3" d="M406.67,333a5.45,5.45,0,0,1-.11,1.06,2.41,2.41,0,0,1-1,1.49h0a2.88,2.88,0,0,1-3-.23,9,9,0,0,1-4-7,2.86,2.86,0,0,1,1.15-2.58h0l.19-.12h0a2.51,2.51,0,0,1,1.73-.06,4.34,4.34,0,0,1,1,.43A9,9,0,0,1,406.67,333Z"/><path class="cls-4" d="M405.56,324.25a3.77,3.77,0,0,0-1.81-.56,2.1,2.1,0,0,0-1.14.33l-.11.06-2.61,1.5a2.43,2.43,0,0,1,1.72-.06,3.76,3.76,0,0,1,1,.43,8.91,8.91,0,0,1,4.06,7,5.45,5.45,0,0,1-.11,1.06,2.44,2.44,0,0,1-.95,1.49l2.69-1.56h0l.22-.13h.08a3,3,0,0,0,.95-2.5A8.94,8.94,0,0,0,405.56,324.25Z"/><path class="cls-3" d="M414.51,365.8a4.28,4.28,0,0,0,.11,1.07,2.39,2.39,0,0,0,1,1.48h0a2.85,2.85,0,0,0,2.95-.23,9,9,0,0,0,4.06-7,2.83,2.83,0,0,0-1.15-2.57h0l-.2-.12h0a2.49,2.49,0,0,0-1.72-.07,4.61,4.61,0,0,0-1,.43A9,9,0,0,0,414.51,365.8Z"/><path class="cls-4" d="M415.61,357.08a3.65,3.65,0,0,1,1.81-.55,2.18,2.18,0,0,1,1.14.32l.11.06,2.61,1.51a2.49,2.49,0,0,0-1.72-.07,4.61,4.61,0,0,0-1,.43,9,9,0,0,0-4.06,7,4.81,4.81,0,0,0,.12,1.07,2.42,2.42,0,0,0,.95,1.48l-2.68-1.55h-.05l-.23-.14-.06-.05a3,3,0,0,1-1-2.48A9,9,0,0,1,415.61,357.08Z"/><path class="cls-3" d="M386,351.85a5.38,5.38,0,0,0,.12,1.06,2.44,2.44,0,0,0,.95,1.49h0a2.78,2.78,0,0,0,3-.23,9,9,0,0,0,4.06-7,2.89,2.89,0,0,0-1.15-2.57h0l-.19-.11h0a2.51,2.51,0,0,0-1.73-.08,4.81,4.81,0,0,0-.95.44A9,9,0,0,0,386,351.85Z"/><path class="cls-4" d="M387.1,343.11a3.74,3.74,0,0,1,1.81-.54,2.21,2.21,0,0,1,1.15.31l.09.06,2.63,1.52a2.51,2.51,0,0,0-1.73-.08,4.81,4.81,0,0,0-.95.44,9,9,0,0,0-4.07,7,4.72,4.72,0,0,0,.12,1.06,2.4,2.4,0,0,0,1,1.49l-2.72-1.58h-.05l-.23-.15-.06,0a3,3,0,0,1-1-2.49A9,9,0,0,1,387.1,343.11Z"/><path class="cls-3" d="M441.1,334.68a5.45,5.45,0,0,0,.11,1.06,2.53,2.53,0,0,0,1,1.49h0a2.88,2.88,0,0,0,2.95-.24,8.94,8.94,0,0,0,4.06-7,2.86,2.86,0,0,0-1.14-2.57h0l-.19-.12h0a2.51,2.51,0,0,0-1.73-.07,5,5,0,0,0-1,.43A9,9,0,0,0,441.1,334.68Z"/><path class="cls-4" d="M442.18,326a3.62,3.62,0,0,1,1.81-.55,2.18,2.18,0,0,1,1.14.32l.1.06,2.67,1.51a2.43,2.43,0,0,0-1.72-.07,4.44,4.44,0,0,0-1,.43,9,9,0,0,0-4.06,7,4.66,4.66,0,0,0,.12,1.06,2.44,2.44,0,0,0,.95,1.49l-2.69-1.55h-.05l-.23-.15h-.07a3,3,0,0,1-.95-2.5A9,9,0,0,1,442.18,326Z"/><polygon class="cls-5" points="416.86 326.14 402.37 321.98 402.37 325.08 416.86 333.44 416.86 326.14"/><polygon class="cls-6" points="416.86 326.14 418.29 325.26 403.76 321.29 402.37 321.98 416.86 326.14"/><polygon class="cls-5" points="423.13 335.37 443.69 327.67 443.69 324.54 423.13 326.38 423.13 335.37"/><polygon class="cls-6" points="443.69 324.54 442.18 324.14 421.91 325.45 423.13 326.38 443.69 324.54"/><path class="cls-6" d="M423.69,334.38c0,2.33-7.15,2.33-7.15,0V314.07h7.15Z"/><path class="cls-6" d="M418.32,329.1l-3.93,25.51h2.68l3.69-25.51A4.59,4.59,0,0,1,418.32,329.1Z"/><polygon class="cls-5" points="420.77 329.1 420.77 336.1 417.08 358.93 417.08 354.61 420.77 329.1"/><rect class="cls-2" x="414.4" y="354.61" width="2.69" height="4.32"/><polygon class="cls-5" points="421.99 335.89 448.49 349.78 448.49 345.51 421.99 329.11 421.99 335.89"/><path class="cls-6" d="M422,329.11a2.89,2.89,0,0,0,1.7-.77l26.45,16.05-1.65,1.12Z"/><polygon class="cls-2" points="448.49 349.78 448.49 345.51 450.14 344.39 450.14 348.53 448.49 349.78"/><polygon class="cls-5" points="388.58 344.88 416.89 335.18 416.89 328.83 388.58 340.6 388.58 344.88"/><path class="cls-6" d="M416.89,328.83c-.24-.07-.33-.48-.35-1.1l-28.75,12.53.84.34Z"/><polygon class="cls-2" points="387.74 340.26 387.74 344.39 388.58 344.88 388.58 340.6 387.74 340.26"/><rect class="cls-7" x="414.4" y="354.61" width="2.69" height="4.32"/><polygon class="cls-7" points="448.49 349.78 448.49 345.51 450.14 344.39 450.14 348.53 448.49 349.78"/><polygon class="cls-8" points="387.74 340.26 387.74 344.39 388.58 344.88 388.58 340.6 387.74 340.26"/><path class="cls-5" d="M414.06,278.66h12.11v41.91c0,3.48-12.11,3.48-12.11,0Z"/><g id="freepik--Chair--inject-299"><path class="cls-9" d="M463,272.85l-46.39-24.22s-3.25-15.87,7.73-33.16c0,0-3.26-30.81,2.23-41,4-7.82,8.82-6.76,8.82-6.76l52.67,23.79Z"/><path class="cls-8" d="M463,272.85l-46.39-24.22s-3.25-15.87,7.73-33.16c0,0-3.26-30.81,2.23-41,4-7.82,8.82-6.76,8.82-6.76l52.67,23.79Z"/><path class="cls-9" d="M435.43,167.68l52.67,23.79-1.73,5.62-57.61-26C432.16,166.94,435.43,167.68,435.43,167.68Z"/><path class="cls-9" d="M363.66,268.39v2.55a9.27,9.27,0,0,0,4.51,7.48l51.7,27.13a10.28,10.28,0,0,0,8.93-.18l29.82-17.18a9.78,9.78,0,0,0,4.42-7.63V278a9.27,9.27,0,0,0-4.52-7.46L409.58,245a11.26,11.26,0,0,0-9.08-.08L368.21,261A9,9,0,0,0,363.66,268.39Z"/><path class="cls-8" d="M363.66,268.39v2.55a9.27,9.27,0,0,0,4.51,7.48l51.7,27.13a10.28,10.28,0,0,0,8.93-.18l29.82-17.18a9.78,9.78,0,0,0,4.42-7.63V278a9.27,9.27,0,0,0-4.52-7.46L409.58,245a11.26,11.26,0,0,0-9.08-.08L368.21,261A9,9,0,0,0,363.66,268.39Z"/><path class="cls-9" d="M419.87,292.81l-51.7-27.15c-2.5-1.31-2.48-3.39,0-4.65l32.29-16.16a11.26,11.26,0,0,1,9.08.08l48.94,25.57c2.5,1.3,2.53,3.5.1,4.9l-29.76,17.22A10.33,10.33,0,0,1,419.87,292.81Z"/><path class="cls-10" d="M423.19,306.44a10.1,10.1,0,0,0,5.61-1.07l29.82-17.18a9.74,9.74,0,0,0,4.41-7.63V278a9.36,9.36,0,0,0-3.87-7.06c1.84,1.33,1.66,3.25-.54,4.52l-29.8,17.17a9.54,9.54,0,0,1-4.56,1.1Z"/><path class="cls-9" d="M435.43,167.68s-7.63-5.16-15.67-.51-5.38,20.25-4.52,30.31,1.15,27.58-5.89,34-30.11-2.1-40.18-2.1L378,262.07c9.79-5.33,25.45-10.8,38.61-13.36,0,0-.43-20.4,8.92-32.07,0,0-3.44-8.15-1.19-24.5C426.47,176.93,429.3,171.2,435.43,167.68Z"/><path class="cls-10" d="M435.43,167.68s-7.63-5.16-15.67-.51-5.38,20.25-4.52,30.31,1.15,27.58-5.89,34-30.11-2.1-40.18-2.1L378,262.07c9.79-5.33,25.45-10.8,38.61-13.36,0,0-.43-20.4,8.92-32.07,0,0-3.44-8.15-1.19-24.5C426.47,176.93,429.3,171.2,435.43,167.68Z"/><path class="cls-9" d="M378,262c.46-2.93,2.32-19.76-.82-27.1-2.73-6.37-9.9-6.75-12.16-4s-.24,6.05,3.35,10.73c3,3.95,4.12,7.63,4.12,17.18Z"/><path class="cls-8" d="M378,262c.46-2.93,2.32-19.76-.82-27.1-2.73-6.37-9.9-6.75-12.16-4s-.24,6.05,3.35,10.73c3,3.95,4.12,7.63,4.12,17.18Z"/></g><g id="freepik--character--inject-299-2" data-name="freepik--character--inject-299"><path class="cls-11" d="M406.62,185.3c-3.81,3.82-23.51,24.7-23.51,24.7l-13.93-14c-3.3-3.31-3.82-7.15-5.8-10s-4.34-3.82-6.61-6.27-3-4.23-4.15-2.51,1.3,5.28,1.69,6.12,3.05,3-.78,2.4-10.62-6-12.31-7.06-2,1.16-1.35,2.71-.27,5.55.38,8.27,2.19,4.52,5.5,6.74c3.08,2,11,4.1,13.36,6.08h0c5,6.59,14.32,18.91,16.82,21.29,3.4,3.26,6.22,5.38,12.66.6S414.94,201,414.94,201L421,180.8C415.38,179.81,411.21,180.65,406.62,185.3Z"/><path class="cls-9" d="M420.71,180.75c-6.17-1.85-8.67-1.4-11.45.48s-4.14,5.33-13.67,15.1c-7.28,7.45-12.41,12.74-12.41,12.74l-9.49-8.47a21.17,21.17,0,0,1-9.6,8.54s5.12,7.41,9.17,12.4,7,6.73,8.17,6.92,3.93-.87,12.28-7.63,29.09-25.92,29.09-25.92Z"/><path class="cls-12" d="M420.71,180.75c-6.17-1.85-8.67-1.4-11.45.48s-4.14,5.33-13.67,15.1c-7.28,7.45-12.41,12.74-12.41,12.74l-9.49-8.47a21.17,21.17,0,0,1-9.6,8.54s5.12,7.41,9.17,12.4,7,6.73,8.17,6.92,3.93-.87,12.28-7.63,29.09-25.92,29.09-25.92Z"/><path class="cls-4" d="M423,131.8l.12.07c5.31,3.43,11.37,4.49,16.13,8.95s7,10.05,6.31,15.79c-1.29,10.16-6.68,14.31-10,19.19-.14.19-5.45,3.49-5.67,3.5l-3.47.15c-.84,0-1.9.49-2.7.23-1-.34-1.84-1.74-2.47-2.57a33.27,33.27,0,0,0-8.42-7.63,10.19,10.19,0,0,1-3-4.4,16.26,16.26,0,0,1-1.29-5.22,2.1,2.1,0,0,0-1.53-2.54,2.07,2.07,0,0,0-.82,0,10.84,10.84,0,0,1-5.18-1.79A7.33,7.33,0,0,1,398,151a5.71,5.71,0,0,1,2.2-5.72,6.28,6.28,0,0,1,6.51-9.83c-1-2.31.23-5.21,2.39-6.55a9,9,0,0,1,7.34-.58A27.35,27.35,0,0,1,423,131.8Z"/><path class="cls-4" d="M399.51,303.93c4-.69,7.63,2.44,8,3.47.5,1.4.45,4.25-1.09,7.83A24.38,24.38,0,0,0,405,326.36c.41,3.2,2.22,11.18-.88,15.32s-10.19,7.92-12.95,2.48c-.89-1.77.58-8.09,1.17-12.69,1.17-9.15,2-18.24,2-18.24Z"/><path class="cls-11" d="M401,311.15a89,89,0,0,0-.56,13.36c.25,4.89-.67,8.14-2.28,10.37-1.78,2.47-6.39,4-6-1.07.25-3.51,2.18-20.6,2.18-20.6Z"/><path class="cls-13" d="M406.11,305.85c.3,3-1,11-4.88,17.87s-9.34,14.62-10.28,19.34c-.18-2.15.58-6.12,1.12-9.64v-.24a5.66,5.66,0,0,1,.1-.6.66.66,0,0,0,0-.29,5.07,5.07,0,0,1,.1-.77v0c.37-2.86.7-5.72,1-8.28.23-2.06.43-3.94.59-5.5.07-.77.15-1.47.21-2.07a6.43,6.43,0,0,1,.09-.82l.14-1.57,5.13-9.3.78-.09A9,9,0,0,1,406.11,305.85Z"/><path class="cls-14" d="M380.91,255.05c12.86-8.16,28.82-12.93,28.82-12.93l14,10.22-13.43,12.82L393,277.66s-3.38-.16-1.15,5c.71,1.65,1.8,5,3,8.7L387.4,314.2s-4.66-7.7-11.52-21.75c-6.38-13.05-8.08-21.78-7.58-24.72C368.9,263.88,370.5,261.66,380.91,255.05Z"/><path class="cls-4" d="M412,258.77l1.65-1.24c-4.69-2.25-6.29-7.74-6.29-7.74a14.07,14.07,0,0,0,3.5,8.36c-1.18.74-18.26,11.51-21.39,15.26s-5.25,5.13-5.37,13.92c-.09,7.42-.7,20.41-.7,20.41l22.62-30,9.61-16.73Z"/><path class="cls-4" d="M392,343c.95-.1,1.1,1.59,1.78,3.72a11,11,0,0,1,.53,6.43c-.73,2.74-5,3.44-7,7.11s-4.77,10.25-12.33,12.66-13.63.47-15.26-1.66-.62-4.45,4-7.75c4.92-3.52,6.3-4.55,6.3-4.55Z"/><path class="cls-11" d="M381.28,330.52a117,117,0,0,1-3.42,13.53,53.68,53.68,0,0,1-8.41,14.31c-.78,1-2.55,2.86-3.18,3.66a1.49,1.49,0,0,0,.06,2.11,1.92,1.92,0,0,0,.22.18c1.77,1.5,8.9,1.49,12.72-1.71s7.11-9.77,9.36-12.3a37.3,37.3,0,0,0,2.37-2.95,4.94,4.94,0,0,0,1-3.24,14.55,14.55,0,0,1,0-4.61,52.16,52.16,0,0,1,1.56-6Z"/><path class="cls-14" d="M446.49,234c5.73,9,6.68,20.34,4.7,26.1-2.65,7.87-5.73,11.45-16.23,18.36-8.66,5.73-20.84,9.4-23.44,10.74s-3.4,4.31-4.47,9.6c-1,5-2.22,13.15-7.32,23.93-5.38,11.38-6.83,14.74-6.83,14.74s-7.12,3.09-12.89-2c0,0,6.05-47.36,8-54.16S417.07,255,417.07,255s-4.05-10.86-6.47-18.45Z"/><path class="cls-9" d="M449.48,236.09a25.64,25.64,0,0,1-1.91-5.07c-1.59-6.68,1.2-13.5,2.56-20.24a48.74,48.74,0,0,0,.88-12.41c-.19-3.18,0-8.58-3-10.4a18.8,18.8,0,0,0-3.39-1.45l-9.17-3.42s-9.13-1.59-14-2.23c-2.67-.36-4.3.52-7.4,3.61s-9.05,10.19-11.23,16.11a13.11,13.11,0,0,0,5.79,15.52c.62,4.08,1.07,11.8,1.29,15.07s-2,8.82-2.73,11.29c2.29,5.72,9.23,11.23,22.55,12.4a52.79,52.79,0,0,0,10.44-.09c4-.46,12-3.59,12.74-5.48a23.28,23.28,0,0,0-.74-5.31A37,37,0,0,0,449.48,236.09Z"/><path class="cls-15" d="M449.48,236.09a25.64,25.64,0,0,1-1.91-5.07c-1.59-6.68,1.2-13.5,2.56-20.24a48.74,48.74,0,0,0,.88-12.41c-.19-3.18,0-8.58-3-10.4a18.8,18.8,0,0,0-3.39-1.45l-9.17-3.42s-9.13-1.59-14-2.23c-2.67-.36-4.3.52-7.4,3.61s-9.05,10.19-11.23,16.11a13.11,13.11,0,0,0,5.79,15.52c.62,4.08,1.07,11.8,1.29,15.07s-2,8.82-2.73,11.29c2.29,5.72,9.23,11.23,22.55,12.4a52.79,52.79,0,0,0,10.44-.09c4-.46,12-3.59,12.74-5.48a23.28,23.28,0,0,0-.74-5.31A37,37,0,0,0,449.48,236.09Z"/><path class="cls-9" d="M418.32,217.71s3.58,4.62,10.9,4c7.56-.67,9.16-6.89,9.16-6.89s.14,8.19-8.88,9A10.85,10.85,0,0,1,418.32,217.71Z"/><path class="cls-16" d="M418.32,217.71s3.58,4.62,10.9,4c7.56-.67,9.16-6.89,9.16-6.89s.14,8.19-8.88,9A10.85,10.85,0,0,1,418.32,217.71Z"/><path class="cls-11" d="M410.38,142.47c-2.45,1.44-5.48,7.58-5.21,20.46.23,10.92,3.77,13.62,5.55,14.4s6.4.11,9.74-.45l.54,7.77c-3.62,9.41-3.07,14.2-3.81,20.47,0,0,5.07-8.59,10.31-13.42a99,99,0,0,1,8.59-7.24l-1-16.4s1.69,1,4-.74c3.09-2.37,3.57-6.68,1.1-8.89-1.6-1.46-5.92-1.91-7.25,1.91,0,0-4.47-.4-11.53-4.31A22.76,22.76,0,0,1,410.38,142.47Z"/><path class="cls-4" d="M432.87,164.2h0v-5.72h-3.66v2.08a3.66,3.66,0,0,0,3.66,3.64Z"/><path class="cls-4" d="M418.59,160.21a1.37,1.37,0,1,0,2.73.32,1.09,1.09,0,0,0,0-.18,1.38,1.38,0,0,0-1.27-1.49h0a1.4,1.4,0,0,0-1.45,1.35Z"/><path class="cls-17" d="M417.7,169.25l-4.15,1.3a2.17,2.17,0,0,0,2.64,1.53.32.32,0,0,0,.09,0A2.29,2.29,0,0,0,417.7,169.25Z"/><path class="cls-4" d="M406.42,156l2.79-1.91a1.62,1.62,0,0,0-2.23-.53l-.08.05A1.78,1.78,0,0,0,406.42,156Z"/><path class="cls-4" d="M407.06,159.2a1.38,1.38,0,1,0,1.44-1.35,1.39,1.39,0,0,0-1.44,1.34Z"/><polygon class="cls-17" points="414.69 158.43 414.45 166.69 410.1 165.34 414.69 158.43"/><path class="cls-17" d="M420.46,176.88c4.09-.87,9.28-3.28,10.41-6.13a7.05,7.05,0,0,1-2.29,4.62c-2.17,1.85-8,3.53-8,3.53Z"/><path class="cls-9" d="M367.25,213.55c1.26-.2,6.36-3.24,7.94-6.62,0,0-.57,4.93-6.8,8.17Z"/><path class="cls-16" d="M367.25,213.55c1.26-.2,6.36-3.24,7.94-6.62,0,0-.57,4.93-6.8,8.17Z"/></g><path class="cls-9" d="M465,287.2l-35.81,18,.77-13.19-5.53-3.18c.4-10.23,3.21-20.73,10.44-23.05,9.06-2.86,20.8-3.81,27.85-10.17s6.76-23.9,5.9-34-3.51-25.67,4.53-30.31,15.66.52,15.66.52c3.43,2.23,7.42,3.81,7.08,6.54a2.9,2.9,0,0,1-2.44,2.76l-20,75.64A16.41,16.41,0,0,1,465,287.2Z"/><g class="cls-18"><path d="M465,287.2l-35.81,18,.77-13.19-5.53-3.18c.4-10.23,3.21-20.73,10.44-23.05,9.06-2.86,20.8-3.81,27.85-10.17s6.76-23.9,5.9-34-3.51-25.67,4.53-30.31,15.66.52,15.66.52c3.43,2.23,7.42,3.81,7.08,6.54a2.9,2.9,0,0,1-2.44,2.76l-20,75.64A16.41,16.41,0,0,1,465,287.2Z"/></g><path class="cls-9" d="M478.35,200.63c-3.21,3.82-4.86,10-4.27,25s.35,27.13-5.52,34.48c-7,8.73-30.87,15.69-30.87,15.69l-9.33-4.28a11.78,11.78,0,0,1,6.46-5.72c9.06-2.86,20.8-3.82,27.85-10.17s6.76-23.9,5.9-34-3.52-25.67,4.53-30.31,15.66.52,15.66.52c3.43,2.23,7.42,3.81,7.08,6.54a2.9,2.9,0,0,1-2.44,2.76C488.94,199.66,481.57,196.79,478.35,200.63Z"/><g class="cls-19"><path d="M478.35,200.63c-3.21,3.82-4.86,10-4.27,25s.35,27.13-5.52,34.48c-7,8.73-30.87,15.69-30.87,15.69l-9.33-4.28a11.78,11.78,0,0,1,6.46-5.72c9.06-2.86,20.8-3.82,27.85-10.17s6.76-23.9,5.9-34-3.52-25.67,4.53-30.31,15.66.52,15.66.52c3.43,2.23,7.42,3.81,7.08,6.54a2.9,2.9,0,0,1-2.44,2.76C488.94,199.66,481.57,196.79,478.35,200.63Z"/></g><path class="cls-9" d="M429.91,292l-5.53-3.18c0-6.13,1.59-19.43,9.33-22.65,6.15-2.55,9.12,1.2,9.05,3.51-.08,2.62-1.95,4.34-5.07,6.13C433.59,278.16,429.91,282.42,429.91,292Z"/><path class="cls-8" d="M429.91,292l-5.53-3.18c0-6.13,1.59-19.43,9.33-22.65,6.15-2.55,9.12,1.2,9.05,3.51-.08,2.62-1.95,4.34-5.07,6.13C433.59,278.16,429.91,282.42,429.91,292Z"/><g id="freepik--Arm--inject-299"><path class="cls-11" d="M467.3,234c-1.59-6.42-5.42-23.86-8.84-36.93-1.14-4.35-5.73-6.8-9.78-8.85-9.13,7.09-3.26,22.56-3.26,22.56l6.77,27.13-20.61,18.38h0a55.57,55.57,0,0,0-4.88,4.19,23.61,23.61,0,0,0-3.72,4.78c-2,3.22-2.54,6.8-2.86,10.43a10.21,10.21,0,0,0,.31,4.85,7.69,7.69,0,0,0,2.86,3.27c1,.74,2.57,2,3.94,1.69,2.46-.56,2.4-3.11,3.24-6.26s2.44-5.29,5-8.17,1.36-7,5.37-9.55c0,0,15-8.77,22.25-13.69C470.71,242.62,468.38,238.3,467.3,234Z"/><path class="cls-9" d="M447.51,187.56c2.19,1.18,7.43.45,9.84,4s3,10.93,4.5,15.73S467,232,467.91,234.84s2.87,8.73-3.75,12.77c-5.94,3.63-15.87,9.54-15.87,9.54a8.16,8.16,0,0,0-1.91-5.17c-2.06-2.39-6.2-3.3-6.2-3.3l11.54-10.92-6.4-25.23s-4.61-7.49-2.12-15.81S447.51,187.56,447.51,187.56Z"/><path class="cls-12" d="M447.51,187.56c2.19,1.18,7.43.45,9.84,4s3,10.93,4.5,15.73S467,232,467.91,234.84s2.87,8.73-3.75,12.77c-5.94,3.63-15.87,9.54-15.87,9.54a8.16,8.16,0,0,0-1.91-5.17c-2.06-2.39-6.2-3.3-6.2-3.3l11.54-10.92-6.4-25.23s-4.61-7.49-2.12-15.81S447.51,187.56,447.51,187.56Z"/><path class="cls-9" d="M451.72,237.76c2.43-1.91,7.32-1.63,9.91-.68,0,0-2.62-3.7-10.81-1.48Z"/><path class="cls-16" d="M451.72,237.76c2.43-1.91,7.32-1.63,9.91-.68,0,0-2.62-3.7-10.81-1.48Z"/></g></g></g><g id="freepik--Desk--inject-299"><g id="freepik--desk--inject-299-2" data-name="freepik--desk--inject-299"><g id="freepik--desk--inject-299-3" data-name="freepik--desk--inject-299"><polygon class="cls-9" points="359.54 356.38 434.35 313.3 277.39 222.69 202.58 265.77 359.54 356.38"/><polygon class="cls-20" points="359.54 356.38 434.35 313.3 277.39 222.69 202.58 265.77 359.54 356.38"/><polygon class="cls-9" points="434.35 313.3 434.35 412.4 429.83 415 429.83 341.87 364.06 379.74 364.06 452.88 359.54 455.49 359.54 356.38 434.35 313.3"/><polygon class="cls-21" points="434.35 313.3 434.35 412.4 429.83 415 429.83 341.87 364.06 379.74 364.06 452.88 359.54 455.49 359.54 356.38 434.35 313.3"/><polygon class="cls-9" points="429.83 415 425.32 412.4 425.32 344.48 429.83 341.87 429.83 415"/><polygon class="cls-22" points="429.83 415 425.32 412.4 425.32 344.48 429.83 341.87 429.83 415"/><polygon class="cls-9" points="359.54 455.49 355.02 452.88 355.02 379.74 207.09 294.34 207.09 367.48 202.58 364.87 202.58 265.77 359.54 356.38 359.54 455.49"/><polygon class="cls-23" points="359.54 455.49 355.02 452.88 355.02 379.74 207.09 294.34 207.09 367.48 202.58 364.87 202.58 265.77 359.54 356.38 359.54 455.49"/><polygon class="cls-9" points="207.09 367.48 211.61 364.87 211.62 296.95 207.09 294.34 207.09 367.48"/><g class="cls-24"><polygon points="207.09 367.48 211.61 364.87 211.62 296.95 207.09 294.34 207.09 367.48"/></g></g><g id="freepik--Sheets--inject-299"><g class="cls-19"><path d="M388.84,307l-33.23,19.19a2.08,2.08,0,0,1-1.91,0l-24.45-14.12a.56.56,0,0,1,0-1.08l33.27-19.25a2.08,2.08,0,0,1,1.91,0l24.46,14.12a.57.57,0,1,1-.05,1.14Z"/></g><path class="cls-25" d="M388.84,305.24l-33.23,19.19a2.08,2.08,0,0,1-1.91,0l-24.45-14.12c-.52-.31-.52-.79,0-1.08L362.48,290a2,2,0,0,1,1.91,0l24.45,14.1a.57.57,0,0,1,0,1.1Z"/><path class="cls-2" d="M364.39,290l23.23,13.36-32,18.47a2.08,2.08,0,0,1-1.91,0l-23.17-13.36,32-18.47A2,2,0,0,1,364.39,290Z"/><path class="cls-6" d="M388.84,301.86l-33.23,19.19a2.08,2.08,0,0,1-1.91,0l-24.45-14.12c-.53-.31-.53-.79,0-1.09l33.23-19.19a2.08,2.08,0,0,1,1.91,0l24.45,14.12a.57.57,0,0,1,0,1.09Z"/></g><g id="freepik--Pen--inject-299"><path class="cls-10" d="M410,310.32l-24.62,14.22-4.21.86a.14.14,0,0,1-.16-.11.25.25,0,0,1,0-.08l1.32-2.41,24.64-14.24C407.77,308.08,410.62,309.93,410,310.32Z"/><g id="freepik--pen--inject-299-2" data-name="freepik--pen--inject-299"><path class="cls-9" d="M407,306.81a2.48,2.48,0,0,0,1.14,2,1,1,0,0,0,.65.14l-.13.1.27-.15h0a.42.42,0,0,0,.08-.18v0h0v-.06a.66.66,0,0,0,0-.28,2.49,2.49,0,0,0-1.12-1.95,1,1,0,0,0-.51-.16h-.25l-.24.14h.12A.88.88,0,0,0,407,306.81Zm1.87,2.07"/><path class="cls-5" d="M383.61,319.81l1.58,2.77.28-.16L408.7,309l.13-.1a1,1,0,0,0,.2-.64,2.5,2.5,0,0,0-1.13-1.95,1,1,0,0,0-.5-.16h-.27Z"/><path class="cls-9" d="M384.4,319.88c-.62-.36-1.13-.06-1.13.66a2.47,2.47,0,0,0,1.13,1.95c.63.36,1.14.07,1.14-.65A2.54,2.54,0,0,0,384.4,319.88Z"/><path class="cls-2" d="M382,321.57h0l1.44-1.59h0a.74.74,0,0,1,.89,0,2.52,2.52,0,0,1,1.14,2,.71.71,0,0,1-.44.77h-.08l-2.09.46a.52.52,0,0,1-.36-.08,1.44,1.44,0,0,1-.65-1.11A.5.5,0,0,1,382,321.57Z"/><path class="cls-3" d="M400.42,311.29h0a.3.3,0,0,1,.26,0,.87.87,0,0,1,.41.7.26.26,0,0,1-.1.23h-.05l-17.18,9.91-1.13-.65Z"/><path class="cls-14" d="M385.43,321.25l-1.59.95-1.13-.64,2.16-1.25A2.64,2.64,0,0,1,385.43,321.25Z"/><path class="cls-9" d="M381.4,322.32h0l1.31-1.44h0a.51.51,0,0,1,.64,0,1.74,1.74,0,0,1,.8,1.37.54.54,0,0,1-.3.56h-.07l-1.91.42h0a.31.31,0,0,1-.21-.05.79.79,0,0,1-.36-.62A.31.31,0,0,1,381.4,322.32Z"/><path class="cls-8" d="M381.4,322.32h0l1.31-1.44h0a.51.51,0,0,1,.64,0,1.74,1.74,0,0,1,.8,1.37.54.54,0,0,1-.3.56h-.07l-1.91.42h0a.31.31,0,0,1-.21-.05.79.79,0,0,1-.36-.62A.31.31,0,0,1,381.4,322.32Z"/><path class="cls-9" d="M381.34,322.53a.77.77,0,0,0,.36.62.29.29,0,0,0,.2.05h0l1-.21c.16,0,.25-.17.25-.41a1.29,1.29,0,0,0-.57-1,.41.41,0,0,0-.47,0h0l-.65.72h0A.3.3,0,0,0,381.34,322.53Z"/><path class="cls-8" d="M381.7,322.32c-.2-.13-.36,0-.36.21a.77.77,0,0,0,.36.62c.2.12.36,0,.36-.21A.81.81,0,0,0,381.7,322.32Z"/><path class="cls-6" d="M404.7,308.82a.28.28,0,0,1,.28,0,.82.82,0,0,1,.39.69.25.25,0,0,1-.11.26h0L401,312.2a.26.26,0,0,0,.1-.23.89.89,0,0,0-.41-.7.3.3,0,0,0-.26,0Z"/><path class="cls-1" d="M404.58,309.08a.85.85,0,0,0,.4.69.28.28,0,0,0,.28,0,.25.25,0,0,0,.11-.26.82.82,0,0,0-.39-.69.28.28,0,0,0-.28,0A.28.28,0,0,0,404.58,309.08Z"/><path class="cls-9" d="M405.47,307.37h0l1.67-1h0a.77.77,0,0,1,.69.09,2.24,2.24,0,0,1,1,1.75.72.72,0,0,1-.31.66h0l-1.69,1h0a.69.69,0,0,1-.69-.08,2.24,2.24,0,0,1-1-1.75A.71.71,0,0,1,405.47,307.37Z"/><path class="cls-16" d="M405.47,307.37h0l1.67-1h0a.77.77,0,0,1,.69.09,2.24,2.24,0,0,1,1,1.75.72.72,0,0,1-.31.66h0l-1.69,1h0a.69.69,0,0,1-.69-.08,2.24,2.24,0,0,1-1-1.75A.71.71,0,0,1,405.47,307.37Z"/><path class="cls-8" d="M406.21,307.42c-.56-.32-1-.05-1,.59a2.24,2.24,0,0,0,1,1.76c.56.33,1,.07,1-.58A2.31,2.31,0,0,0,406.21,307.42Z"/><path class="cls-3" d="M380.88,322.92h0l.69-.41h0a.11.11,0,0,1,.13,0,.38.38,0,0,1,.18.32.13.13,0,0,1-.05.12h0l-.69.42H381a.24.24,0,0,1-.13-.45Z"/><path class="cls-4" d="M380.83,323h.11a.4.4,0,0,1,.2.32.14.14,0,0,1-.06.12H381a.26.26,0,0,1-.26-.26A.28.28,0,0,1,380.83,323Z"/></g></g><g id="freepik--shadow--inject-299-7" data-name="freepik--shadow--inject-299" class="cls-19"><path d="M219.23,260.52c-3.87,2.24-3.87,5.87,0,8.11a15.47,15.47,0,0,0,14.05,0c3.88-2.24,3.88-5.87,0-8.11A15.53,15.53,0,0,0,219.23,260.52Z"/></g><g id="freepik--Pot--inject-299"><path class="cls-25" d="M220.35,265c-3.12-3.2-5-11.18-1.9-13.72H234c3.05,2.54,1.21,10.5-1.91,13.72l-.08.08-.11.11-.28.26-.08,0-.23.18-.41.26a10.36,10.36,0,0,1-9.33,0h0l-.41-.26-.22-.17-.09-.07-.28-.24-.12-.12Z"/><path class="cls-6" d="M232.64,250.27c3.55,2,3.55,5.38,0,7.42a14.19,14.19,0,0,1-12.85,0c-3.55-2-3.55-5.36,0-7.42A14.19,14.19,0,0,1,232.64,250.27Z"/><path class="cls-25" d="M230.13,251.73c2.15,1.24,2.15,3.26,0,4.51a8.62,8.62,0,0,1-7.82,0c-2.16-1.25-2.16-3.27,0-4.51A8.56,8.56,0,0,1,230.13,251.73Z"/><path class="cls-2" d="M222.31,253.87a8.68,8.68,0,0,1,7.82,0,3.71,3.71,0,0,1,1.29,1.2,3.75,3.75,0,0,1-1.29,1.18,8.62,8.62,0,0,1-7.82,0,3.68,3.68,0,0,1-1.3-1.18A3.56,3.56,0,0,1,222.31,253.87Z"/><path class="cls-9" d="M224.8,255.54a11.58,11.58,0,0,1-4.77-6c-1.43-4.19-.58-9.25.7-11.35,1.73-2.87,6-2.51,4.7,2.22s-2,9.88,0,13.36Z"/><g class="cls-26"><path d="M224.8,255.54a11.58,11.58,0,0,1-4.77-6c-1.43-4.19-.58-9.25.7-11.35,1.73-2.87,6-2.51,4.7,2.22s-2,9.88,0,13.36Z"/></g><path class="cls-6" d="M224.66,254.68a.13.13,0,0,0,.12,0,.17.17,0,0,0,0-.25v0A13.82,13.82,0,0,1,221.26,244c.22-3.42,1.5-5.9,2-6.31a.18.18,0,0,0,0-.26h0a.19.19,0,0,0-.26,0h0c-.64.55-1.91,3.22-2.1,6.58a14.26,14.26,0,0,0,3.64,10.59A.16.16,0,0,0,224.66,254.68Z"/><path class="cls-9" d="M228.43,255.54a1.85,1.85,0,0,1,.77-1,7.2,7.2,0,0,1,1.4-.6c.83-.31,1.9-.75,2-1.76a2.61,2.61,0,0,0-.13-1.07,2.36,2.36,0,0,1-.14-1.46c.18-.45.66-.69,1.07-1a3.34,3.34,0,0,0,1.12-1.06,2.13,2.13,0,0,0,.33-1.3c-.08-.95-1-1.55-1-2.49,0-1.35,3.14-3.19,1.44-4.48-2.17-1.64-5.56.26-6.54,1.66s-.95,2-2.75,3.2c-1.47.95-3.2,1.18-3.2,3.11s2.48,2,.52,4.21c-1.17,1.31.77,2.46,1.47,4A3.21,3.21,0,0,0,228.43,255.54Z"/><path class="cls-6" d="M226.52,256.11h0a.21.21,0,0,0,.19-.21c-.43-11.22,5.29-15.17,6.42-15.47a.19.19,0,0,0,.07-.22.2.2,0,0,0-.23-.14c-1.91.53-7.12,5.27-6.68,15.87a.19.19,0,0,0,.22.17Z"/><path class="cls-6" d="M227.58,247.74h.13c1.65-1.46,4.89-1.43,4.93-1.43a.19.19,0,0,0,.19-.19.19.19,0,0,0-.17-.19h0c-.15,0-3.43,0-5.2,1.52a.16.16,0,0,0,.13.29Z"/></g><g id="freepik--Notebooks--inject-299"><path class="cls-10" d="M354,311a1.47,1.47,0,0,0,.74-.18l28.54-16.49a.78.78,0,0,0,.45-.69.8.8,0,0,0-.45-.7l-20.7-12L332,298.54l21.21,12.28A1.51,1.51,0,0,0,354,311Z"/><path class="cls-4" d="M361.59,280l21.66,11.45.45.71v.56a.81.81,0,0,1-.45.7l-28.54,16.48a1.57,1.57,0,0,1-1.49,0l-21.17-12.23v-.56Z"/><path class="cls-3" d="M354,309.44a1.48,1.48,0,0,0,.74-.19l28.54-16.47a.78.78,0,0,0,0-1.41l-20.7-11.95L332,297l21.18,12.22A1.41,1.41,0,0,0,354,309.44Z"/><path class="cls-25" d="M362.55,277.76,383,289.59l.2.29v2.2h0a.36.36,0,0,1-.2.29l-28.56,16.49a1.12,1.12,0,0,1-1,0L333,297v-2.19Z"/><path class="cls-5" d="M333,294.84l.26.14,3.33,1.91.62.35,16.23,9.39a1.12,1.12,0,0,0,1,0L383,290.17a.32.32,0,0,0,.19-.4.35.35,0,0,0-.19-.19l-.28-.15-20.2-11.67-29.31,16.92h-.06Z"/><path class="cls-2" d="M354,306.77V309a1.22,1.22,0,0,0,.5-.11L383,292.37a.34.34,0,0,0,.2-.3v-2.19a.38.38,0,0,1-.2.29l-28.56,16.48A.94.94,0,0,1,354,306.77Z"/><path class="cls-27" d="M333,294.54l3.69,2.13.58.33,16.22,9.36a1.06,1.06,0,0,0,1,0l25.57-14.76.65-.37a6.36,6.36,0,0,0,2.06-1.8v-.08a.28.28,0,0,0,.06-.15.45.45,0,0,0-.35-.52,9.09,9.09,0,0,1-1.91-.8h0l-18-10.39Z"/><path class="cls-8" d="M336.8,294.28a.3.3,0,0,1,.17.39.29.29,0,0,1-.17.17,1.06,1.06,0,0,1-.95,0,.3.3,0,0,1-.17-.38.3.3,0,0,1,.17-.18A1.06,1.06,0,0,1,336.8,294.28Z"/><path class="cls-4" d="M333.09,294a3.68,3.68,0,0,0,0,.47l.33-.2V294a1.31,1.31,0,0,1,.49-1.18.69.69,0,0,1,.34-.09,1.23,1.23,0,0,1,.59.18,3.63,3.63,0,0,1,1.43,2,.65.65,0,0,0,.34,0,3.94,3.94,0,0,0-1.6-2.31,1.28,1.28,0,0,0-1.28-.09A1.64,1.64,0,0,0,333.09,294Z"/><path class="cls-4" d="M333.17,294.65v.07h.06Z"/><path class="cls-8" d="M339.66,292.63a.3.3,0,0,1,0,.56,1.13,1.13,0,0,1-1,0,.3.3,0,0,1-.17-.38.3.3,0,0,1,.17-.18A1.06,1.06,0,0,1,339.66,292.63Z"/><path class="cls-4" d="M336,292.34a3.68,3.68,0,0,0,0,.47l.34-.2v-.27a1.33,1.33,0,0,1,.48-1.19.68.68,0,0,1,.34-.08,1,1,0,0,1,.58.18,3.56,3.56,0,0,1,1.44,2,1,1,0,0,0,.34,0,3.94,3.94,0,0,0-1.6-2.31,1.25,1.25,0,0,0-1.28-.09A1.64,1.64,0,0,0,336,292.34Z"/><path class="cls-8" d="M342.53,291a.28.28,0,0,1,.18.36.31.31,0,0,1-.18.19,1.08,1.08,0,0,1-1,0,.28.28,0,0,1-.18-.36.31.31,0,0,1,.18-.19A1.08,1.08,0,0,1,342.53,291Z"/><path class="cls-4" d="M338.82,290.68a1.85,1.85,0,0,0,0,.47l.33-.19a1.31,1.31,0,0,1,0-.28,1.34,1.34,0,0,1,.48-1.18.77.77,0,0,1,.34-.08,1.07,1.07,0,0,1,.58.18,3.5,3.5,0,0,1,1.43,2,1.09,1.09,0,0,0,.36,0,4,4,0,0,0-1.61-2.31,1.21,1.21,0,0,0-1.27-.09A1.61,1.61,0,0,0,338.82,290.68Z"/><path class="cls-8" d="M345.38,289.33c.27.16.27.39,0,.55a1.06,1.06,0,0,1-.95,0c-.27-.16-.27-.39,0-.55A1.06,1.06,0,0,1,345.38,289.33Z"/><path class="cls-4" d="M341.68,289a3.84,3.84,0,0,0,0,.48l.33-.19a1.4,1.4,0,0,1,0-.29,1.33,1.33,0,0,1,.48-1.17.77.77,0,0,1,.34-.08,1.06,1.06,0,0,1,.58.17,3.56,3.56,0,0,1,1.44,2.05,1,1,0,0,0,.35,0,4,4,0,0,0-1.6-2.32,1.28,1.28,0,0,0-1.28-.09A1.63,1.63,0,0,0,341.68,289Z"/><path class="cls-8" d="M348.24,287.68c.27.14.27.39,0,.54a1,1,0,0,1-.95,0c-.27-.15-.27-.4,0-.54A1,1,0,0,1,348.24,287.68Z"/><path class="cls-4" d="M344.54,287.37a3.84,3.84,0,0,0,0,.48l.34-.19v-.29a1.29,1.29,0,0,1,.47-1.17.72.72,0,0,1,.34-.09,1.17,1.17,0,0,1,.58.18,3.57,3.57,0,0,1,1.44,2,.83.83,0,0,0,.35,0,4.11,4.11,0,0,0-1.59-2.28,1.23,1.23,0,0,0-1.27-.08A1.6,1.6,0,0,0,344.54,287.37Z"/><path class="cls-8" d="M351.11,286a.3.3,0,0,1,.17.38.31.31,0,0,1-.17.17,1,1,0,0,1-1,0,.29.29,0,0,1-.17-.38.29.29,0,0,1,.17-.17A1.08,1.08,0,0,1,351.11,286Z"/><path class="cls-4" d="M347.4,285.73a3.68,3.68,0,0,0,0,.47l.34-.19v-.28a1.3,1.3,0,0,1,.48-1.18.73.73,0,0,1,.35-.09,1.34,1.34,0,0,1,.58.17,3.66,3.66,0,0,1,1.43,2.06.9.9,0,0,0,.36-.05,4.06,4.06,0,0,0-1.62-2.31,1.25,1.25,0,0,0-1.28-.08A1.64,1.64,0,0,0,347.4,285.73Z"/><path class="cls-8" d="M354,284.37a.3.3,0,0,1,.17.38.29.29,0,0,1-.17.17,1.06,1.06,0,0,1-1,0,.29.29,0,0,1-.18-.38.28.28,0,0,1,.18-.17A1.06,1.06,0,0,1,354,284.37Z"/><path class="cls-4" d="M350.25,284.1v.48l.34-.19v-.29a1.29,1.29,0,0,1,.49-1.17.67.67,0,0,1,.34-.1,1.41,1.41,0,0,1,.58.18,3.6,3.6,0,0,1,1.43,2.05h.35a4,4,0,0,0-1.61-2.31,1.24,1.24,0,0,0-1.27-.09A1.65,1.65,0,0,0,350.25,284.1Z"/><path class="cls-8" d="M356.83,282.72a.3.3,0,0,1,.17.38.29.29,0,0,1-.17.17,1.06,1.06,0,0,1-.95,0,.29.29,0,0,1-.17-.38.26.26,0,0,1,.17-.17A1,1,0,0,1,356.83,282.72Z"/><path class="cls-4" d="M353.12,282.42a1.93,1.93,0,0,0,0,.48l.33-.2v-.28a1.29,1.29,0,0,1,.49-1.17.67.67,0,0,1,.34-.1,1.41,1.41,0,0,1,.58.18,3.61,3.61,0,0,1,1.44,2.06,1.33,1.33,0,0,0,.34-.05A4,4,0,0,0,355,281a1.25,1.25,0,0,0-1.28-.09A1.64,1.64,0,0,0,353.12,282.42Z"/><path class="cls-8" d="M359.7,281.07a.29.29,0,0,1,.16.38.27.27,0,0,1-.16.17,1.08,1.08,0,0,1-1,0,.3.3,0,0,1-.17-.38.29.29,0,0,1,.17-.17A1,1,0,0,1,359.7,281.07Z"/><path class="cls-4" d="M356,280.77a3.84,3.84,0,0,0,0,.48l.34-.2a1.31,1.31,0,0,1,0-.28,1.29,1.29,0,0,1,.47-1.17.64.64,0,0,1,.35-.1,1.36,1.36,0,0,1,.58.18,3.53,3.53,0,0,1,1.43,2.05,1,1,0,0,0,.35,0,3.91,3.91,0,0,0-1.6-2.31,1.23,1.23,0,0,0-1.28-.09A1.62,1.62,0,0,0,356,280.77Z"/><path class="cls-8" d="M362.55,279.42a.29.29,0,0,1,.17.38.29.29,0,0,1-.17.17,1,1,0,0,1-1,0,.3.3,0,0,1-.17-.38.29.29,0,0,1,.17-.17A1,1,0,0,1,362.55,279.42Z"/><path class="cls-4" d="M358.84,279.12a3.69,3.69,0,0,0,0,.47l.34-.19a1.31,1.31,0,0,1,0-.28,1.28,1.28,0,0,1,.48-1.18.67.67,0,0,1,.34-.09,1.17,1.17,0,0,1,.58.18,3.54,3.54,0,0,1,1.43,2,.73.73,0,0,0,.36,0,4,4,0,0,0-1.61-2.31,1.3,1.3,0,0,0-1.28-.09A1.69,1.69,0,0,0,358.84,279.12Z"/><path class="cls-25" d="M356.83,303.69a.61.61,0,0,1-.3-.08l-15.75-9.09a.6.6,0,0,1,.6-1l15.75,9.1a.61.61,0,0,1,.21.82.6.6,0,0,1-.51.29Z"/><path class="cls-25" d="M358.73,302.59a.6.6,0,0,1-.29-.08l-15.75-9.09a.59.59,0,0,1-.23-.81h0a.58.58,0,0,1,.79-.23h0L359,301.47a.59.59,0,0,1,.2.82.61.61,0,0,1-.51.3Z"/><path class="cls-25" d="M360.64,301.49a.79.79,0,0,1-.3-.08l-15.74-9.09a.6.6,0,0,1,.59-1L361,300.37a.61.61,0,0,1,.2.83.6.6,0,0,1-.51.29Z"/><path class="cls-25" d="M362.55,300.39a.53.53,0,0,1-.3-.09l-15.74-9.09a.58.58,0,0,1-.22-.81.6.6,0,0,1,.81-.22h0l15.75,9.09a.59.59,0,0,1,.22.81h0A.61.61,0,0,1,362.55,300.39Z"/><path class="cls-25" d="M364.45,299.28a.59.59,0,0,1-.29-.07l-15.76-9.1a.6.6,0,0,1-.18-.83.61.61,0,0,1,.79-.21l15.75,9.1a.59.59,0,0,1,.21.82.6.6,0,0,1-.52.29Z"/><path class="cls-25" d="M366.36,298.19a.75.75,0,0,1-.29-.09L350.31,289a.6.6,0,0,1-.22-.81h0a.61.61,0,0,1,.82-.21l15.75,9.09a.58.58,0,0,1,.22.79v0A.59.59,0,0,1,366.36,298.19Z"/><path class="cls-25" d="M368.27,297.08A.51.51,0,0,1,368,297l-15.76-9.08a.6.6,0,0,1-.18-.83.58.58,0,0,1,.78-.21L368.57,296a.61.61,0,0,1,.22.82A.61.61,0,0,1,368.27,297.08Z"/><path class="cls-25" d="M370.18,296a.59.59,0,0,1-.29-.07l-15.76-9.1a.6.6,0,0,1,.6-1l15.75,9.09a.6.6,0,0,1,.23.81v0A.61.61,0,0,1,370.18,296Z"/><path class="cls-25" d="M372.09,294.89a.53.53,0,0,1-.3-.09L356,285.7a.59.59,0,0,1-.32-.78.61.61,0,0,1,.79-.32l.13.07,15.75,9.1a.6.6,0,0,1,.22.81h0A.6.6,0,0,1,372.09,294.89Z"/><path class="cls-25" d="M374,293.78a.68.68,0,0,1-.31-.08L358,284.61a.6.6,0,0,1,.6-1l15.74,9.09a.6.6,0,0,1,.21.83.64.64,0,0,1-.5.29Z"/><path class="cls-25" d="M375.91,292.69a.65.65,0,0,1-.31-.08l-15.74-9.1a.6.6,0,1,1,.47-1.1.33.33,0,0,1,.13.07l15.74,9.09a.6.6,0,0,1,.21.83.64.64,0,0,1-.5.29Z"/><path class="cls-25" d="M377.81,291.57a.6.6,0,0,1-.3-.07l-15.74-9.09a.61.61,0,0,1-.22-.83.59.59,0,0,1,.8-.22h0l15.75,9.1a.6.6,0,0,1-.3,1.11Z"/><path class="cls-25" d="M379.71,290.47a.51.51,0,0,1-.29-.08l-15.75-9.08a.61.61,0,0,1-.14-.84.59.59,0,0,1,.74-.2L380,289.36a.59.59,0,0,1,.21.82A.6.6,0,0,1,379.71,290.47Z"/><path class="cls-9" d="M354.89,304.79a.54.54,0,0,1-.3-.08l-16.65-9.63a.59.59,0,0,1-.23-.81v0a.59.59,0,0,1,.79-.22l0,0,16.66,9.62a.6.6,0,0,1,.21.83.6.6,0,0,1-.51.29Z"/><path class="cls-3" d="M347,292.84a2.25,2.25,0,0,0,.79-.83.68.68,0,0,1,.37-.07c.46.05.07.23,0,.41a.08.08,0,0,0,0,.1h.05c.32-.06,1.09-.25.88.28a.07.07,0,0,0,.05.09c.1,0,.53.09.49.2a.08.08,0,0,0,.05.1h0a8.68,8.68,0,0,1,1,0h.46c.11.12-.06.39-.11.48a.08.08,0,0,0,0,.11c.17.08.3.18.19.37s0,.1,0,.11c.44.12,1.22-.24,1.35.29.07.31,0,.38.41.36.08,0,.13-.15,0-.16-.41,0-.11-.47-.35-.63s-.81.15-1.07,0,0-.19-.11-.37-.14,0-.17-.07-.07-.07-.07-.07a.49.49,0,0,0,0-.12c0-.09.06-.08.07-.13.1-.48-.68-.37-1-.4h-.57v-.13s-.46-.17-.46-.19.1-.19.05-.29-.67-.11-.87-.11h-.15a.13.13,0,0,0,.13-.13c0-.07.05-.1,0-.19a.36.36,0,0,0-.29-.16.81.81,0,0,0-.41.07.7.7,0,0,0,.06-.43c-.11-.48-.66-.14-.95,0-.07,0-.09.15,0,.12a1.85,1.85,0,0,1,.61-.17c.26.05.06.42-.09.66l-.3.15a1.41,1.41,0,0,0-.65.42C346.33,292.9,346.64,293,347,292.84Zm.17-.49.24-.14a1,1,0,0,1-.4.43s-.35.13-.25,0A1,1,0,0,1,347.12,292.35Z"/><path class="cls-3" d="M353.73,296.65s0,.05,0,.07c.38.11.72-.33.85-.76.14,0,.43-.06.49.16l-.09.21c0,.05,0,.07.07.08s.85-.24.75.12a0,0,0,0,0,0,.07c.17.12.54-.07.59.18s-.23.24-.08.41.28,0,.4,0,.16-.11.23-.08,0,.08,0,.12.06.1.1.13a.6.6,0,0,0,.19,0c.06,0,.09-.08.13-.08a.77.77,0,0,1,.26.07s.36.16.33.1c.06.1-.17.27-.06.42s.66,0,.81,0,.13-.16,0-.15l-.38,0c-.33-.15-.24-.25-.18-.41s0-.1-.06-.1c-.22,0-.37-.2-.54-.2s-.23.11-.27.11c-.26,0-.13-.09-.13-.26a.08.08,0,0,0-.07-.07h0c-.15,0-.53.35-.55,0,0-.06.17-.15.18-.23a.25.25,0,0,0-.2-.25,1.26,1.26,0,0,0-.33.05c-.41.07-.06,0-.21-.1a.39.39,0,0,0-.38-.13.57.57,0,0,1-.26,0c-.22-.05-.07,0-.08-.14s.08-.18,0-.29a.3.3,0,0,0-.36-.15,1.45,1.45,0,0,0-.35.12c0-.3-.06-.54-.35-.54-.07,0-.14.14,0,.16s.21.28.15.5C354.09,296.07,353.76,296.36,353.73,296.65Zm.36-.28a.81.81,0,0,1,.27-.25l-.05.1C354.27,296.28,354,296.59,354.09,296.37Z"/><path class="cls-3" d="M349.1,298.49a2.35,2.35,0,0,0,.8-.83.85.85,0,0,1,.35-.08c.47.06.08.23,0,.42s0,.1.09.09c.33,0,1.1-.24.89.28a.06.06,0,0,0,0,.09h0c.1,0,.54.1.5.2s0,.11,0,.1h1a3.55,3.55,0,0,1,.47.06c.11.12-.06.38-.11.46a.08.08,0,0,0,0,.11h0c.17.08.3.18.19.37a.08.08,0,0,0,0,.11h0c.44.11,1.22-.24,1.34.27.07.33,0,.4.43.36.06,0,.12-.14,0-.14-.43,0-.11-.47-.35-.65s-.81.16-1.08,0,0-.18-.1-.37-.16,0-.18-.08-.06-.06-.06-.06,0-.05,0-.12.06-.07.07-.13c.09-.49-.68-.36-1-.39h-.57v-.13s-.46-.18-.47-.2.11-.18,0-.27c-.12-.25-.67-.12-.86-.12h-.15a.16.16,0,0,0,.13-.14v-.18c0-.09-.16-.16-.29-.17a.79.79,0,0,0-.41.07.66.66,0,0,0,.05-.44c-.11-.47-.65-.13-.95,0-.07,0-.09.17,0,.14a1.81,1.81,0,0,1,.62-.18c.15,0,.06.42-.09.65l-.31.17a1.29,1.29,0,0,0-.64.41C348.48,298.54,348.8,298.65,349.1,298.49Zm.17-.5.24-.13a1.21,1.21,0,0,1-.41.43s-.33.13-.24,0a.93.93,0,0,1,.41-.3Z"/><path class="cls-3" d="M343.17,295a.08.08,0,0,0,0,.07c.38.11.73-.33.85-.76.13,0,.43,0,.49.16,0,0-.07.19-.08.23a.07.07,0,0,0,.07.06c.2,0,.85-.24.75.12a.06.06,0,0,0,0,.08c.17.12.53-.08.59.17s-.23.24-.1.41.3,0,.42,0,.15-.1.23-.07,0,.08,0,.12.06.1.1.12.12,0,.18,0,.09-.08.14-.08l.26.07s.35.17.32.1c.05.1-.17.27-.06.42s.66,0,.81,0,.14-.16,0-.16l-.38.05c-.32-.15-.23-.24-.18-.4s0-.11-.05-.11c-.22,0-.38-.2-.55-.2s-.23.11-.26.11c-.26,0-.14-.08-.15-.26s0-.06-.05-.07h0c-.16.06-.54.36-.55,0,0,0,.16-.15.17-.23a.24.24,0,0,0-.2-.24.86.86,0,0,0-.32,0c-.41.07-.07,0-.21-.1a.38.38,0,0,0-.38-.11h-.26c-.23-.06-.08,0-.09-.15s.09-.17.05-.28-.18-.19-.37-.16a2.06,2.06,0,0,0-.35.12c0-.29,0-.54-.34-.53-.07,0-.14.14-.05.16s.21.27.16.5C343.53,294.39,343.19,294.68,343.17,295Zm.36-.27a.84.84,0,0,1,.27-.26l-.06.1c0,.06-.28.37-.21.16Z"/><path class="cls-3" d="M358.58,286.42a2.5,2.5,0,0,0,.81-.84.61.61,0,0,1,.35-.07c.46.05.07.23,0,.4a.08.08,0,0,0,0,.11h.05c.32-.06,1.09-.25.89.28a.07.07,0,0,0,0,.09c.1,0,.54.09.49.2a.08.08,0,0,0,.06.1h0a8.68,8.68,0,0,1,1,0,1.82,1.82,0,0,1,.46.06c.1.11-.06.38-.11.46a.09.09,0,0,0,0,.11h0c.17.07.31.18.19.36v.11c.43.13,1.21-.23,1.34.29.07.32,0,.39.43.36.06,0,.12-.14,0-.14-.42,0-.12-.49-.36-.65s-.81.15-1.06,0,0-.18-.12-.36-.14,0-.17-.08-.07-.07-.08-.07a.24.24,0,0,0,0-.12c0-.08.05-.08.06-.12.11-.49-.68-.37-1-.39h-.57v-.14s-.44-.17-.46-.19.1-.18.05-.29-.67-.11-.87-.1H360a.16.16,0,0,0,.14-.13c0-.07,0-.11,0-.18a.42.42,0,0,0-.3-.18.84.84,0,0,0-.41.08.74.74,0,0,0,.06-.44c-.11-.47-.64-.13-.95,0-.06,0-.09.15,0,.13a1.87,1.87,0,0,1,.61-.18c.26.05.07.43-.08.66l-.31.17a1.37,1.37,0,0,0-.65.4C358,286.47,358.27,286.57,358.58,286.42Zm.17-.51.24-.13a1.13,1.13,0,0,1-.4.44s-.35.11-.25,0A1,1,0,0,1,358.75,285.91Z"/><path class="cls-3" d="M365.37,290.22v.07c.38.11.73-.33.86-.76.13,0,.43-.07.48.15a2,2,0,0,0-.08.22.08.08,0,0,0,.07.08c.2,0,.85-.24.74.11a.14.14,0,0,0,0,.09c.17.12.54-.09.59.17s-.23.24-.09.41.28,0,.41,0,.15-.1.23-.07,0,.07.05.11,0,.11.08.12a.6.6,0,0,0,.19,0c.06,0,.09-.07.14-.07a1,1,0,0,1,.25.06s.37.17.33.11c.06.1-.16.27-.06.42s.66,0,.81,0,.13-.16,0-.15l-.37,0c-.33-.15-.25-.24-.18-.42a.06.06,0,0,0,0-.08h0c-.22,0-.37-.2-.53-.2l-.27.1c-.27,0-.13-.08-.14-.26s0-.06-.07-.06h0c-.14.05-.53.36-.54,0,0,0,.16-.15.17-.23a.24.24,0,0,0-.2-.24.86.86,0,0,0-.32,0c-.42.07-.07,0-.21-.1a.4.4,0,0,0-.39-.13.57.57,0,0,1-.26,0c-.21-.06-.07,0-.08-.14s.08-.17.05-.29-.18-.18-.37-.15a2.42,2.42,0,0,0-.35.12c0-.29-.06-.54-.34-.53-.08,0-.14.13,0,.15s.2.28.14.51C365.73,289.64,365.39,289.93,365.37,290.22Zm.36-.28a1.07,1.07,0,0,1,.26-.26l-.05.11s-.28.37-.21.15Z"/><path class="cls-3" d="M360.74,292.06a2.33,2.33,0,0,0,.79-.83,1.12,1.12,0,0,1,.36-.09c.47.07.07.24,0,.42a.08.08,0,0,0,.05.1h0c.33-.05,1.1-.24.89.28a.07.07,0,0,0,0,.09c.11,0,.54.1.5.2a.07.07,0,0,0,0,.09h1.05a2.4,2.4,0,0,1,.46.05c.11.13-.06.39-.11.47a.08.08,0,0,0,0,.11h0c.17.07.31.18.19.37a.09.09,0,0,0,0,.11h0c.44.12,1.22-.24,1.35.28.07.32,0,.4.42.36.07,0,.12-.14,0-.14-.42,0-.12-.48-.36-.65s-.81.15-1.08,0,.05-.18-.1-.37-.15,0-.17-.08-.07-.07-.07-.07a.45.45,0,0,0,0-.11c0-.08.06-.07.07-.13.1-.49-.68-.37-1-.39a5.42,5.42,0,0,1-.57,0V292s-.46-.17-.46-.19.1-.17,0-.27-.67-.12-.87-.11h-.15a.15.15,0,0,0,.14-.13.61.61,0,0,0,0-.19c0-.16-.17-.17-.3-.18a1.15,1.15,0,0,0-.41.08.73.73,0,0,0,.06-.44c-.11-.48-.66-.12-.95,0-.07,0-.09.16,0,.13a2.44,2.44,0,0,1,.61-.18c.15,0,.06.43-.08.66l-.31.16a1.46,1.46,0,0,0-.65.42C360.11,292.12,360.43,292.22,360.74,292.06Zm.16-.5.25-.13a1.27,1.27,0,0,1-.4.43s-.35.12-.25,0A.9.9,0,0,1,360.9,291.56Z"/><path class="cls-3" d="M354.8,288.54a.08.08,0,0,0,.05.07c.38.11.72-.32.85-.76.14,0,.44-.05.48.16,0,0-.07.18-.08.23s0,.06.07.06c.2,0,.85-.24.75.12a.06.06,0,0,0,0,.08c.17.12.54-.09.59.17s-.23.24-.09.41.29,0,.41,0,.16-.1.23-.07,0,.08,0,.12.06.09.1.12.13,0,.19,0,.09-.07.13-.07l.26.07s.36.17.33.1c.05.1-.17.27-.06.42s.66,0,.81,0,.13-.16,0-.16l-.37,0c-.34-.14-.25-.23-.19-.4s0-.1-.06-.09c-.22,0-.38-.21-.53-.2a1.69,1.69,0,0,0-.27.1c-.27,0-.15-.08-.15-.26a.07.07,0,0,0-.07-.07h0c-.15.06-.53.36-.54,0,0-.05.16-.15.17-.22a.26.26,0,0,0-.2-.25.74.74,0,0,0-.33.05c-.41.06-.06,0-.21-.11s-.15-.13-.38-.12a1.13,1.13,0,0,1-.26,0c-.22-.06-.08,0-.08-.14s.08-.17,0-.29a.31.31,0,0,0-.36-.15,2.06,2.06,0,0,0-.35.12c0-.29-.06-.54-.34-.53-.08,0-.15.14-.05.15s.21.28.15.51A1.32,1.32,0,0,0,354.8,288.54Zm.36-.27a1,1,0,0,1,.27-.26v.1C355.34,288.18,355.1,288.48,355.16,288.27Z"/><path class="cls-3" d="M359.54,295.94a2.33,2.33,0,0,0,.8-.82.74.74,0,0,1,.36-.09c.45.06.07.24,0,.42a.07.07,0,0,0,.05.09h0c.33-.05,1.1-.24.89.29a.05.05,0,0,0,0,.08h0c.1,0,.54.09.48.2a.07.07,0,0,0,0,.09h1.06a3.62,3.62,0,0,1,.46.06c.1.12-.06.38-.11.47a.06.06,0,0,0,0,.1h0c.18.08.31.18.2.37a.08.08,0,0,0,0,.11h0c.44.11,1.22-.24,1.33.27.08.33,0,.4.43.37.07,0,.13-.15,0-.15-.42,0-.1-.47-.34-.65s-.82.16-1.08,0,0-.18-.1-.37-.16,0-.19-.07-.05-.07-.05-.07v-.12c0-.08,0-.07.06-.13.1-.49-.67-.36-1-.39a5.42,5.42,0,0,1-.57,0v-.14s-.46-.17-.47-.19.11-.18.05-.28-.67-.12-.87-.11h-.14a.13.13,0,0,0,.13-.13,1.18,1.18,0,0,0,0-.19c0-.09-.15-.16-.28-.17a.82.82,0,0,0-.41.08.75.75,0,0,0,.05-.44c-.11-.48-.64-.14-1,0-.07,0-.09.16,0,.13a1.75,1.75,0,0,1,.61-.18c.14,0,.07.43-.08.65l-.31.17a1.29,1.29,0,0,0-.64.41C358.92,296,359.24,296.1,359.54,295.94Zm.17-.5.24-.13a1.06,1.06,0,0,1-.41.43s-.33.13-.24,0A.93.93,0,0,1,359.71,295.44Z"/><path class="cls-3" d="M354.62,292.78a0,0,0,0,0,0,.06c.38.13.72-.31.86-.75.13,0,.42-.06.47.15a2,2,0,0,0-.07.23s0,.07.06.08.85-.25.75.11a.06.06,0,0,0,0,.08c.16.11.53-.08.58.18s-.23.23-.08.4.28,0,.4,0,.16-.11.23-.08,0,.09.05.13,0,.09.09.12h.19c.05,0,.08-.07.13-.07a1.11,1.11,0,0,1,.26.07s.36.16.33.1c.05.09-.17.27-.06.42s.67,0,.81,0,.13-.16.05-.16l-.39,0c-.33-.14-.24-.24-.18-.4a.06.06,0,0,0,0-.09h0c-.23,0-.38-.21-.55-.2l-.27.09c-.26,0-.13-.08-.14-.25S358,293,358,293s-.54.36-.55,0c0,0,.17-.15.18-.22s0-.21-.21-.25a.86.86,0,0,0-.32,0c-.41.06-.07,0-.2-.12s-.16-.12-.39-.11a1.13,1.13,0,0,1-.26,0c-.22-.06-.08,0-.09-.15s.09-.18,0-.29a.29.29,0,0,0-.36-.14,1.42,1.42,0,0,0-.35.11c0-.3-.06-.54-.35-.53-.07,0-.14.14,0,.15s.2.28.14.51C355,292.19,354.64,292.49,354.62,292.78Zm.35-.27a.84.84,0,0,1,.27-.26l-.05.1C355.15,292.41,354.9,292.69,355,292.51Z"/><path class="cls-3" d="M351,289.14a.9.9,0,0,1,0,.46s0,.06.08.08.85-.25.74.11a.14.14,0,0,0,0,.09c.18.11.55-.09.6.17s-.23.24-.1.41.3,0,.42,0,.15-.11.23-.08,0,.08,0,.12a.22.22,0,0,0,.1.12s.12,0,.19,0,.08-.08.13-.08l.26.07s.35.16.32.11-.16.26-.05.41.65,0,.81,0,.13-.16,0-.15l-.39,0c-.32-.14-.24-.24-.18-.41s0-.1-.06-.1c-.22,0-.37-.2-.54-.2s-.23.11-.27.11c-.26,0-.13-.09-.13-.26a.06.06,0,0,0-.07-.06h0c-.15.05-.53.36-.54,0,0,0,.16-.15.17-.23a.24.24,0,0,0-.2-.23.58.58,0,0,0-.32,0c-.42.06-.07,0-.21-.11a.38.38,0,0,0-.39-.12h-.26c-.22-.06-.07,0-.08-.14s.08-.19,0-.29-.31-.31-.36-.09a.14.14,0,0,0,0,.09A.42.42,0,0,0,351,289.14Z"/></g><g id="freepik--Pencil--inject-299"><path id="freepik--shadow--inject-299-8" data-name="freepik--shadow--inject-299" class="cls-10" d="M343.75,309.56c-.31.84-1.19,1.35-2.66,1.55l-21-12.31L317.36,296a.22.22,0,0,1,0-.3.2.2,0,0,1,.21,0l5,1.66Z"/><path class="cls-11" d="M322.39,295.48l-4.47-.88a.13.13,0,0,0-.16.12.14.14,0,0,0,0,.11l3,3.43Z"/><path class="cls-4" d="M317.78,294.83a.15.15,0,0,1,0-.2.11.11,0,0,1,.11,0l.86.17h0a.78.78,0,0,0-.35.72v.06Z"/><path class="cls-3" d="M337.52,307.84l-.37-.22-.44-.24-15.89-9.12a2.05,2.05,0,0,1,.13-1.48,2.11,2.11,0,0,1,1.44-1.3l15.87,9.1.85.49C338.55,304.78,337,307.55,337.52,307.84Z"/><path class="cls-25" d="M336.11,307l-.8-.47c-.26-.13-.11-.72.17-1.33.38-.81,1.11-1.6,1.43-1.43l.6.34.22.13c-.33-.17-1.06.62-1.44,1.44-.26.58-.4,1.15-.2,1.31h0Z"/><path class="cls-9" d="M335.91,306.93c-.56-.3,1-3.06,1.61-2.77l.82.47c-.55-.3-2.17,2.47-1.61,2.76Z"/><path class="cls-25" d="M337.52,307.84l-.81-.46c-.56-.29,1-3,1.55-2.8h0l.81.47C338.55,304.78,337,307.55,337.52,307.84Z"/><path class="cls-13" d="M317.76,294.67l.16-.07,3.24,1.77L338,306H338c-.47.75-.84,1.68-.52,1.85l-.37-.22-.44-.25-15.89-9.11h0l-3-3.43A.19.19,0,0,1,317.76,294.67Z"/><path class="cls-17" d="M340.94,309.8l-3.42-2c-.24-.13-.12-.71.17-1.32.36-.82,1.1-1.61,1.42-1.45h0l3.45,1.93c.68.39.05,1.91-.71,2.54A.83.83,0,0,1,340.94,309.8Z"/><path class="cls-8" d="M340.74,308.74a2.52,2.52,0,0,1,1.4-1.7.57.57,0,0,1,.51.07c.52.49-.08,1.84-.8,2.47a.82.82,0,0,1-.89.23C340.7,309.66,340.61,309.27,340.74,308.74Z"/></g><g id="freepik--Laptop--inject-299"><path class="cls-10" d="M251.09,263.56,283.19,245a1.85,1.85,0,0,1,1.85,0l55.69,32.16a.41.41,0,0,1,.17.55.44.44,0,0,1-.17.16L308.29,296.6Z"/><path class="cls-14" d="M253.49,259.65v.72a2.94,2.94,0,0,0,1.48,2.57l51.88,29.95a3,3,0,0,0,3,0l28.29-16.28a3,3,0,0,0,1.48-2.56v-1h0a.35.35,0,0,1-.19.32l-31.05,17.93Z"/><path class="cls-3" d="M253.49,259.64l30.75-17.75a1.77,1.77,0,0,1,1.78,0l53.36,30.82a.38.38,0,0,1,.14.53.4.4,0,0,1-.14.15l-31.05,17.93Z"/><polygon class="cls-14" points="308.61 288.7 325.21 279.13 276.69 251.12 260.01 260.65 308.61 288.7"/><polygon class="cls-9" points="260.01 260.65 260.65 261.01 276.69 251.86 324.57 279.5 325.2 279.13 276.69 251.12 260.01 260.65"/><polygon class="cls-4" points="260.01 260.65 260.65 261.01 276.69 251.86 324.57 279.5 325.2 279.13 276.69 251.12 260.01 260.65"/><polygon class="cls-4" points="316.76 262.09 316.46 262.26 308.33 266.95 293.87 258.61 293.56 258.43 302 253.57 316.76 262.09"/><polygon class="cls-14" points="316.46 262.26 308.33 266.95 293.87 258.61 302 253.91 316.46 262.26"/><path class="cls-9" d="M308.33,291.32v2a3,3,0,0,1-1.48-.39L255,262.94a2.94,2.94,0,0,1-1.48-2.57v-.73Z"/><path class="cls-4" d="M308.33,291.32v2a3,3,0,0,1-1.48-.39L255,262.94a2.94,2.94,0,0,1-1.48-2.57v-.73Z"/><path class="cls-14" d="M307.5,291.74a3.57,3.57,0,0,1-3-.24l-51.64-29.82a3.48,3.48,0,0,1-1.71-2.46l-5.66-33.72a5.67,5.67,0,0,1,0-.58,3.49,3.49,0,0,1,1-2.49l53.67,31a2.6,2.6,0,0,1,1.26,1.82Z"/><path class="cls-3" d="M308.33,291.32l-.35.19-.48.25-6.12-36.51a2.6,2.6,0,0,0-1.26-1.81l-53.67-31a3.46,3.46,0,0,1,.71-.55L301,253a2.54,2.54,0,0,1,1.27,1.81Z"/><path class="cls-4" d="M300.89,254.13l.82-.49a2.74,2.74,0,0,1,.5,1.13l6.12,36.55-.35.19-.48.25-6.12-36.51A2.62,2.62,0,0,0,300.89,254.13Z"/><path class="cls-9" d="M278.4,260.62c-.38-2.25-2.71-5.25-5.2-6.68s-4.22-.78-3.81,1.48,2.7,5.26,5.2,6.68S278.78,262.88,278.4,260.62Z"/></g><g id="freepik--Coffee--inject-299"><path id="freepik--shadow--inject-299-9" data-name="freepik--shadow--inject-299" class="cls-8" d="M366.48,339.29c3.61,2,3.61,5.24,0,7.25a15.05,15.05,0,0,1-13.1,0c-3.62-2-3.62-5.25,0-7.25A15,15,0,0,1,366.48,339.29Z"/><g id="freepik--coffee--inject-299-2" data-name="freepik--coffee--inject-299"><path class="cls-4" d="M354.31,327.43a19.07,19.07,0,0,1,11.53.3c3.1,1.27,3.05,3.21-.11,4.31a19,19,0,0,1-11.53-.29C351,330.48,351,328.54,354.31,327.43Z"/><path class="cls-6" d="M351.83,323.44l16.61.44-1.76,19.55h0c-.1.7-.78,1.39-2.06,1.91a14.78,14.78,0,0,1-10-.26c-1.3-.58-2-1.3-2-2h0Z"/><path class="cls-25" d="M368.44,323.88l-.36,4a7.33,7.33,0,0,1-1.4.7,20.17,20.17,0,0,1-13.24-.33L353,328a8.78,8.78,0,0,1-1-.6l-.15-4Z"/><path class="cls-14" d="M350.76,324l.08-3,1.91.05c.27-.13.55-.25.86-.37a20.27,20.27,0,0,1,13.23.34c.3.13.55.28.8.41l1.91.05-.08,3h0c0,1-1,1.91-2.75,2.63a20.17,20.17,0,0,1-13.24-.34C351.64,326,350.74,325,350.76,324Z"/><path class="cls-3" d="M353.7,318.38a20.15,20.15,0,0,1,13.23.34c3.56,1.59,3.49,4-.14,5.38a20.08,20.08,0,0,1-13.23-.33C349.88,322.19,349.94,319.77,353.7,318.38Z"/><path class="cls-14" d="M352.59,320.36h0l.65-2.45L358,318a19.61,19.61,0,0,1,4.78.13l4.61.11.54,2.49h0c.28.9-.46,1.83-2.21,2.47a17.4,17.4,0,0,1-10.91-.28C353,322.18,352.25,321.21,352.59,320.36Z"/><path class="cls-3" d="M355.34,316.35a16.68,16.68,0,0,1,10,.26c2.69,1.09,2.65,2.75-.09,3.71a16.71,16.71,0,0,1-10-.26C352.48,319,352.48,317.3,355.34,316.35Z"/><path class="cls-4" d="M354.17,318.18a1,1,0,0,0,.29.35,4.74,4.74,0,0,0,1.15.62,14.7,14.7,0,0,0,4.69.83,14.08,14.08,0,0,0,4.65-.58,4.26,4.26,0,0,0,1.13-.56c.24-.18.3-.32.3-.36s-.23-.5-1.38-1a13.71,13.71,0,0,0-4.62-.82,14.5,14.5,0,0,0-4.72.58C354.47,317.67,354.17,318.09,354.17,318.18Z"/><path class="cls-14" d="M354.46,318.53a4.74,4.74,0,0,0,1.15.62,14.7,14.7,0,0,0,4.69.83,14.08,14.08,0,0,0,4.65-.58,4.26,4.26,0,0,0,1.13-.56,3.85,3.85,0,0,0-1.1-.62,13.51,13.51,0,0,0-4.62-.82,14.23,14.23,0,0,0-4.72.58A5.27,5.27,0,0,0,354.46,318.53Z"/><g class="cls-28"><path d="M357.25,318.67a1.38,1.38,0,0,0-1.11-.23c-.21.1-.05.39.36.63a1.36,1.36,0,0,0,1.1.24C357.84,319.2,357.69,318.91,357.25,318.67Z"/></g><path class="cls-3" d="M367.47,337.12c0,.73-.77,1.45-2.26,2a17.9,17.9,0,0,1-10.86-.27c-1.51-.6-2.25-1.36-2.24-2.09l-.29-7.21c0,.79.77,1.59,2.38,2.23a19,19,0,0,0,11.53.29c1.58-.55,2.38-1.31,2.4-2.09Z"/><path class="cls-9" d="M362.39,337.42a8.49,8.49,0,0,0,.68-1.21A3.69,3.69,0,0,1,365,334.6a.26.26,0,0,1,.3.11,2.87,2.87,0,0,1-3.6,3.46s-.06-.12,0-.13A2.36,2.36,0,0,0,362.39,337.42Z"/><path class="cls-9" d="M364.55,334.36a3.9,3.9,0,0,0-1.2.7,3.43,3.43,0,0,0-.89,1.15,3.5,3.5,0,0,1-1.12,1.41.24.24,0,0,1-.27-.08,2.48,2.48,0,0,1,.66-3,2.54,2.54,0,0,1,2.91-.59.23.23,0,0,1,.09.31A.22.22,0,0,1,364.55,334.36Z"/></g></g></g></g><g id="freepik--Plant--inject-299"><g id="freepik--pot--inject-299-2" data-name="freepik--pot--inject-299"><path class="cls-9" d="M372.88,466c-6.74-7-10.69-35.31-4.12-40.79h33.45c6.58,5.52,2.62,33.82-4.12,40.78l-.18.19a1.75,1.75,0,0,1-.24.23,8,8,0,0,1-.6.55l-.16.13c-.17.13-.33.26-.52.39a8.46,8.46,0,0,1-.86.56c-5.55,3.24-14.54,3.24-20,0h0a8.76,8.76,0,0,1-.88-.56l-.48-.37-.2-.16c-.21-.17-.4-.35-.58-.52l-.27-.27Z"/><g class="cls-29"><path class="cls-27" d="M372.88,466c-6.74-7-10.69-35.31-4.12-40.79h33.45c6.58,5.52,2.62,33.82-4.12,40.78l-.18.19a1.75,1.75,0,0,1-.24.23,8,8,0,0,1-.6.55l-.16.13c-.17.13-.33.26-.52.39a8.46,8.46,0,0,1-.86.56c-5.55,3.24-14.54,3.24-20,0h0a8.76,8.76,0,0,1-.88-.56l-.48-.37-.2-.16c-.21-.17-.4-.35-.58-.52l-.27-.27Z"/></g><path class="cls-9" d="M399.31,423c7.63,4.46,7.63,11.68,0,16.14s-20,4.45-27.68,0-7.63-11.68,0-16.14S391.67,418.58,399.31,423Z"/><g class="cls-30"><path class="cls-27" d="M399.31,423c7.63,4.46,7.63,11.68,0,16.14s-20,4.45-27.68,0-7.63-11.68,0-16.14S391.67,418.58,399.31,423Z"/></g><path class="cls-9" d="M395.64,425.17c5.6,3.28,5.6,8.59,0,11.86s-14.7,3.27-20.3,0-5.61-8.59,0-11.86S390,421.91,395.64,425.17Z"/><g class="cls-18"><path d="M395.64,425.17c5.6,3.28,5.6,8.59,0,11.86s-14.7,3.27-20.3,0-5.61-8.59,0-11.86S390,421.91,395.64,425.17Z"/></g><path class="cls-3" d="M375.38,430.81c5.61-3.28,14.7-3.28,20.31,0a9.26,9.26,0,0,1,3.35,3.11,9.26,9.26,0,0,1-3.35,3.11c-5.61,3.27-14.7,3.27-20.31,0a9.46,9.46,0,0,1-3.36-3.11A9.37,9.37,0,0,1,375.38,430.81Z"/><g id="freepik--Plants--inject-299"><path class="cls-9" d="M382.75,416.52a9.57,9.57,0,0,1-.86-2.44,5.73,5.73,0,0,1,1.78-5.63c.66-.5,1.51-.87,1.8-1.64a2.61,2.61,0,0,0,0-1.36c-.31-1.73-.89-3.53-.41-5.23a5.87,5.87,0,0,1,3.24-3.47,17.91,17.91,0,0,1,4.78-1.24,7.27,7.27,0,0,0,2.49-.72c1-.51,1.23-1.44,1.81-2.25a14.82,14.82,0,0,1,2.3-2.45,8.94,8.94,0,0,1,6.19-2.67c4.92.22,4.77,4.45,3.36,7.63s-1.79,4.26,1.28,7.64,3.08,7.47-.58,9.78-6.06,2.6-4.61,7c1.29,4,2.1,7.35-1.57,11.59a12,12,0,0,1-9.66,4.53,16.06,16.06,0,0,1-4.78-1.1c-1.11-.56-.36-1.42-.74-2.52l-2.43-7.1a51.84,51.84,0,0,0-1.91-5.59C383.75,418.34,383.21,417.45,382.75,416.52Z"/><g class="cls-31"><path d="M382.75,416.52a9.57,9.57,0,0,1-.86-2.44,5.73,5.73,0,0,1,1.78-5.63c.66-.5,1.51-.87,1.8-1.64a2.61,2.61,0,0,0,0-1.36c-.31-1.73-.89-3.53-.41-5.23a5.87,5.87,0,0,1,3.24-3.47,17.91,17.91,0,0,1,4.78-1.24,7.27,7.27,0,0,0,2.49-.72c1-.51,1.23-1.44,1.81-2.25a14.82,14.82,0,0,1,2.3-2.45,8.94,8.94,0,0,1,6.19-2.67c4.92.22,4.77,4.45,3.36,7.63s-1.79,4.26,1.28,7.64,3.08,7.47-.58,9.78-6.06,2.6-4.61,7c1.29,4,2.1,7.35-1.57,11.59a12,12,0,0,1-9.66,4.53,16.06,16.06,0,0,1-4.78-1.1c-1.11-.56-.36-1.42-.74-2.52l-2.43-7.1a51.84,51.84,0,0,0-1.91-5.59C383.75,418.34,383.21,417.45,382.75,416.52Z"/></g><path class="cls-27" d="M389.44,434.51a.38.38,0,0,0,.24-.35c-.2-24.31,13.18-38.81,13.35-39a.37.37,0,0,0,0-.52.35.35,0,0,0-.49,0h0c-.14.14-13.74,14.85-13.53,39.47a.38.38,0,0,0,.37.36Z"/><path class="cls-27" d="M393.33,411.9a.11.11,0,0,0,.08,0c4.36-2.74,12.13-4.77,12.21-4.77a.36.36,0,0,0,.27-.44.38.38,0,0,0-.45-.27c-.32.08-8,2.1-12.4,4.9a.36.36,0,0,0-.18.48.37.37,0,0,0,.48.18Z"/><path class="cls-27" d="M394.69,408.57h0a.37.37,0,0,0,.19-.47,28.23,28.23,0,0,0-4-6.77.37.37,0,0,0-.52,0,.37.37,0,0,0,0,.52,27.74,27.74,0,0,1,3.9,6.56A.36.36,0,0,0,394.69,408.57Z"/><path class="cls-9" d="M387,436.3l-.32.11c-1.76.51-3.71.21-5.51.2a20.75,20.75,0,0,1-6.14-1.23,11.16,11.16,0,0,1-5.31-3.59,6.69,6.69,0,0,1-1.15-6.13,6.8,6.8,0,0,0,.73-2.42,3,3,0,0,0-1.34-2.16,15.48,15.48,0,0,0-2.33-1.19,8.05,8.05,0,0,1-3.13-2.41,4.52,4.52,0,0,1-.86-3.46c.25-1.1,1.16-1.91,1.42-3,.4-1.8-.87-2.87-1.33-4.47-.37-1.28-.89-3-.55-4.31.49-1.84,2.52-2.87,4.4-3.07a11,11,0,0,1,7.25,1.9c2.09,1.52,3.74,3.44,6.5,3.67a26.88,26.88,0,0,1,3.82.08,5.5,5.5,0,0,1,3.72,3.63,12.75,12.75,0,0,1,.46,5.35,6,6,0,0,0,.38,3.52c.67,1.14,2,1.64,3.13,2.37a8.21,8.21,0,0,1,3.28,7.39c-.13,3-2.71,6-4.94,7.74A9.83,9.83,0,0,1,387,436.3Z"/><path class="cls-27" d="M386.83,436.6a.35.35,0,0,1-.22-.31c-.95-11.59-13.9-29.71-19.65-33.35a.36.36,0,0,1,.38-.6c5.83,3.7,19,22.12,20,33.91a.34.34,0,0,1-.29.37h0A.29.29,0,0,1,386.83,436.6Z"/><path class="cls-27" d="M378.78,416.74a.28.28,0,0,1-.18-.06c-3.21-1.9-8.3-1.82-10.76-1.29a.36.36,0,0,1-.43-.26h0a.39.39,0,0,1,.28-.43c2.57-.55,7.91-.67,11.28,1.39a.36.36,0,0,1-.18.66Z"/><path class="cls-27" d="M381.05,420.35a.35.35,0,0,1-.35-.29,19.8,19.8,0,0,1,1.79-9.71.36.36,0,0,1,.48-.14.35.35,0,0,1,.14.48,19.29,19.29,0,0,0-1.71,9.23.37.37,0,0,1-.28.42Z"/></g></g></g><g id="freepik--character-1--inject-299"><g id="freepik--character--inject-299-3" data-name="freepik--character--inject-299"><g id="freepik--chair--inject-299-2" data-name="freepik--chair--inject-299"><path class="cls-3" d="M131.43,400.1a1.28,1.28,0,0,1-1.24-1.3h0V315.45a1.25,1.25,0,0,1,2.49-.22.81.81,0,0,1,0,.22V398.8a1.27,1.27,0,0,1-1.24,1.3Z"/><path class="cls-3" d="M180.92,369.76a1.26,1.26,0,0,1-1.16-.83l-24.52-64.68a1.32,1.32,0,0,1,.7-1.69,1.22,1.22,0,0,1,1.59.67.14.14,0,0,0,0,.06L182.07,368a1.31,1.31,0,0,1-.7,1.68A1.39,1.39,0,0,1,180.92,369.76Z"/><path class="cls-3" d="M178,362a1.21,1.21,0,0,1-.9-.41l-45.64-50.33L85.88,361.4a1.21,1.21,0,0,1-1.71.05l0-.05a1.37,1.37,0,0,1-.05-1.84l46.46-51.11a1.24,1.24,0,0,1,.9-.4h0a1.24,1.24,0,0,1,.9.4l46.54,51.33a1.36,1.36,0,0,1,0,1.84A1.22,1.22,0,0,1,178,362Z"/><path class="cls-3" d="M82,369.76a1.39,1.39,0,0,1-.45-.09,1.31,1.31,0,0,1-.7-1.68l24.53-64.7a1.22,1.22,0,0,1,1.55-.76l.07,0a1.32,1.32,0,0,1,.69,1.69L83.11,368.93A1.25,1.25,0,0,1,82,369.76Z"/><path class="cls-4" d="M179.23,360l3.24,8.92a.81.81,0,0,1,0,.22v.17a1,1,0,0,1-.48.56,2.1,2.1,0,0,1-2,0,.86.86,0,0,1-.38-.42h0v-.12l-3-8.36Z"/><path class="cls-4" d="M83.64,360l-3.24,8.92a.81.81,0,0,0,0,.22v.17a1,1,0,0,0,.48.56,2.1,2.1,0,0,0,2,0,.82.82,0,0,0,.38-.42h0v-.12l3-8.38Z"/><path class="cls-4" d="M132.87,392.35v7.38a.75.75,0,0,1-.42.61,2.2,2.2,0,0,1-2,0,.75.75,0,0,1-.42-.61v-7.38A2.88,2.88,0,0,1,132.87,392.35Z"/><path class="cls-9" d="M189.05,303.37c0-2.33-1.91-4.77-6.08-7.59-7.64-5.16-29.82-18.07-40.49-24.23a.12.12,0,0,0-.08-.09c-8.22-5.19-10.71-27.36-16.4-46.15-1.91-6.4-4.3-10-7.12-11.74-.66-.4-3.13-1.81-3.67-2.15-5.57-3.49-12.89.71-22,5.89-8.38,4.78-15,10.93-16.27,27.2-.8,9.9,0,28.84,1.91,43.18h0c2.79,24,6.22,24,11.2,28,8.59,6.9,27.88,16.6,36,19.94,14.76,6.05,26.81-3.28,35.8-7.91A208,208,0,0,0,185.71,313c2.24-1.69,3.4-3.42,3.38-5.23C189,307.06,189.05,304.14,189.05,303.37Z"/><path class="cls-10" d="M189.05,303.37c0-2.33-1.91-4.77-6.08-7.59-7.64-5.16-29.82-18.07-40.49-24.23a.12.12,0,0,0-.08-.09c-8.22-5.19-10.71-27.36-16.4-46.15-1.91-6.4-4.3-10-7.12-11.74-.66-.4-3.13-1.81-3.67-2.15-5.57-3.49-12.89.71-22,5.89-8.38,4.78-15,10.93-16.27,27.2-.8,9.9,0,28.84,1.91,43.18h0c2.79,24,6.22,24,11.2,28,8.59,6.9,27.88,16.6,36,19.94,14.76,6.05,26.81-3.28,35.8-7.91A208,208,0,0,0,185.71,313c2.24-1.69,3.4-3.42,3.38-5.23C189,307.06,189.05,304.14,189.05,303.37Z"/><path class="cls-9" d="M161.83,323.27a208.48,208.48,0,0,0,23.86-14.7c5.11-3.88,4.64-7.84-2.69-12.79-10.18-6.89-46.35-27.6-46.35-27.6s-52.48,32.28-50.22,38.23S115.83,327,126,331.18C140.79,337.23,152.84,327.9,161.83,323.27Z"/><g class="cls-32"><path d="M161.83,323.27a208.48,208.48,0,0,0,23.86-14.7c5.11-3.88,4.64-7.84-2.69-12.79-10.18-6.89-46.35-27.6-46.35-27.6s-52.48,32.28-50.22,38.23S115.83,327,126,331.18C140.79,337.23,152.84,327.9,161.83,323.27Z"/></g><path class="cls-9" d="M118.56,213.38c-5.53-3-12.7,1.09-21.59,6.16-5.72,3.25-10.49,7.1-13.48,14.31l-3.74-2.23c2.94-7.18,7.77-11,13.44-14.31,9.13-5.21,16.44-9.38,22-5.9C115.7,211.71,117.63,212.84,118.56,213.38Z"/><path class="cls-33" d="M118.56,213.38c-5.53-3-12.7,1.09-21.59,6.16-5.72,3.25-10.49,7.1-13.48,14.31l-3.74-2.23c2.94-7.18,7.77-11,13.44-14.31,9.13-5.21,16.44-9.38,22-5.9C115.7,211.71,117.63,212.84,118.56,213.38Z"/><path class="cls-9" d="M97,219.54c13.64-7.78,23.27-13.36,29,5.72,5.73,18.79,8.18,41,16.4,46.15,0,0,2.5.22-17.93,16.3-6.49,5.16-14.37,9.36-19.56,12.61-10.14,6.3-16.3,8.83-17.27,8-5.36-4.64-8.26-45.27-7-61.54S88.58,224.33,97,219.54Z"/></g><g id="freepik--character--inject-299-4" data-name="freepik--character--inject-299"><path class="cls-14" d="M129.59,234.77a25.84,25.84,0,0,0,11.13-1.35c5.34-1.85,15-8.87,5.2-21.82,6.73-2.45,6.57-8.81,5.65-11.81-1.06-3.5-3.5-5.28-5.7-7.66s-4.2-4.56-4.37-7.32c-.11-1.84,2.65-4.79,3.12-6.78,1-4.3.65-9.6-2.23-13.15a12.9,12.9,0,0,0-8.51-4.95,11.58,11.58,0,0,0-3.71.23,4.12,4.12,0,0,1-3.35-.11c-3.41-1.41-8.09-1.48-11.71-1.24a24.65,24.65,0,0,0-11.31,3.4A25.73,25.73,0,0,0,93.91,174a42.84,42.84,0,0,0-3.2,15.23c-.77,16.44,5.51,33.74,21.15,41.16l.24.11C117.56,233.09,123.62,234.1,129.59,234.77Z"/><path class="cls-11" d="M198.67,359.83s2.28,9.05,4.7,13.42A67.77,67.77,0,0,0,212,385.7c.76.85,2.49,2.42,3.12,3.12a1.37,1.37,0,0,1,.08,1.92l-.19.16c-1.5,1.49-8,2-11.65-.71s-7.34-7.76-9.54-9.91c-1.09-1.08-2.14-2.11-2.86-2.86a2.87,2.87,0,0,1-.78-2.78c.06-.29.14-.62.22-1,.47-2.1-2.45-10.63-2.45-10.63Z"/><path class="cls-14" d="M120.72,261.12c-1.36,7.64-1.78,11.93.9,19.62s8.76,20.4,19.52,26.43c8.89,5,21,11.45,23.53,12.91,2.86,1.64,4,3.15,4.94,7.07,1.19,4.89,2.63,10.5,8.07,20.85,6.68,12.73,9.55,18.95,9.55,18.95,3.67.24,10.88-1.91,13-3.7,0,0-13.09-50.46-15.44-57s-19.36-16.13-26.66-20.33-11.37-6.84-19.7-12.48Z"/><path class="cls-4" d="M139.41,282.48a60.77,60.77,0,0,1-5.28,9l1.54,1.28S139.41,287.63,139.41,282.48Z"/><path class="cls-11" d="M173.57,371.77s2.76,12.4,4.93,15.37c2.79,3.82,5.07,8.54,8.58,12.4.76.85,2.5,2.44,3.12,3.13a1.35,1.35,0,0,1,.1,1.9l-.2.18c-1.5,1.49-8,1.9-11.65-.7s-7.33-7.78-9.55-9.92c-1.1-1.08-2.13-2.11-2.86-2.87a2.92,2.92,0,0,1-.77-2.78c.06-.28.14-.62.23-1,.46-2.09-2.46-10.63-2.46-10.63Z"/><path class="cls-4" d="M164.49,394.42c0,1.61.17,2.45.43,2.69a21.86,21.86,0,0,0,4.69,2.21c.81.07.95-.48,1.65.47a64.39,64.39,0,0,0,3.74,5.36,11.16,11.16,0,0,0,6.36,3.59,20.56,20.56,0,0,0,10.24-.5c3.71-1.18,4.49-2.68,4.37-4.07S164.49,394.42,164.49,394.42Z"/><path class="cls-3" d="M164.77,382.75c-.28.11-.42.38-.46.8s.1,1,.13,1.74a18,18,0,0,1-.37,4.45,8.23,8.23,0,0,0,.41,4.68,26.22,26.22,0,0,0,4.44,2.2c4.58,2.32,4.89,5.93,7.91,8.38a11.44,11.44,0,0,0,6.55,2.66,26.42,26.42,0,0,0,7.63-.52c1.68-.43,6.18-2.23,5.11-4.72a3.43,3.43,0,0,0-1.39-1.36,74.8,74.8,0,0,1-6.38-4.36,54.2,54.2,0,0,1-6.81-6.74,24.12,24.12,0,0,1-4.18-6.6,1.38,1.38,0,0,0-.37-.58,1.24,1.24,0,0,0-1-.09,32.66,32.66,0,0,0-4.21,1.12,2.67,2.67,0,0,0-1.14.63,2.72,2.72,0,0,0-.43,2.11c0,.41,0,.95-.38,1.1s-.75-.19-1-.54c-.35-.65-.44-1.47-1-1.91a3.8,3.8,0,0,0-1.35-.67,6.81,6.81,0,0,0-1.41-.3C165,383.87,164.79,382.81,164.77,382.75Z"/><path class="cls-4" d="M189.35,380.66c0,1.6.17,2.45.42,2.7a22.62,22.62,0,0,0,4.7,2.2c.81.07.95-.47,1.65.48a60,60,0,0,0,3.74,5.35,11.1,11.1,0,0,0,6.36,3.59,20.4,20.4,0,0,0,10.23-.5c3.71-1.17,4.5-2.67,4.38-4.08S189.35,380.66,189.35,380.66Z"/><path class="cls-3" d="M189.7,369a.79.79,0,0,0-.51.73c0,.44.1,1,.12,1.74a18,18,0,0,1-.37,4.45,8.22,8.22,0,0,0,.41,4.68c1.38,1,2.87,1.4,4.45,2.2,4.57,2.32,4.89,5.94,7.89,8.37a11.63,11.63,0,0,0,6.57,2.69,26.81,26.81,0,0,0,7.58-.54c1.68-.43,6.19-2.23,5.11-4.71a3.42,3.42,0,0,0-1.4-1.37,72.84,72.84,0,0,1-6.37-4.4,53,53,0,0,1-6.81-6.75,24.34,24.34,0,0,1-4.19-6.59,1.41,1.41,0,0,0-.37-.59,1.24,1.24,0,0,0-1-.08,32.34,32.34,0,0,0-4.22,1.11,2.07,2.07,0,0,0-1.57,2.74c0,.42,0,1-.37,1.1s-.75-.19-1-.53c-.34-.65-.43-1.47-1-1.91a4.14,4.14,0,0,0-1.35-.74,4.6,4.6,0,0,0-1.38-.24Z"/><path class="cls-3" d="M92.08,275.82c.31,11.57-.22,19.14,3.64,24.81,4.55,6.75,9.34,9.43,20,15.45,8.9,5,24.5,11.81,27.15,12.93s3,4.11,3.63,8.59a72.61,72.61,0,0,0,6.4,22.58c5.31,11.18,9.26,19.41,9.26,19.41A34.06,34.06,0,0,0,175,376.25s-9.84-50.78-12.18-57.31-28.75-27.46-28.75-27.46,7-7.42,6.1-16.82Z"/><path class="cls-11" d="M199.71,205.32a9.19,9.19,0,0,0-6.75-6.38,1.86,1.86,0,0,0-1.39.15,2.22,2.22,0,0,0-.69,1.28q-1,3.81-2.43,7.58a37.27,37.27,0,0,1-1.46,3.72c-.16.29-1.28,1.58-1.28,1.71a16.92,16.92,0,0,0-.13-4,2.31,2.31,0,0,0-2.51-2c-.52.1-.22,1.36-.81,3.43-.75,2.63-1.63,4.34-1.72,7.28a4.7,4.7,0,0,1-1.2,3c-3.58,3.92-13.47,11.82-20.39,16.47-3.95-3.63-8.59-10.39-14-17.18-6.76-8.4-9.23-11.53-20.47-11l2.38,16.33c6.24,7.7,11.81,12.83,24,25.37,2.86,2.86,5,4.07,6.85,4.25,2.59.22,5-1.86,7.37-3.82,5.29-4.47,10.5-9.09,15.48-13.95,6.74-6.61,15.53-14.77,18.49-22.59A14.76,14.76,0,0,0,199.71,205.32Z"/><path class="cls-25" d="M125.31,209.07c5.08-.21,8.71-.49,12.32,2.51S159,237,159,237l13.27-9.45s2.45,7,8.28,10c0,0-11.73,12-17.12,15.92s-7.41,2.48-11.27-.38-24.52-24.81-24.52-24.81Z"/><path class="cls-2" d="M159,237c-3.13,1.91-5,7.33-5,7.33a12.73,12.73,0,0,1,3.9-8.71Z"/><path class="cls-2" d="M172.24,227.51l5.07-4.42a15.31,15.31,0,0,0,3.62,6.63,19.85,19.85,0,0,0,4.12,3.3l-4.53,4.45s-2.2-.52-5.31-4.13S172.24,227.51,172.24,227.51Z"/><path class="cls-6" d="M107.91,209.67s-10.37,1-14.32,1.91L87,237.65l4.62,19.93-.38,25.76c7.06,7.63,44.92,3.22,49-8.69,0,0-8.47-25.51-3.8-29.65,5.28-4.67,3.21-14.83,2.31-17.74-2.58-8.71-4.95-17.33-13.44-18.22Z"/><path class="cls-2" d="M118.69,218.19l.69-2,3.08.4a4.27,4.27,0,0,1-3.52,4.34c-3.82.95-5.26-1.85-5.26-1.85l3.2-2.64Z"/><path class="cls-11" d="M112.33,302.83a23.26,23.26,0,0,1-6.33-4.59,20.57,20.57,0,0,0,4.56.45c2.16-.18,2.86-1.58,2.86-2.29,0-.55-1.47-.43-3.66-1.34-2.8-1.15-5.66-3-9-3.52a4.93,4.93,0,0,1-3.08-1.66c-4.19-5.06-14.92-24.7-15.55-26.33,0,0,8-17.77,10.74-24.45,6.76-11.85,4.77-24.52.62-27.52-9.09.78-13.06,5.95-15.93,15-2.51,8-9.41,24.36-11.18,34.16-1,4.93-.59,7.14,6.27,16.61,3.66,5.08,8.08,10.1,13.6,17.7a111.92,111.92,0,0,0,7.35,9c7.39,8.11,12.25,9.34,17,7.55C118.23,308.81,117.74,305.59,112.33,302.83Z"/><path class="cls-25" d="M95.22,211.27c-3.56-.12-10.43-.24-14.84,7.41s-9.71,25-12.1,32.85-5.33,12.53-.74,19.21a197.22,197.22,0,0,0,12.21,15.72,14.77,14.77,0,0,1,9.8-9.48l-6.86-13.36L96.22,233.9A37.46,37.46,0,0,0,98,220.32C97.63,212.67,95.22,211.27,95.22,211.27Z"/><path class="cls-2" d="M82.69,263.57c-1.17-1.91-5.49-2.72-7.31-2.45a8.5,8.5,0,0,1,8.29.29Z"/><path class="cls-2" d="M79.75,286.44l3.9,5s3.25-6.82,9.78-8L89.55,277s-3.14-.27-6.49,3.45S79.75,286.44,79.75,286.44Z"/><path class="cls-11" d="M135.37,179a26.52,26.52,0,0,0-1.23-4.81A8,8,0,0,0,133,172c-2,2.95-4.09,3.75-8.14,4a17.28,17.28,0,0,1-7.9-1.78c-.38,3.69-4.17,8.74-7.8,9.52-.09,1.54,0,1.92-.15,3.1s-.23,2.83-1.68,3.08-1.35-1.22-2.47-3.32a5.49,5.49,0,0,0-.52-.65,5,5,0,0,0-7-.12c-.12.16-.23.33-.34.51a6.67,6.67,0,0,0,2.22,9.17c3.67,2.42,5.69.21,5.69.21l.3,17.3a2.63,2.63,0,0,0,.64,1.7c2.14,2.42,7.36.33,10.05,2.11,2.51.5,2.71,1.1,5.21-1.1s-.5-3.15-.5-3.15l-.13-7.42c3.75.56,7.62,1,9.59.11s5.9-4,6-16.28A62.26,62.26,0,0,0,135.37,179Z"/><path class="cls-17" d="M120.52,207.67s-8.08-2.2-10.56-4.24a8.37,8.37,0,0,1-2.91-4c1.32,3.19,9.48,5.38,13.43,5.82Z"/><path class="cls-34" d="M122.82,197h0a1.62,1.62,0,1,0,1.65,1.58A1.6,1.6,0,0,0,122.81,197Z"/><path class="cls-4" d="M122.4,186.52a1.73,1.73,0,0,0-1.82-1.64,1.69,1.69,0,1,0,1.82,1.64Z"/><path class="cls-4" d="M133.85,185.6a1.55,1.55,0,0,0-3.07.39,1.09,1.09,0,0,0,0,.18,1.48,1.48,0,0,0,1.63,1.32h0a1.55,1.55,0,0,0,1.42-1.68C133.86,185.73,133.85,185.67,133.85,185.6Z"/><polygon class="cls-17" points="132.41 192.27 127.16 194.45 125.93 184.2 132.41 192.27"/><path class="cls-4" d="M119.85,179.86a2.08,2.08,0,0,0-2.92-.12,2.19,2.19,0,0,0-.12,3l3.08-2.87Z"/><path class="cls-4" d="M134.08,178.68l-.07-.05a2,2,0,0,0-2.86.49l3.34,2.61A2.23,2.23,0,0,0,134.08,178.68Z"/><path class="cls-25" d="M118.69,218.19a3.52,3.52,0,0,1,.9-2.73,6.64,6.64,0,0,0,1-4.13v-4.65a2.87,2.87,0,0,1,2.72,2.15c.73,1.8,2,5.45,1.44,9a16.19,16.19,0,0,1-1.2,4.64,31.88,31.88,0,0,0-1.73-3.7C120.76,217.11,119.48,216.74,118.69,218.19Z"/><path class="cls-25" d="M105,204.65c-1,.08-1.57.95-2.39,2.57-1,1.86-1.72,3.55-1.72,3.55a11.45,11.45,0,0,0,3.38,7.2,23.89,23.89,0,0,0,10.5,6s.7-3.08,1.17-4.49c1-3.09,2.87-1.26,2.87-1.26a3.6,3.6,0,0,0-.85-1.83c-.67-.59-4.92-1-8.31-3.09a12.08,12.08,0,0,1-4.61-5.89Z"/></g><g id="freepik--Document--inject-299"><path class="cls-10" d="M160.28,287.61c-3.53-2-6.31-3.7-9.18-5.51l-33.92,19.58h0a.2.2,0,0,0-.09.09h0c-.06.09,0,.2.11.29l28.56,16.49a.9.9,0,0,0,.36.08.66.66,0,0,0,.36-.08l32.8-18.93C173.08,294.9,164.81,290.22,160.28,287.61Z"/><g id="freepik--List--inject-299"><path class="cls-9" d="M185,293.54v.69a.74.74,0,0,1-.34.58L146.37,316.9a.81.81,0,0,1-.68,0L118.3,301.08a.72.72,0,0,1-.34-.59v-.69a.75.75,0,0,1,.34-.59l38.25-22.08a.71.71,0,0,1,.69,0L184.64,293A.75.75,0,0,1,185,293.54Z"/><path class="cls-35" d="M185,293.54v.69a.74.74,0,0,1-.34.58L146.37,316.9a.81.81,0,0,1-.68,0L118.3,301.08a.72.72,0,0,1-.34-.59v-.69a.75.75,0,0,1,.34-.59l38.25-22.08a.71.71,0,0,1,.69,0L184.64,293A.75.75,0,0,1,185,293.54Z"/><path class="cls-10" d="M118.25,299.25a.21.21,0,0,0,0,.35l27.41,15.83a.77.77,0,0,0,.34.08V317a.67.67,0,0,1-.34-.09L118.3,301.08a.69.69,0,0,1-.33-.59v-.69A.73.73,0,0,1,118.25,299.25Z"/><path class="cls-13" d="M184.7,293h0l0,.06h0a.8.8,0,0,1,.18.37v.77a.76.76,0,0,1-.35.58l-38.2,22.14a.69.69,0,0,1-.34.09v-1.48a.81.81,0,0,0,.34-.08l38.25-22.09a.25.25,0,0,0,.13-.14.17.17,0,0,0,0-.19Z"/><path class="cls-4" d="M174.63,283.23c0-.25-.16-.5-.57-.74a2.72,2.72,0,0,0-1.22-.34h-.1a22.13,22.13,0,0,0-3.12.64h-.05a7.3,7.3,0,0,1-2.67-.29h-.76a8.34,8.34,0,0,1-1.73,0c-.46-.05-.8-.07-1-.08h-.11a1.48,1.48,0,0,0-.77.15l-1.54.89V284l11.45,6.68,1.54-.89a.44.44,0,0,0,.26-.47v-.49a2.42,2.42,0,0,0-.13-.66c0-.14-.07-.26-.09-.37a2.2,2.2,0,0,0,.05-.37v-.52a.49.49,0,0,0,0-.17c-.08-.27-.43-.54-.55-1a.69.69,0,0,1,.05-.13c.23-.55,1.1-1.19,1.09-1.81C174.62,283.66,174.63,283.33,174.63,283.23Zm-2.37,1.47a3.1,3.1,0,0,1-.83.32,2.19,2.19,0,0,1-1.55-.12.66.66,0,0,1-.28-.27,1.47,1.47,0,0,1,.62-.59,2.9,2.9,0,0,1,2.1-.33c.1,0,.19.08.29.12a.7.7,0,0,1,.27.27,1.38,1.38,0,0,1-.62.6Z"/><path class="cls-14" d="M162.48,282.54l-1.54.88,11.45,6.68,1.54-.88c.19-.12.39-.27.13-1.12s.05-1.05-.07-1.43-.84-.79-.49-1.58,1.9-1.75.52-2.55a2.59,2.59,0,0,0-1.21-.34h-.11a22.13,22.13,0,0,0-3.12.64h-.05a7.32,7.32,0,0,1-2.67-.29h-.76a8.34,8.34,0,0,1-1.73,0c-.46-.05-.8-.07-1.05-.08h-.1A1.43,1.43,0,0,0,162.48,282.54Zm9.48,5.94a.73.73,0,0,1,.63-.06c.15.09.1.25-.1.37a.67.67,0,0,1-.63,0C171.71,288.76,171.76,288.6,172,288.48Zm-1.74-5a2.85,2.85,0,0,1,2.1-.31,1,1,0,0,1,.29.11c.56.33.41.95-.35,1.38a3.1,3.1,0,0,1-.83.32,2.19,2.19,0,0,1-1.55-.12C169.27,284.57,169.47,284,170.22,283.52Zm-7.13-.15a.7.7,0,0,1,.63-.06c.16.08.12.25-.09.36a.68.68,0,0,1-.62.06C162.86,283.64,162.89,283.48,163.09,283.37Z"/><path class="cls-1" d="M147.11,313l-23.86-13.77a.47.47,0,0,1-.2-.36v-.26a.46.46,0,0,1,.2-.36l31.49-18.19a.47.47,0,0,1,.4,0L179,293.85a.49.49,0,0,1,.2.37v.26a.46.46,0,0,1-.2.35L147.51,313A.47.47,0,0,1,147.11,313Z"/><path class="cls-6" d="M123.22,298.32c-.07.07,0,.14,0,.2l23.86,13.76a.36.36,0,0,0,.2.06v.73a.65.65,0,0,1-.2,0l-23.86-13.77a.46.46,0,0,1-.2-.36v-.26A.45.45,0,0,1,123.22,298.32Z"/><path class="cls-2" d="M179.07,293.89l.05.06h0a.21.21,0,0,1,.06.1v.4a.46.46,0,0,1-.2.35L147.49,313a.52.52,0,0,1-.21,0v-.73a.39.39,0,0,0,.21-.06L179,294.06C179.12,294,179.13,294,179.07,293.89Z"/><path class="cls-2" d="M153,284.15l-.28.16a.16.16,0,0,0-.12.2.18.18,0,0,0,.12.12l19.14,11.05a.66.66,0,0,0,.55,0l.28-.17c.15-.08.15-.22,0-.31l-19.15-11.05A.57.57,0,0,0,153,284.15Z"/><path class="cls-2" d="M151.3,285.11l-.28.17a.15.15,0,0,0-.12.19.16.16,0,0,0,.12.12l19.14,11.05a.54.54,0,0,0,.55,0l.28-.15a.17.17,0,0,0,.11-.2.17.17,0,0,0-.11-.12l-19.15-11.06A.64.64,0,0,0,151.3,285.11Z"/><path class="cls-2" d="M149.64,286.08l-.28.16a.16.16,0,0,0-.12.2.17.17,0,0,0,.12.11L168.5,297.6a.59.59,0,0,0,.55,0l.27-.16a.16.16,0,0,0,.12-.19.15.15,0,0,0-.12-.12l-19.14-11.05A.57.57,0,0,0,149.64,286.08Z"/><path class="cls-2" d="M145.94,288.21l-.27.16a.16.16,0,0,0-.09.22.16.16,0,0,0,.09.09l19.15,11.05a.57.57,0,0,0,.54,0l.28-.16a.17.17,0,0,0,.09-.23.14.14,0,0,0-.09-.08l-19.15-11.05A.59.59,0,0,0,145.94,288.21Z"/><path class="cls-2" d="M144.27,289.17l-.27.16a.16.16,0,0,0-.12.2.18.18,0,0,0,.12.12l19.14,11.05a.64.64,0,0,0,.54,0l.28-.17c.15-.08.15-.22,0-.3l-19.14-11.06A.59.59,0,0,0,144.27,289.17Z"/><path class="cls-2" d="M142.61,290.13l-.27.17c-.16.08-.16.22,0,.31l19.14,11.05a.64.64,0,0,0,.54,0l.28-.16a.16.16,0,0,0,.12-.2.18.18,0,0,0-.12-.12l-19.14-11.05A.66.66,0,0,0,142.61,290.13Z"/><path class="cls-2" d="M138.93,292.26l-.27.16c-.16.09-.16.22,0,.32l19.16,11.05a.64.64,0,0,0,.54,0l.27-.17a.14.14,0,0,0,.12-.19.15.15,0,0,0-.12-.12l-19.14-11.05A.61.61,0,0,0,138.93,292.26Z"/><path class="cls-2" d="M137.25,293.22l-.27.17a.17.17,0,0,0-.1.22.18.18,0,0,0,.1.09l19.14,11.05a.57.57,0,0,0,.54,0l.29-.16a.18.18,0,0,0,.09-.23.14.14,0,0,0-.09-.08l-19.17-11.06A.62.62,0,0,0,137.25,293.22Z"/><path class="cls-2" d="M135.59,294.19l-.28.15c-.15.1-.15.23,0,.32l19.15,11.06a.64.64,0,0,0,.54,0l.28-.17a.17.17,0,0,0,.12-.19.18.18,0,0,0-.12-.12l-19.15-11.05A.57.57,0,0,0,135.59,294.19Z"/><path class="cls-2" d="M131.91,296.32l-.28.15c-.15.09-.15.23,0,.31l19.14,11.06a.59.59,0,0,0,.55,0l.27-.16a.16.16,0,0,0,.12-.2.15.15,0,0,0-.12-.11l-19.14-11.05A.57.57,0,0,0,131.91,296.32Z"/><path class="cls-2" d="M130.23,297.28l-.28.16c-.14.09-.14.22,0,.32l19.16,11.05a.64.64,0,0,0,.54,0l.28-.16a.17.17,0,0,0,.11-.2.17.17,0,0,0-.11-.12l-19.15-11.05A.59.59,0,0,0,130.23,297.28Z"/><path class="cls-2" d="M128.57,298.24l-.28.16a.16.16,0,0,0-.12.19.16.16,0,0,0,.12.12l19.14,11.06a.59.59,0,0,0,.55,0l.27-.16a.16.16,0,0,0,0-.32l-19.14-11.05A.57.57,0,0,0,128.57,298.24Z"/><path class="cls-14" d="M170.36,289.55l-1.7-1.33-.09-.14h0l.42-.38,1.32-1.21a.38.38,0,0,0,.13-.26v-.5a.54.54,0,0,0-.15-.35,1.31,1.31,0,0,1-.28-.65,1,1,0,0,1,.31-.6,1.9,1.9,0,0,0-.14-2.69,1.84,1.84,0,0,0-.22-.17,2.78,2.78,0,0,0-1.3-.32h0a3,3,0,0,0-1.91.7,2.64,2.64,0,0,1-1.27.49,3.76,3.76,0,0,1-1.16,0H164a.69.69,0,0,0-.55.17l-1.13,1.06-.42.38h0a1.06,1.06,0,0,1-1,.14c-.62-.27-.95-.41-1.91-.88a2.56,2.56,0,0,0-.95-.19h0a3.09,3.09,0,0,0-1.36.35v.51l13.95,8.06a1.15,1.15,0,0,0,.27-.7v-.52A1.42,1.42,0,0,0,170.36,289.55Zm-2.86-7.09a1.9,1.9,0,0,1,1.83-.32l.2.08a1,1,0,0,1,.5.53,1,1,0,0,1-.28.39,1.69,1.69,0,0,1-.55.32,2,2,0,0,1-1.48-.08,1,1,0,0,1-.5-.53,1.21,1.21,0,0,1,.24-.39Z"/><path class="cls-3" d="M156.62,283.15l14,8.11c.38-.53.43-1.06-.31-1.72l-1.7-1.33s-.37-.41,0-.69l.42-.39,1.31-1.2s.31-.21,0-.61a1.39,1.39,0,0,1,0-1.76,1.34,1.34,0,0,0,.24-1.88,1.36,1.36,0,0,0-.6-.43,2.77,2.77,0,0,0-1.29-.32h-.06a3,3,0,0,0-1.91.7,2.64,2.64,0,0,1-1.27.49,3.82,3.82,0,0,1-1.17,0H164a.73.73,0,0,0-.55.17l-1.13,1.06-.42.38h0a1.06,1.06,0,0,1-1,.14c-.63-.26-1-.41-1.9-.88a2.65,2.65,0,0,0-1-.19h0A3.07,3.07,0,0,0,156.62,283.15Zm12.67-1.53.21.09a.82.82,0,0,1,.49,1.05.78.78,0,0,1-.28.37,1.69,1.69,0,0,1-.55.32,2,2,0,0,1-1.48-.08.84.84,0,0,1-.49-1.06.8.8,0,0,1,.27-.36,1.91,1.91,0,0,1,1.81-.32Z"/></g></g></g></g><g id="freepik--Briefcase--inject-299"><g id="freepik--briefcase--inject-299-2" data-name="freepik--briefcase--inject-299"><path class="cls-14" d="M150.88,400V441c0,2-1.41,3.13-3.13,4.15l-4.32,2.5a4.19,4.19,0,0,1-3.38.67,9.49,9.49,0,0,1-2.3-1l-.1-.05-.23-.13L93.26,421.72a10.41,10.41,0,0,1-5.21-9V375.28A3,3,0,0,1,89.4,373l7.34-4.25a2.89,2.89,0,0,1,2.68,0l50.11,29a2.86,2.86,0,0,1,1.35,2.32Z"/><path class="cls-4" d="M150.88,400V441c0,2-1.41,3.13-3.13,4.15l-4.32,2.5a4.19,4.19,0,0,1-3.38.67,9.49,9.49,0,0,1-2.3-1h0c1.72.8,3.07-.09,3.07-2.13V406.55a4.12,4.12,0,0,0-.59-2l10.26-5.94A2.86,2.86,0,0,1,150.88,400Z"/><path class="cls-3" d="M140.82,406.55a4.51,4.51,0,0,0-2-3.51L91.46,375.71c-1.91-1.08-3.41-.19-3.41,2v35a10.42,10.42,0,0,0,5.21,9l44.16,25.5c1.91,1.08,3.4.19,3.4-2Z"/><path class="cls-9" d="M94.38,370.09l50.18,29.26a4.76,4.76,0,0,1,2.33,4v42.28l-.76.44V403.38a4,4,0,0,0-1.91-3.4L93.64,370.51Z"/><path class="cls-23" d="M146.26,401.06a4.69,4.69,0,0,1,.63,2.34v42.28l-.76.44V403.38a3.89,3.89,0,0,0-.53-1.91Z"/><path class="cls-20" d="M145.6,401.47a4,4,0,0,0-1.43-1.44L93.59,370.56l.77-.44,50.18,29.26a4.65,4.65,0,0,1,1.7,1.71"/><path class="cls-9" d="M115.83,373.12v6.41L113.34,381v-8.45c0-.44.3-.61.68-.4Z"/><path class="cls-23" d="M115.83,373.12v6.41L113.34,381v-8.45c0-.44.3-.61.68-.4Z"/><path class="cls-9" d="M133.28,379.4v10.31l-2.37,1.37-1.6-.95v-8.46a1.51,1.51,0,0,0-.68-1.17l-12.12-7L114,372.05a.42.42,0,0,0-.68.39v8.45l-1.6-.95V369.56a1.52,1.52,0,0,1,.67-1.05l1-.58a1.48,1.48,0,0,1,1.36,0l17.83,10.3A1.48,1.48,0,0,1,133.28,379.4Z"/><path class="cls-13" d="M133.28,379.4v10.31l-2.37,1.37-1.6-.95v-8.46a1.51,1.51,0,0,0-.68-1.17l-12.12-7L114,372.05a.42.42,0,0,0-.68.39v8.45l-1.6-.95V369.56a1.52,1.52,0,0,1,.67-1.05l1-.58a1.48,1.48,0,0,1,1.36,0l17.83,10.3A1.48,1.48,0,0,1,133.28,379.4Z"/><path class="cls-13" d="M130.91,380.79v10.29l-1.6-.95v-8.46a1.51,1.51,0,0,0-.68-1.17l-12.12-7L114,372.05a.42.42,0,0,0-.68.39v8.45l-1.6-.95V369.56c.06-.33.34-.44.67-.25l17.84,10.29A1.56,1.56,0,0,1,130.91,380.79Z"/></g></g><g id="freepik--speech-bubbles--inject-299"><g id="freepik--speech-bubbles--inject-299-2" data-name="freepik--speech-bubbles--inject-299"><path class="cls-9" d="M169.63,182.49l-3.76-2.17a.31.31,0,0,1-.17-.15L165,179l2.22-1.28-.06.18Z"/><path class="cls-10" d="M169.63,182.49l-3.76-2.17a.31.31,0,0,1-.17-.15L165,179l2.22-1.28-.06.18Z"/><path class="cls-9" d="M166.9,177.86l2.6,4.49a.38.38,0,0,0,.51.15.4.4,0,0,0,.18-.21l2.75-7.93Z"/><path class="cls-9" d="M197.7,144.78a4,4,0,0,0-1.81-3.15l-1.48-.85a4,4,0,0,0-3.63,0L155.91,160.9a4,4,0,0,0-1.82,3.14v13.23a4,4,0,0,0,1.82,3.14l1.48.86a4,4,0,0,0,3.62,0l35-20.26a2.87,2.87,0,0,0,1.65-3Z"/><path class="cls-10" d="M154.07,177.27a4,4,0,0,0,1.82,3.14l1.48.86a4,4,0,0,0,3.32.15c-.86.33-1.51-.16-1.51-1.2V167a3.67,3.67,0,0,1,.54-1.79l-5.11-2.94a3.71,3.71,0,0,0-.54,1.78Z"/><path class="cls-36" d="M197.64,144.23c-.21-.77-.95-1-1.75-.53L161,163.87a3.76,3.76,0,0,0-1.27,1.33l-5.1-2.94a3.8,3.8,0,0,1,1.28-1.36l34.89-20.15a4,4,0,0,1,3.63,0l1.48.85A4,4,0,0,1,197.64,144.23Z"/><path class="cls-6" d="M164,167.68c0,.69.52,1,1.15.59l16.88-9.77a2.45,2.45,0,0,0,1.16-1.9c0-.69-.52-1-1.16-.59l-16.88,9.77A2.41,2.41,0,0,0,164,167.68Z"/><path class="cls-6" d="M164,174.2c0,.69.52,1,1.15.58l26-15.07a2.48,2.48,0,0,0,1.16-1.91c0-.69-.52-1-1.16-.58l-26,15.07A2.45,2.45,0,0,0,164,174.2Z"/><path class="cls-9" d="M187.15,129l-3.75-2.17a.34.34,0,0,1-.18-.15l-.69-1.21,2.22-1.28-.06.19Z"/><path class="cls-10" d="M187.15,129l-3.75-2.17a.34.34,0,0,1-.18-.15l-.69-1.21,2.22-1.28-.06.19Z"/><path class="cls-9" d="M184.42,124.39l2.59,4.49a.39.39,0,0,0,.54.14.34.34,0,0,0,.17-.2l2.74-7.92Z"/><path class="cls-9" d="M215.22,91.28a4,4,0,0,0-1.81-3.14l-1.48-.86a4,4,0,0,0-3.63,0l-34.89,20.15a4.06,4.06,0,0,0-1.82,3.14v13.22a4,4,0,0,0,1.82,3.15l1.48.85a4,4,0,0,0,3.64,0l35.05-20.22a2.81,2.81,0,0,0,1.64-3Z"/><path class="cls-10" d="M171.59,123.79a4,4,0,0,0,1.82,3.15l1.48.85a4.09,4.09,0,0,0,3.32.15c-.85.33-1.51-.16-1.51-1.2V113.53a3.88,3.88,0,0,1,.53-1.79l-5.1-2.95a3.74,3.74,0,0,0-.54,1.78Z"/><path class="cls-36" d="M215.17,90.76c-.21-.77-1-1-1.76-.53l-34.88,20.2a3.51,3.51,0,0,0-1.29,1.36l-5.11-3a3.88,3.88,0,0,1,1.28-1.36L208.3,87.28a4.07,4.07,0,0,1,3.63,0l1.48.86A4,4,0,0,1,215.17,90.76Z"/><path class="cls-6" d="M181.56,114.25c0,.68.52,1,1.16.58l16.87-9.76a2.48,2.48,0,0,0,1.16-1.91c0-.69-.52-1-1.16-.58l-16.87,9.76A2.45,2.45,0,0,0,181.56,114.25Z"/><path class="cls-6" d="M181.56,120.73c0,.69.52,1,1.16.59l26-15.08a2.45,2.45,0,0,0,1.16-1.91c0-.68-.52-1-1.16-.58l-26,15.07A2.47,2.47,0,0,0,181.56,120.73Z"/></g><g id="freepik--speech-bubbles--inject-299-3" data-name="freepik--speech-bubbles--inject-299"><path class="cls-9" d="M350.51,115.2l3.81-2.22a.33.33,0,0,0,.17-.16l.7-1.25L353,110.25l.07.2Z"/><path class="cls-4" d="M350.51,115.2l3.81-2.22a.33.33,0,0,0,.17-.16l.7-1.25L353,110.25l.07.2Z"/><path class="cls-14" d="M353.25,110.43l-2.61,4.63a.39.39,0,0,1-.71-.07l-2.76-8.16Z"/><path class="cls-14" d="M322.27,76.43a4.12,4.12,0,0,1,1.82-3.22l1.49-.88a4,4,0,0,1,3.64,0l35.1,20.74a4.13,4.13,0,0,1,1.83,3.24v13.5a4.13,4.13,0,0,1-1.83,3.24l-1.49.87a3.91,3.91,0,0,1-3.64,0L323.88,93.06a2.86,2.86,0,0,1-1.66-3.1Z"/><path class="cls-4" d="M366.15,109.81a4.13,4.13,0,0,1-1.83,3.24l-1.49.87a4,4,0,0,1-3.34.17c.87.33,1.52-.18,1.52-1.25V99.31a3.84,3.84,0,0,0-.53-1.83l5.14-3a3.85,3.85,0,0,1,.53,1.84Z"/><path class="cls-3" d="M322.32,75.89c.22-.79,1-1,1.77-.54l35.07,20.77a3.59,3.59,0,0,1,1.29,1.39l5.13-3a3.74,3.74,0,0,0-1.29-1.39L329.24,72.32a4,4,0,0,0-3.66,0l-1.49.88A4.12,4.12,0,0,0,322.32,75.89Z"/><path class="cls-5" d="M348.86,95.24c0,.61-.45.84-.95.51L328.23,84.11a2.2,2.2,0,0,1-1-1.7c0-.61.45-.85,1-.51l19.68,11.64A2.16,2.16,0,0,1,348.86,95.24Z"/><path class="cls-5" d="M356.77,106.83c0,.61-.44.84-.95.52L328.18,91a2.2,2.2,0,0,1-1-1.7c0-.61.45-.84,1-.51l27.6,16.34A2.19,2.19,0,0,1,356.77,106.83Z"/><path class="cls-9" d="M368,168.69l3.81-2.24a.35.35,0,0,0,.18-.16l.69-1.24-2.24-1.32.07.2Z"/><path class="cls-4" d="M368,168.69l3.81-2.24a.35.35,0,0,0,.18-.16l.69-1.24-2.24-1.32.07.2Z"/><path class="cls-14" d="M370.77,163.91l-2.61,4.63a.38.38,0,0,1-.51.17.37.37,0,0,1-.2-.24l-2.75-8.14Z"/><path class="cls-14" d="M339.79,129.93a4.14,4.14,0,0,1,1.82-3.23l1.49-.87a4,4,0,0,1,3.66,0l35.09,20.73a4.14,4.14,0,0,1,1.82,3.23v13.53a4.16,4.16,0,0,1-1.82,3.24l-1.49.88a4,4,0,0,1-3.65,0L341.4,146.58a2.86,2.86,0,0,1-1.65-3.11Z"/><path class="cls-4" d="M383.67,163.32a4.16,4.16,0,0,1-1.82,3.24l-1.49.88a4,4,0,0,1-3.34.15c.86.33,1.51-.17,1.51-1.23V152.83A3.81,3.81,0,0,0,378,151l5.14-3a3.85,3.85,0,0,1,.53,1.84Z"/><path class="cls-3" d="M339.85,129.41c.21-.79.95-1,1.76-.55l35.1,20.69A3.77,3.77,0,0,1,378,151l5.13-3a3.66,3.66,0,0,0-1.29-1.39l-35.08-20.7a4,4,0,0,0-3.66,0l-1.49.88A4.09,4.09,0,0,0,339.85,129.41Z"/><path class="cls-5" d="M366.38,148.74c0,.61-.45.84-1,.52l-19.69-11.64a2.23,2.23,0,0,1-1-1.7c0-.61.45-.84,1-.52L365.38,147A2.2,2.2,0,0,1,366.38,148.74Z"/><path class="cls-5" d="M374.3,160.34c0,.61-.45.85-1,.52l-27.61-16.34a2.23,2.23,0,0,1-1-1.7c0-.61.45-.85,1-.52l27.61,16.34A2.2,2.2,0,0,1,374.3,160.34Z"/></g></g><path class="cls-16" d="M98.09,242.62s2.48,5.29,9.76,6.26c7.53,1,10.46-4.72,10.46-4.72s-1.66,8-10.65,6.83A10.85,10.85,0,0,1,98.09,242.62Z"/></svg>