<svg id="Layer_1" data-name="Layer 1" xmlns="http://www.w3.org/2000/svg" viewBox="0 0 600 600"><defs><style>.cls-1{fill:#f0f0f0;}.cls-2{fill:#e0e0e0;}.cls-3,.cls-7{fill:#2ed9c3;}.cls-10,.cls-12,.cls-4{opacity:0.5;}.cls-16,.cls-5,.cls-7{opacity:0.7;}.cls-10,.cls-12,.cls-19,.cls-20,.cls-23,.cls-5,.cls-6,.cls-7,.cls-8,.cls-9{isolation:isolate;}.cls-6{opacity:0.3;}.cls-23,.cls-8{opacity:0.6;}.cls-27,.cls-9{opacity:0.2;}.cls-11{fill:#fafafa;}.cls-12,.cls-18,.cls-23{fill:#fff;}.cls-13,.cls-20{fill:#37474f;}.cls-14{opacity:0.8;}.cls-15{fill:#455a64;}.cls-17{opacity:0.4;}.cls-19{opacity:0.15;}.cls-20{opacity:0.9;}.cls-21{fill:#263238;}.cls-22{fill:#f5f5f5;}.cls-24{fill:#ebebeb;}.cls-25{opacity:0.65;}.cls-26{fill:#ffa8a7;}.cls-28{fill:#f28f8f;}</style></defs><g id="freepik--Floor--inject-29"><path id="freepik--floor--inject-29-2" data-name="freepik--floor--inject-29" class="cls-1" d="M284.33,237.1c131.7,0,238.46,61.64,238.46,137.69S416,512.46,284.33,512.46,45.86,450.82,45.86,374.79,152.63,237.1,284.33,237.1Z"/></g><g id="freepik--Shadows--inject-29"><path id="freepik--Shadow--inject-29" class="cls-2" d="M421,418.94c19.55,0,35.4,9.15,35.4,20.43s-15.85,20.44-35.4,20.44-35.38-9.15-35.38-20.44S401.47,418.94,421,418.94Z"/><path id="freepik--shadow--inject-29-2" data-name="freepik--shadow--inject-29" class="cls-2" d="M99.82,416.61l-39.6-22.84c-1.4-.81-1.4-2.12,0-2.92l218.15-126a5.59,5.59,0,0,1,5,0L323,287.72c1.39.8,1.39,2.11,0,2.92l-218.14,126A5.51,5.51,0,0,1,99.82,416.61Z"/></g><g id="freepik--Device--inject-29"><g id="freepik--PC--inject-29"><g id="freepik--Monitor--inject-29"><path class="cls-3" d="M237.09,380.83,269,362.41c3.29-1.91,4.93-4.39,4.93-6.88V351.1l-38.33-21.72a7.07,7.07,0,0,1-3.17-5.51V284.56l-55.67,32.16V356a7,7,0,0,0,3.17,5.5l33.42,19.29C219.88,384.62,230.53,384.62,237.09,380.83Z"/><g class="cls-4"><path d="M237.09,380.83,269,362.41c3.29-1.91,4.93-4.39,4.93-6.88V351.1l-38.33-21.72a7.07,7.07,0,0,1-3.17-5.51V284.56l-55.67,32.16V356a7,7,0,0,0,3.17,5.5l33.42,19.29C219.88,384.62,230.53,384.62,237.09,380.83Z"/></g><path class="cls-3" d="M190.08,363v4.42l-10.2-5.88a7,7,0,0,1-3.17-5.51V316.72l10.61-6.11c.21,2.69.45,5.47.67,8.18l-7.43,4.3V353.8a7,7,0,0,0,3.16,5.49Z"/><path class="cls-5" d="M190.08,363v4.42l-10.2-5.88a7,7,0,0,1-3.17-5.51V316.72l10.61-6.11c.21,2.69.45,5.47.67,8.18l-7.43,4.3V353.8a7,7,0,0,0,3.16,5.49Z"/><path class="cls-3" d="M180.56,353.83a7,7,0,0,0,3.17,5.49l29.57,17.07c6.57,3.81,17.22,3.81,23.79,0L269,358c6.58-3.79,6.58-9.93,0-13.73L239.4,327.16a7,7,0,0,1-3.18-5.49V291l-55.66,32.17Z"/><path class="cls-6" d="M180.56,353.83a7,7,0,0,0,3.17,5.49l29.57,17.07c6.57,3.81,17.22,3.81,23.79,0L269,358c6.58-3.79,6.58-9.93,0-13.73L239.4,327.16a7,7,0,0,1-3.18-5.49V291l-55.66,32.17Z"/><path class="cls-7" d="M245.86,330.9h0l-6.46-3.73a7,7,0,0,1-3.18-5.5V291l-55.66,32.17v30.7a7,7,0,0,0,3.17,5.49l6.35,3.67Z"/><path class="cls-8" d="M245.86,330.9h0l-6.46-3.73a7,7,0,0,1-3.18-5.5V291l-55.66,32.17v30.7a7,7,0,0,0,3.17,5.49l6.35,3.67Z"/><path class="cls-3" d="M273.9,351.11v4.48c0,2.48-1.65,5-4.92,6.86L237.1,380.78a23.79,23.79,0,0,1-11.36,2.82v-4.41a23.79,23.79,0,0,0,11.36-2.82L269,357.93C272.25,356.08,273.9,353.57,273.9,351.11Z"/><path class="cls-9" d="M273.9,351.11v4.48c0,2.48-1.65,5-4.92,6.86L237.1,380.78a23.79,23.79,0,0,1-11.36,2.82v-4.41a23.79,23.79,0,0,0,11.36-2.82L269,357.93C272.25,356.08,273.9,353.57,273.9,351.11Z"/><path class="cls-3" d="M91.17,396.22a8.51,8.51,0,0,0,7.69-.14L314.14,271.79a8.78,8.78,0,0,0,4-6.87V76.49a7.45,7.45,0,0,0-11.4-6.59L91.42,194.2a8.74,8.74,0,0,0-4,6.86V389.55A8.51,8.51,0,0,0,91.17,396.22Z"/><path class="cls-6" d="M91.17,396.22a8.51,8.51,0,0,0,7.69-.14L314.14,271.79a8.78,8.78,0,0,0,4-6.87V76.49a7.45,7.45,0,0,0-11.4-6.59L91.42,194.2a8.74,8.74,0,0,0-4,6.86V389.55A8.51,8.51,0,0,0,91.17,396.22Z"/><path class="cls-3" d="M98.86,396.08l215.28-124.3a8.75,8.75,0,0,0,4-6.86V76.47c0-2.53-1.78-3.54-4-2.28L98.86,198.48a8.79,8.79,0,0,0-4,6.92V393.78C94.9,396.31,96.67,397.34,98.86,396.08Z"/><path class="cls-3" d="M98.86,396.08l215.28-124.3a8.75,8.75,0,0,0,4-6.86V76.47c0-2.53-1.78-3.54-4-2.28L98.86,198.48a8.79,8.79,0,0,0-4,6.92V393.78C94.9,396.31,96.67,397.34,98.86,396.08Z"/><path class="cls-10" d="M98.86,396.08l215.28-124.3a8.75,8.75,0,0,0,4-6.86V76.47c0-2.53-1.78-3.54-4-2.28L98.86,198.48a8.79,8.79,0,0,0-4,6.92V393.78C94.9,396.31,96.67,397.34,98.86,396.08Z"/><path class="cls-3" d="M98.27,396.37a8.51,8.51,0,0,1-7-.15,8.51,8.51,0,0,1-3.72-6.73V368.32l7.44,4.31V393.8C94.89,396.1,96.35,397.14,98.27,396.37Z"/><path class="cls-5" d="M98.27,396.37a8.51,8.51,0,0,1-7-.15,8.51,8.51,0,0,1-3.72-6.73V368.32l7.44,4.31V393.8C94.89,396.1,96.35,397.14,98.27,396.37Z"/><path class="cls-3" d="M94.9,372.59v21.18c0,2.53,1.77,3.55,4,2.28L314.14,271.78a8.75,8.75,0,0,0,4-6.86V243.7Z"/><g class="cls-4"><path d="M94.9,372.59v21.18c0,2.53,1.77,3.55,4,2.28L314.14,271.78a8.75,8.75,0,0,0,4-6.86V243.7Z"/></g><path class="cls-11" d="M102.34,357V207.78a5.21,5.21,0,0,1,2.38-4.12L308.33,86.12c1.31-.75,2.37-.14,2.37,1.38V236.64a5.24,5.24,0,0,1-2.37,4.12L104.72,358.3C103.4,359.09,102.34,358.48,102.34,357Z"/><path class="cls-3" d="M206.5,316.75a8.21,8.21,0,0,0-3.72,6.44c0,2.37,1.66,3.34,3.72,2.15a8.2,8.2,0,0,0,3.72-6.44C210.22,316.52,208.56,315.57,206.5,316.75Z"/><path class="cls-12" d="M206.5,316.75a8.21,8.21,0,0,0-3.72,6.44c0,2.37,1.66,3.34,3.72,2.15a8.2,8.2,0,0,0,3.72-6.44C210.22,316.52,208.56,315.57,206.5,316.75Z"/><path class="cls-3" d="M96.06,201.42a8.37,8.37,0,0,0-1.17,4V372.59l-7.44-4.3V201.06a8.36,8.36,0,0,1,1.17-3.92Z"/><path class="cls-5" d="M96.06,201.42a8.37,8.37,0,0,0-1.17,4V372.59l-7.44-4.3V201.06a8.36,8.36,0,0,1,1.17-3.92Z"/></g></g><g id="freepik--Keyboard--inject-29"><path id="freepik--shadow--inject-29-3" data-name="freepik--shadow--inject-29" class="cls-2" d="M173.3,439.19l53.78,31.14a6.65,6.65,0,0,0,6,0L392,378.76c1.67-1,1.67-2.51,0-3.48l-53.8-31.15a6.65,6.65,0,0,0-6.05,0L173.3,435.71C171.64,436.66,171.62,438.24,173.3,439.19Z"/><g id="freepik--keyboard--inject-29-2" data-name="freepik--keyboard--inject-29"><path class="cls-3" d="M388.77,369.69a2.12,2.12,0,0,0-1.25-1.74L337,338.79a6.65,6.65,0,0,0-6.05,0L176.73,428a2.18,2.18,0,0,0-1.25,1.75V435a2.14,2.14,0,0,0,1.25,1.74l50.52,29.17a6.69,6.69,0,0,0,6,0l154.22-89a2.11,2.11,0,0,0,1.25-1.73Z"/><path class="cls-10" d="M388.77,369.69a2.12,2.12,0,0,0-1.25-1.74L337,338.79a6.65,6.65,0,0,0-6.05,0L176.73,428a2.18,2.18,0,0,0-1.25,1.75V435a2.14,2.14,0,0,0,1.25,1.74l50.52,29.17a6.69,6.69,0,0,0,6,0l154.22-89a2.11,2.11,0,0,0,1.25-1.73Z"/><path class="cls-3" d="M227.27,460.48l-50.51-29c-1.66-.95-1.67-2.51,0-3.48L331,338.8a6.65,6.65,0,0,1,6.05,0L387.56,368c1.67,1,1.67,2.52,0,3.49l-154.22,89A6.69,6.69,0,0,1,227.27,460.48Z"/><path class="cls-3" d="M230.1,461.2v5.42a6.33,6.33,0,0,1-2.83-.7l-50.5-29.17a2.11,2.11,0,0,1-1.25-1.74V429.7a2.13,2.13,0,0,0,1.25,1.74l50.5,29.06A6.3,6.3,0,0,0,230.1,461.2Z"/><path class="cls-5" d="M230.1,461.2v5.42a6.33,6.33,0,0,1-2.83-.7l-50.5-29.17a2.11,2.11,0,0,1-1.25-1.74V429.7a2.13,2.13,0,0,0,1.25,1.74l50.5,29.06A6.3,6.3,0,0,0,230.1,461.2Z"/><path class="cls-13" d="M294.59,376.35l5.76,3.32a.86.86,0,0,0,.38.1l5.29-3-6.18-3.48Z"/><path class="cls-13" d="M301.52,372.36l5.79,3.33a.58.58,0,0,0,.34.07h.21l5.09-2.94-6.19-3.48Z"/><path class="cls-13" d="M282.93,383.09l5.78,3.34a.83.83,0,0,0,.34.07l8.59-4.85-6.19-3.48Z"/><path class="cls-13" d="M276,387.09l5.76,3.33a.86.86,0,0,0,.36.08l5.31-2.95-6.19-3.48Z"/><path class="cls-13" d="M244.36,439.43l5.31-3L243.48,433l-5.24,3,5.78,3.34A.8.8,0,0,0,244.36,439.43Z"/><path class="cls-13" d="M269.08,391.08l5.75,3.33a.78.78,0,0,0,.37.09l5.31-2.95-6.19-3.49Z"/><path class="cls-13" d="M307.67,377.85l-5.24,3,5.77,3.33a.62.62,0,0,0,.35.08l5.31-2.95Z"/><path class="cls-13" d="M288.31,405l5.31-3-6.2-3.48-5.24,3L288,404.9A.71.71,0,0,0,288.31,405Z"/><path class="cls-13" d="M315.52,380.28l5.31-2.94-6.2-3.49-5.24,3,5.79,3.34A.65.65,0,0,0,315.52,380.28Z"/><path class="cls-13" d="M281.38,409l5.3-2.95-6.18-3.48-5.24,3,5.75,3.32A.62.62,0,0,0,281.38,409Z"/><path class="cls-13" d="M274.46,413l5.3-3-6.19-3.48-5.24,3,5.78,3.34A.82.82,0,0,0,274.46,413Z"/><path class="cls-13" d="M302.16,397l11.14-6.32-14-8-5.94,3.45,7.33,4.22a.35.35,0,0,1,.21.3.33.33,0,0,1-.18.27l-4.63,2.67,5.74,3.32A.82.82,0,0,0,302.16,397Z"/><path class="cls-13" d="M255.23,399.09l5.77,3.33a.61.61,0,0,0,.35.07l5.3-2.95-6.19-3.48Z"/><path class="cls-13" d="M295.23,401l5.31-2.95-6.19-3.48-5.24,3,5.74,3.31A.72.72,0,0,0,295.23,401Z"/><path class="cls-13" d="M216.31,437.54l5.31-3-6.19-3.49-5.25,3,5.75,3.31A.86.86,0,0,0,216.31,437.54Z"/><path class="cls-13" d="M199.81,431.08l5.78,3.34a1,1,0,0,0,.34.08h.2l5.11-2.95-6.2-3.48Z"/><path class="cls-13" d="M226,441h.22l5-2.95L225,434.59l-5.24,3,5.78,3.34A.89.89,0,0,0,226,441Z"/><path class="cls-13" d="M230.51,447.42l5.31-2.95-6.2-3.48-5.23,3,5.75,3.32A.78.78,0,0,0,230.51,447.42Z"/><path class="cls-13" d="M206.73,427.07l5.78,3.35a.83.83,0,0,0,.34.07l5.31-2.95-6.2-3.48Z"/><path class="cls-13" d="M237.44,443.43l5.3-3L236.55,437l-5.24,3,5.78,3.34A.85.85,0,0,0,237.44,443.43Z"/><path class="cls-13" d="M227.52,415.05l5.76,3.34a.86.86,0,0,0,.36.07l5.31-2.94-6.2-3.49Z"/><path class="cls-13" d="M234.44,411.08l5.76,3.32a.68.68,0,0,0,.36.1l5.31-3-6.18-3.48Z"/><path class="cls-13" d="M241.37,407.08l5.74,3.33a.69.69,0,0,0,.37.08l5.32-2.95-6.19-3.47Z"/><path class="cls-13" d="M220.58,419.09l5.76,3.31a.68.68,0,0,0,.36.1l5.32-3-6.2-3.48Z"/><path class="cls-13" d="M248.3,403.09l5.78,3.33a.77.77,0,0,0,.34.08l5.31-3-6.2-3.48Z"/><path class="cls-13" d="M213.66,423.12l5.77,3.32a.64.64,0,0,0,.36.08l5.3-2.95-6.19-3.48Z"/><path class="cls-13" d="M262.15,395.09l5.79,3.35a.88.88,0,0,0,.33.06l5.31-2.95-6.19-3.49Z"/><path class="cls-13" d="M279.46,394.14l5.75,3.31a.65.65,0,0,0,.38.09h.21l5.09-2.94-6.19-3.48Z"/><path class="cls-13" d="M316.84,363.52l5.76,3.31a.77.77,0,0,0,.36.09l5.31-3-6.2-3.47Z"/><path class="cls-13" d="M323.77,359.52l5.76,3.31a.63.63,0,0,0,.35.09l5.32-3L329,356.49Z"/><path class="cls-13" d="M272.53,398.13l5.76,3.33a.74.74,0,0,0,.36.09l5.31-3-6.18-3.48Z"/><path class="cls-13" d="M330.69,355.51l5.76,3.33a.74.74,0,0,0,.36.09l5.31-3-6.19-3.48Z"/><path class="cls-13" d="M292.51,393.55h.21l5.09-2.95-6.18-3.48-5.25,3,5.76,3.31A.78.78,0,0,0,292.51,393.55Z"/><path class="cls-13" d="M324.67,368l5.74,3.32a.87.87,0,0,0,.39.1l5.3-3L329.9,365Z"/><path class="cls-13" d="M338.53,360l5.74,3.31a.7.7,0,0,0,.38.1l5.31-2.95L343.74,357Z"/><path class="cls-13" d="M337.7,367.45,343,364.5l-6.2-3.5-5.24,3,5.78,3.33A.7.7,0,0,0,337.7,367.45Z"/><path class="cls-13" d="M359.08,363.9a.87.87,0,0,0,.32.06h.22l5.09-2.92-14-8-5.24,3Z"/><path class="cls-13" d="M265.6,402.13l5.76,3.33a.81.81,0,0,0,.37.09h.21l5.1-2.94-6.2-3.48Z"/><path class="cls-13" d="M345.55,372h.21l5.09-2.94-6.19-3.48-5.23,3,5.75,3.32A.67.67,0,0,0,345.55,372Z"/><path class="cls-13" d="M352.47,368l5.32-2.95-6.2-3.48-5.24,3,5.74,3.31A.88.88,0,0,0,352.47,368Z"/><path class="cls-13" d="M231,422.11l5.76,3.31a.69.69,0,0,0,.37.1l5.31-2.95-6.2-3.48Z"/><path class="cls-13" d="M217.11,430.17l5.75,3.32a.79.79,0,0,0,.38.09h.2l5.11-2.94-6.21-3.49Z"/><path class="cls-13" d="M239.81,433l5.32-3-6.21-3.48-5.24,3,5.79,3.33A.72.72,0,0,0,239.81,433Z"/><path class="cls-13" d="M232.87,437l5.31-3-6.2-3.47-5.24,3,5.79,3.34A.94.94,0,0,0,232.87,437Z"/><path class="cls-13" d="M246.74,429H247l5.09-2.93-6.19-3.49-5.24,3,5.75,3.31A.67.67,0,0,0,246.74,429Z"/><path class="cls-13" d="M258.67,406.13l5.77,3.33a.87.87,0,0,0,.37.08h.2l5.1-2.94-6.2-3.48Z"/><path class="cls-13" d="M260.6,421l5.31-2.95-6.2-3.48-5.24,3,5.75,3.32A.85.85,0,0,0,260.6,421Z"/><path class="cls-13" d="M253.67,425l5.3-2.9-6.18-3.48-5.25,3,5.79,3.34A.78.78,0,0,0,253.67,425Z"/><path class="cls-13" d="M244.83,414.13l5.74,3.33a.77.77,0,0,0,.37.08l5.31-3-6.19-3.48Z"/><path class="cls-13" d="M224,426.14l5.74,3.32a.89.89,0,0,0,.39.09l5.3-2.95-6.19-3.48Z"/><path class="cls-13" d="M251.75,410.13l5.75,3.32a.85.85,0,0,0,.38.09l5.29-3L257,407.11Z"/><path class="cls-13" d="M237.91,418.13l5.74,3.32a.86.86,0,0,0,.38.1h.21l5.1-2.94-6.2-3.48Z"/><path class="cls-13" d="M267.52,417l5.31-2.95-6.19-3.48-5.24,3,5.77,3.33A.62.62,0,0,0,267.52,417Z"/><path class="cls-13" d="M308.47,368.35l5.77,3.34a.83.83,0,0,0,.34.07l5.32-2.95-6.2-3.48Z"/><path class="cls-13" d="M198.12,432.05l-5.24,3,5.78,3.34a.66.66,0,0,0,.34.06h.22l5.09-2.93Z"/><path class="cls-13" d="M208.5,435.1l-7.79,4.5,5.78,3.35a1,1,0,0,0,.33.06H207l7.65-4.41Z"/><path class="cls-13" d="M189.71,425.94l-6.34,3.66,5.76,3.31a.82.82,0,0,0,.37.1l6.4-3.58Z"/><path class="cls-13" d="M222.7,445l-6.33,3.66,5.75,3.32a.75.75,0,0,0,.37.09l6.4-3.6Z"/><path class="cls-13" d="M218.14,438.58l-9.6,5.55,5.77,3.33a.84.84,0,0,0,.35.07h.21l9.47-5.46Z"/><path class="cls-13" d="M200.53,426.64l5.31-3-6.24-3.47-5.24,3,5.76,3.32A.67.67,0,0,0,200.53,426.64Z"/><path class="cls-13" d="M224.19,453.16l5.76,3.33a.9.9,0,0,0,.36.08l7.86-4.42L232,448.67Z"/><path class="cls-13" d="M207.46,422.63l5.31-2.95-6.2-3.48-5.23,3,5.77,3.33A.71.71,0,0,0,207.46,422.63Z"/><path class="cls-13" d="M238.18,404.9h.21l5.1-2.94-6.2-3.48-5.23,3,5.76,3.32A.63.63,0,0,0,238.18,404.9Z"/><path class="cls-13" d="M245.11,400.94l5.31-3-6.19-3.48-5.25,3,5.78,3.32A.59.59,0,0,0,245.11,400.94Z"/><path class="cls-13" d="M231.26,408.89h.21l5-2.94-6.19-3.48-5.24,3,5.78,3.31A.7.7,0,0,0,231.26,408.89Z"/><path class="cls-13" d="M221.31,414.64h.22l5.09-2.94-6.19-3.48-5.24,3,5.77,3.32A.67.67,0,0,0,221.31,414.64Z"/><path class="cls-13" d="M214.39,418.64l5.3-2.95-6.18-3.49-5.24,3,5.77,3.34A.72.72,0,0,0,214.39,418.64Z"/><path class="cls-13" d="M362,373.59l5.79,3.35a.88.88,0,0,0,.33.07h.21l5-2.95-6.19-3.48Z"/><path class="cls-13" d="M325.91,394.43l5.75,3.32a.71.71,0,0,0,.37.1l5.32-3-6.19-3.48Z"/><path class="cls-13" d="M348.16,381.6l5.75,3.31a.86.86,0,0,0,.37.1h.21l12-6.95-6.19-3.48Z"/><path class="cls-13" d="M332.84,390.44l5.74,3.3a.69.69,0,0,0,.39.1l5.31-2.95-6.2-3.48Z"/><path class="cls-13" d="M339.78,386.43l5.72,3.3a.69.69,0,0,0,.39.12l5.31-3L345,383.41Z"/><path class="cls-13" d="M252,396.91h.22l5.09-2.94-6.19-3.49-5.24,3,5.74,3.32A.85.85,0,0,0,252,396.91Z"/><path class="cls-13" d="M366.36,362l-5.25,3,13.62,7.86a.94.94,0,0,0,.34.07h.2l5.1-2.94Z"/><path class="cls-13" d="M241.7,443.06l5.75,3.32a.78.78,0,0,0,.37.09l6.4-3.59L248,439.41Z"/><path class="cls-13" d="M249.71,438.43l5.75,3.32a.86.86,0,0,0,.38.1h.21l39.38-22.76-6.2-3.5Z"/><path class="cls-13" d="M251.29,435.43l5.31-3L250.41,429l-5.24,3,5.77,3.33A.85.85,0,0,0,251.29,435.43Z"/><path class="cls-13" d="M233.67,447.69l5.75,3.32a1,1,0,0,0,.37.1l6.4-3.59L240,444Z"/><path class="cls-13" d="M290.92,414.64l5.75,3.32a.71.71,0,0,0,.37.1h.22l6.18-3.57-6.2-3.47Z"/><path class="cls-13" d="M307,405.38l5.78,3.33a.72.72,0,0,0,.35.08h.22l6.19-3.57-6.19-3.48Z"/><path class="cls-13" d="M298.93,410l5.79,3.33a.8.8,0,0,0,.34.07l6.4-3.59-6.19-3.48Z"/><path class="cls-13" d="M315,400.75l5.75,3.32a.85.85,0,0,0,.38.09h.21l7.64-4.42-6.19-3.48Z"/><path class="cls-13" d="M322.41,376.28h.21l5.1-2.93-6.15-3.5-5.24,3,5.78,3.33A.61.61,0,0,0,322.41,376.28Z"/><path class="cls-13" d="M331.14,389.33h.21l5.1-2.94-6.19-3.48-5.24,3,5.77,3.34A.68.68,0,0,0,331.14,389.33Z"/><path class="cls-13" d="M306.71,403.43l14.43-8.22-6.2-3.48L300.59,400l5.78,3.34A.68.68,0,0,0,306.71,403.43Z"/><path class="cls-13" d="M346.44,380.48h.23l5.09-2.94-6.19-3.48-5.24,3,5.77,3.34A.68.68,0,0,0,346.44,380.48Z"/><path class="cls-13" d="M353.39,376.48h.2l5.1-2.93-6.19-3.48-5.24,3,5.76,3.34A.76.76,0,0,0,353.39,376.48Z"/><path class="cls-13" d="M299.78,407.43l5.31-2.95L298.9,401l-5.24,3,5.75,3.32A.81.81,0,0,0,299.78,407.43Z"/><path class="cls-13" d="M338.63,376h.21l5.09-2.94-6.23-3.49-5.24,3,5.75,3.3A.62.62,0,0,0,338.63,376Z"/><path class="cls-13" d="M265.13,427.42l5.31-2.95-6.2-3.48L259,424l5.78,3.34A.69.69,0,0,0,265.13,427.42Z"/><path class="cls-13" d="M292.85,411.43l5.32-3L292,405l-5.24,3,5.79,3.35A1.32,1.32,0,0,0,292.85,411.43Z"/><path class="cls-13" d="M258.22,431.42h.21l5.05-2.94L257.29,425,252,428l5.79,3.34A.66.66,0,0,0,258.22,431.42Z"/><path class="cls-13" d="M272.07,423.43l5.31-2.95L271.17,417l-5.24,3,5.8,3.35A.65.65,0,0,0,272.07,423.43Z"/><path class="cls-13" d="M279,419.43h.24l5.09-2.94L278.12,413l-5.24,3,5.75,3.33A.78.78,0,0,0,279,419.43Z"/><path class="cls-13" d="M285.93,415.43h.21l5.1-2.95L285,409l-5.24,3,5.79,3.34A.93.93,0,0,0,285.93,415.43Z"/><path class="cls-13" d="M268.9,387.16l5.3-3L268,380.72l-5.23,3,5.75,3.31A.62.62,0,0,0,268.9,387.16Z"/><path class="cls-13" d="M360.31,372.49h.21l5.1-2.94-6.2-3.48-5.24,3,5.79,3.35A.93.93,0,0,0,360.31,372.49Z"/><path class="cls-13" d="M282.77,379.16l5.3-3-6.19-3.48-5.24,3,5.74,3.32A.87.87,0,0,0,282.77,379.16Z"/><path class="cls-13" d="M298.15,370.28l5.31-3-6.2-3.48-5.23,3,5.75,3.33A.78.78,0,0,0,298.15,370.28Z"/><path class="cls-13" d="M291.22,374.28l5.3-2.95-6.19-3.49-5.25,3,5.75,3.32A.92.92,0,0,0,291.22,374.28Z"/><path class="cls-13" d="M262,391.16l5.31-3-6.2-3.48-5.23,3,5.76,3.32A.74.74,0,0,0,262,391.16Z"/><path class="cls-13" d="M275.83,383.16h.22l5-2.94L275,376.75l-5.25,3,5.75,3.31A.77.77,0,0,0,275.83,383.16Z"/><path class="cls-13" d="M305.07,366.28l5.31-3-6.19-3.47-5.24,3,5.76,3.31A.65.65,0,0,0,305.07,366.28Z"/><path class="cls-13" d="M332.23,348.28l5.31-3-3.37-1.83-5.24,3,2.94,1.67A1.14,1.14,0,0,0,332.23,348.28Z"/><path class="cls-13" d="M343.74,354.93l5.32-3-6.2-3.44-5.24,3,5.75,3.33A.79.79,0,0,0,343.74,354.93Z"/><path class="cls-13" d="M311.49,360.28h.21l5.09-2.94-3.36-1.82-5.24,3,2.93,1.66A.94.94,0,0,0,311.49,360.28Z"/><path class="cls-13" d="M318.38,356.28h.21l5-2.93-3.3-1.8-5.24,3,2.95,1.65A.7.7,0,0,0,318.38,356.28Z"/><path class="cls-13" d="M325.3,352.28l5.31-3-3.37-1.8-5.23,3,2.95,1.67A1,1,0,0,0,325.3,352.28Z"/></g></g></g><g class="cls-14"><path class="cls-15" d="M333.18,91.25V240.89a6.83,6.83,0,0,1-3.1,5.37L128.39,362.93a2.1,2.1,0,0,1-1,.31H127a1.17,1.17,0,0,1-.26-.1l-.17-.1-.18-.12-.18-.15a2.63,2.63,0,0,1-.57-.82,4,4,0,0,1-.32-1.57V211.45a6.91,6.91,0,0,1,3.11-5.4L330.08,89.48a2.26,2.26,0,0,1,2.09-.27l.27.16h0a.8.8,0,0,1,.2.21.31.31,0,0,1,.09.11.54.54,0,0,1,.1.16,1.38,1.38,0,0,1,.18.39,1.53,1.53,0,0,1,.07.29.06.06,0,0,1,0,.06.87.87,0,0,1,.05.28A1.13,1.13,0,0,1,333.18,91.25Z"/><path class="cls-15" d="M331.46,90a1,1,0,0,1,.3.06h.06l.09.12h0l.07.11v0h0l.09.3h0V240.89a5.83,5.83,0,0,1-2.6,4.51L127.88,362.07a1,1,0,0,1-.52.16h-.28l-.13-.1h0v-.05a1.29,1.29,0,0,1-.33-.47,2.79,2.79,0,0,1-.24-1.17v-149a5.83,5.83,0,0,1,2.61-4.52L330.57,90.33a2,2,0,0,1,.89-.29m0-1a2.79,2.79,0,0,0-1.38.42L128.39,206.06a6.93,6.93,0,0,0-3.11,5.39V360.32a3.87,3.87,0,0,0,.32,1.57,2.65,2.65,0,0,0,.58.82,1.29,1.29,0,0,0,.17.15l.18.12.17.1a1.34,1.34,0,0,0,.26.09,1.28,1.28,0,0,0,.39,0h.06a2,2,0,0,0,1-.3L330.08,246.26a6.83,6.83,0,0,0,3.1-5.37v-150a.92.92,0,0,0-.05-.28.09.09,0,0,0,0-.07.9.9,0,0,0-.07-.27,1.32,1.32,0,0,0-.18-.4.54.54,0,0,0-.1-.16.94.94,0,0,0-.09-.12.76.76,0,0,0-.2-.2h0l-.27-.15a1.62,1.62,0,0,0-.71-.15Z"/><g class="cls-16"><path class="cls-15" d="M333.18,91.25V240.89a6.83,6.83,0,0,1-3.1,5.37L128.39,362.93a2.1,2.1,0,0,1-1,.31H127a1.17,1.17,0,0,1-.26-.1l-.17-.1-.18-.12-.18-.15a2.63,2.63,0,0,1-.57-.82,4,4,0,0,1-.32-1.57V211.45a6.91,6.91,0,0,1,3.11-5.4L330.08,89.48a2.26,2.26,0,0,1,2.09-.27l.27.16h0a.8.8,0,0,1,.2.21.31.31,0,0,1,.09.11.54.54,0,0,1,.1.16,1.38,1.38,0,0,1,.18.39,1.53,1.53,0,0,1,.07.29.06.06,0,0,1,0,.06.87.87,0,0,1,.05.28A1.13,1.13,0,0,1,333.18,91.25Z"/></g></g><path class="cls-3" d="M332.17,89.18a2.32,2.32,0,0,0-2.09.27L128.39,206.06a6.93,6.93,0,0,0-3.11,5.39V221.6l-4-2.32V209.19a6.87,6.87,0,0,1,3.1-5.37L326.11,87.21a2.13,2.13,0,0,1,2.25-.18C328.92,87.36,331.5,88.84,332.17,89.18Z"/><path class="cls-3" d="M333.18,91.22c0-2-1.4-2.75-3.1-1.76L128.38,206.07a6.87,6.87,0,0,0-3.1,5.38V221.6l207.9-120.18Z"/><g class="cls-17"><path class="cls-18" d="M330.08,89.48,128.39,206.07a6.34,6.34,0,0,0-2.19,2.35l-3.94-2.28a6.27,6.27,0,0,1,2.15-2.28L326.11,87.21a2.17,2.17,0,0,1,2.25-.19c.56.34,3.14,1.81,3.8,2.16A2.24,2.24,0,0,0,330.08,89.48Z"/></g><path class="cls-19" d="M121.31,219.29V209.21a6.36,6.36,0,0,1,1-3.1l3.95,2.27a6.17,6.17,0,0,0-.93,3.09v10.16Z"/><path class="cls-15" d="M314.51,102.79a4.67,4.67,0,0,0-1.75,3.72c0,1.49.79,2.25,1.75,1.69a4.59,4.59,0,0,0,1.76-3.71C316.22,103,315.43,102.24,314.51,102.79Z"/><path class="cls-15" d="M320.78,99.15a4.59,4.59,0,0,0-1.75,3.7c0,1.5.79,2.25,1.75,1.7a4.63,4.63,0,0,0,1.8-3.72C322.58,99.33,321.76,98.55,320.78,99.15Z"/><path class="cls-15" d="M327.11,95.53a4.6,4.6,0,0,0-1.76,3.72c0,1.49.79,2.24,1.76,1.68a4.63,4.63,0,0,0,1.75-3.72C328.86,95.68,328.07,94.92,327.11,95.53Z"/><path class="cls-20" d="M126.42,362.94l-.39-.22a10,10,0,0,0-1-.53h0l-.53-.3h0l-.82-.46c-.25-.16-.49-.29-.68-.39l-.39-.22a1.68,1.68,0,0,1-.53-.43,2.08,2.08,0,0,1-.41-.63,3.85,3.85,0,0,1-.36-1.64V219.29l4,2.32V360.33a4.5,4.5,0,0,0,.32,1.58,2.87,2.87,0,0,0,.58.81.5.5,0,0,0,.17.15Z"/><path class="cls-21" d="M192.7,273.4s-7.34-4.74-8.29-4.78L163.55,268l8.3,4.41v.37Z"/><path class="cls-11" d="M156.94,287.71V274.6l35.76-44.46v17.34l-20.85,24.87v.35l20.85.66V290.7Z"/><polygon class="cls-15" points="192.7 230.18 184.41 225.4 148.64 269.86 156.94 274.64 192.7 230.18"/><polygon class="cls-13" points="148.64 269.86 148.64 282.93 156.94 287.71 156.94 274.64 148.64 269.86"/><path class="cls-11" d="M214.35,282.15l-11.09,6.42L231,187.11l10.7-6.18Z"/><polygon class="cls-15" points="241.64 180.93 233.34 176.15 222.64 182.33 230.92 187.11 241.64 180.93"/><polygon class="cls-13" points="222.64 182.33 230.92 187.11 203.25 288.57 194.96 283.79 222.64 182.33"/><polygon class="cls-21" points="243.9 234.28 252.18 239.06 273.04 213.96 264.75 209.18 243.9 234.28"/><path class="cls-11" d="M273,214l-20.86-.78V195.84L288,199v13.1l-35.77,44.35v-17.4L273,214.33Z"/><polygon class="cls-15" points="243.9 191.06 252.18 195.84 287.96 199 279.66 194.23 243.9 191.06"/><polyline class="cls-13" points="252.18 195.84 252.18 213.18 243.9 208.4 243.9 191.06"/><polygon class="cls-13" points="243.9 234.28 252.18 239.06 252.18 256.4 243.9 251.62 243.9 234.28"/><g class="cls-14"><path class="cls-15" d="M398.31,117.06V266.69a6.86,6.86,0,0,1-3.12,5.39l-86,49.59a1.8,1.8,0,0,1-1,.31,1.58,1.58,0,0,1-.38-.05l-.28-.1-.16-.09-.19-.12-.17-.16a2.43,2.43,0,0,1-.57-.81,3.9,3.9,0,0,1-.32-1.57V170.19a6.87,6.87,0,0,1,3.11-5.38l85.9-49.55a2.28,2.28,0,0,1,2.1-.27,1,1,0,0,1,.26.16h0a1,1,0,0,1,.2.2l.1.11a.86.86,0,0,1,.1.16,1.53,1.53,0,0,1,.19.41,2.13,2.13,0,0,1,.07.27.06.06,0,0,1,0,.06,1.37,1.37,0,0,1,.05.28A.82.82,0,0,1,398.31,117.06Z"/><path class="cls-15" d="M396.58,115.85a.66.66,0,0,1,.3.07h.06l.09.11h0l.07.12h0l.1.29h0a.08.08,0,0,1,0,.07,1.5,1.5,0,0,1,0,.3V266.69a5.87,5.87,0,0,1-2.61,4.52l-85.87,49.6a1,1,0,0,1-.51.16h-.29l-.13-.08h0a1.86,1.86,0,0,1-.32-.47,3,3,0,0,1-.24-1.18v-149a5.88,5.88,0,0,1,2.6-4.51l86-49.54a1.88,1.88,0,0,1,.88-.29m0-1a2.85,2.85,0,0,0-1.38.42l-86,49.55a6.87,6.87,0,0,0-3.11,5.38V319.08a4.08,4.08,0,0,0,.32,1.57,2.58,2.58,0,0,0,.57.81l.18.16.18.12.16.09.27.1a1.83,1.83,0,0,0,.4.05h0a1.9,1.9,0,0,0,1-.31l85.85-49.59a6.91,6.91,0,0,0,3.12-5.39v-150a2.5,2.5,0,0,0,0-.29.06.06,0,0,0,0-.06.92.92,0,0,0-.08-.27,1.09,1.09,0,0,0-.19-.41.65.65,0,0,0-.09-.16l-.1-.11a1,1,0,0,0-.2-.2h0a1.64,1.64,0,0,0-.26-.16,1.74,1.74,0,0,0-.71-.15Z"/><g class="cls-14"><path class="cls-15" d="M398.31,117.06V266.69a6.86,6.86,0,0,1-3.12,5.39l-86,49.59a1.8,1.8,0,0,1-1,.31,1.58,1.58,0,0,1-.38-.05l-.28-.1-.16-.09-.19-.12-.17-.16a2.43,2.43,0,0,1-.57-.81,3.9,3.9,0,0,1-.32-1.57V170.19a6.87,6.87,0,0,1,3.11-5.38l85.9-49.55a2.28,2.28,0,0,1,2.1-.27,1,1,0,0,1,.26.16h0a1,1,0,0,1,.2.2l.1.11a.86.86,0,0,1,.1.16,1.53,1.53,0,0,1,.19.41,2.13,2.13,0,0,1,.07.27.06.06,0,0,1,0,.06,1.37,1.37,0,0,1,.05.28A.82.82,0,0,1,398.31,117.06Z"/></g></g><path class="cls-3" d="M397.28,115a2.26,2.26,0,0,0-2.09.27l-86,49.55a6.89,6.89,0,0,0-3.1,5.38v10.17l-4-2.33V168a6.83,6.83,0,0,1,3.1-5.37l86-49.55a2.17,2.17,0,0,1,2.25-.19C394,113.17,396.62,114.68,397.28,115Z"/><path class="cls-3" d="M398.3,117c0-2-1.39-2.76-3.11-1.77l-86,49.55a6.86,6.86,0,0,0-3.1,5.38v10.17l92.18-53.12Z"/><g class="cls-17"><path class="cls-18" d="M395.15,115.26l-86,49.55a6.43,6.43,0,0,0-2.19,2.3l-3.95-2.28a6.16,6.16,0,0,1,2.16-2.26l86-49.56a2.21,2.21,0,0,1,2.26-.18c.56.35,3.13,1.81,3.79,2.16A2.24,2.24,0,0,0,395.15,115.26Z"/></g><path class="cls-19" d="M302.15,178V168a6.36,6.36,0,0,1,1-3.11l3.95,2.27a6.27,6.27,0,0,0-.93,3.09v10.17Z"/><path class="cls-15" d="M379.58,128.6a4.66,4.66,0,0,0-1.76,3.71c0,1.5.79,2.26,1.76,1.7a4.68,4.68,0,0,0,1.76-3.72C381.34,128.79,380.55,128,379.58,128.6Z"/><path class="cls-15" d="M385.9,125a4.6,4.6,0,0,0-1.75,3.72c0,1.49.78,2.25,1.75,1.69a4.63,4.63,0,0,0,1.76-3.73C387.66,125.14,386.88,124.38,385.9,125Z"/><path class="cls-15" d="M392.22,121.29a4.64,4.64,0,0,0-1.75,3.72c0,1.49.78,2.24,1.75,1.68A4.56,4.56,0,0,0,394,123C394,121.49,393.2,120.73,392.22,121.29Z"/><path class="cls-20" d="M307.26,321.68l-.39-.22-.95-.53h0l-.53-.3h0l-.81-.47-.69-.39-.38-.21a1.62,1.62,0,0,1-.53-.44,2.19,2.19,0,0,1-.42-.62,3.73,3.73,0,0,1-.36-1.64V178l4,2.33V319.08a4.54,4.54,0,0,0,.32,1.57,2.32,2.32,0,0,0,.58.81.52.52,0,0,0,.17.16A.14.14,0,0,0,307.26,321.68Z"/><path class="cls-3" d="M313.75,188.79a1.29,1.29,0,0,1,.16-.57l2.24-4.62a.24.24,0,0,1,.1-.14v-.05a.15.15,0,0,1,.18,0,.31.31,0,0,1,.07.22v1.61a1.93,1.93,0,0,1,0,.48,3,3,0,0,1-.16.42l-1.18,2.44,1.18,1.09a.67.67,0,0,1,.16.24,1.55,1.55,0,0,1,0,.43v1.54a.71.71,0,0,1-.07.32.46.46,0,0,1-.18.21h-.1l-2.24-2a.49.49,0,0,1-.16-.39Z"/><path class="cls-3" d="M321.92,177.17a2.49,2.49,0,0,1,.18-.45.66.66,0,0,1,.33-.35l.83-.49a.11.11,0,0,1,.17,0h0a.27.27,0,0,1,.09.22.48.48,0,0,1,0,.17l-3.83,16.34a2.32,2.32,0,0,1-.16.44.81.81,0,0,1-.34.37l-.81.46a.11.11,0,0,1-.17,0,.36.36,0,0,1-.08-.23v-.17Z"/><path class="cls-3" d="M327.85,181.81a1.13,1.13,0,0,1-.15.57L325.46,187l-.1.15h-.06a.17.17,0,0,1-.17,0,.32.32,0,0,1-.07-.24v-1.55a2,2,0,0,1,0-.49,2.41,2.41,0,0,1,.16-.42L326.4,182l-1.18-1.08a.78.78,0,0,1-.16-.24,1.62,1.62,0,0,1,0-.44v-1.55a.7.7,0,0,1,.07-.31.44.44,0,0,1,.17-.21h.16l2.24,2a.53.53,0,0,1,.15.41Z"/><path class="cls-3" d="M334.06,180.73a.18.18,0,0,1,.22,0,.37.37,0,0,1,.09.28v1.71a.85.85,0,0,1-.09.38.53.53,0,0,1-.22.27l-1,.61a.17.17,0,0,1-.21,0,.37.37,0,0,1-.09-.28V182a1,1,0,0,1,.09-.38.62.62,0,0,1,.21-.27Z"/><path class="cls-3" d="M337.58,178.7a.19.19,0,0,1,.23,0,.38.38,0,0,1,.09.29v1.7a.85.85,0,0,1-.09.38.51.51,0,0,1-.23.27l-1,.61a.18.18,0,0,1-.22,0,.42.42,0,0,1-.1-.28V180a1,1,0,0,1,.1-.38.51.51,0,0,1,.22-.26Z"/><path class="cls-3" d="M341.12,176.66a.17.17,0,0,1,.21,0,.45.45,0,0,1,.09.29v1.7a1.37,1.37,0,0,1-.09.4.75.75,0,0,1-.21.26l-1.07.6a.13.13,0,0,1-.2,0,.42.42,0,0,1-.1-.28v-1.71a1,1,0,0,1,.1-.38.68.68,0,0,1,.2-.27Z"/><path class="cls-3" d="M314.69,201.26l51.65-29.81c.62-.36,1.11-.1,1.11.55a2.35,2.35,0,0,1-1.11,1.84l-51.65,29.82c-.61.36-1.1.1-1.1-.56A2.35,2.35,0,0,1,314.69,201.26Z"/><path class="cls-2" d="M331.27,220.41l51.65-29.83c.61-.36,1.1-.11,1.1.56a2.31,2.31,0,0,1-1.1,1.83l-51.65,29.82c-.62.36-1.11.11-1.11-.55A2.31,2.31,0,0,1,331.27,220.41Z"/><path class="cls-2" d="M331.27,230,356,215.71c.6-.36,1.1-.11,1.1.56a2.34,2.34,0,0,1-1.1,1.83l-24.72,14.27c-.62.34-1.11.1-1.11-.56A2.36,2.36,0,0,1,331.27,230Z"/><path class="cls-2" d="M331.27,239.53,356,225.27c.6-.34,1.1-.1,1.1.56a2.37,2.37,0,0,1-1.1,1.84l-24.72,14.27c-.62.35-1.11.09-1.11-.57A2.37,2.37,0,0,1,331.27,239.53Z"/><path class="cls-3" d="M370.63,169l20.57-12c.62-.36,1.11-.11,1.11.55a2.35,2.35,0,0,1-1.11,1.83l-20.57,11.93c-.61.35-1.11.1-1.11-.56A2.36,2.36,0,0,1,370.63,169Z"/><path class="cls-3" d="M314.69,306.5l51.65-29.81c.62-.36,1.11-.1,1.11.55a2.33,2.33,0,0,1-1.11,1.84L314.69,308.9c-.61.35-1.1.1-1.1-.56A2.36,2.36,0,0,1,314.69,306.5Z"/><path class="cls-3" d="M370.63,274.21l20.57-11.92c.62-.36,1.11-.1,1.11.56a2.34,2.34,0,0,1-1.11,1.83l-20.57,11.93c-.61.35-1.11.1-1.11-.56A2.38,2.38,0,0,1,370.63,274.21Z"/><path class="cls-3" d="M370.63,245.56l20.57-11.94c.62-.36,1.11-.1,1.11.55A2.34,2.34,0,0,1,391.2,236l-20.57,11.93c-.61.36-1.11.1-1.11-.55A2.36,2.36,0,0,1,370.63,245.56Z"/><path class="cls-3" d="M370.63,255.13l20.57-11.92c.62-.36,1.11-.1,1.11.55a2.34,2.34,0,0,1-1.11,1.83l-20.57,11.93c-.61.35-1.11.1-1.11-.56A2.34,2.34,0,0,1,370.63,255.13Z"/><path class="cls-22" d="M314.69,297l51.65-29.82c.62-.35,1.11-.11,1.11.56a2.31,2.31,0,0,1-1.11,1.83l-51.65,29.82c-.61.35-1.1.1-1.1-.56A2.34,2.34,0,0,1,314.69,297Z"/><path class="cls-3" d="M353.08,255.66,364.64,249c.61-.36,1.1-.1,1.1.55a2.39,2.39,0,0,1-1.1,1.84l-11.56,6.67c-.62.35-1.11.11-1.11-.55A2.38,2.38,0,0,1,353.08,255.66Z"/><path class="cls-3" d="M314.69,210.86l30.13-17.41c.61-.35,1.11-.1,1.11.55a2.38,2.38,0,0,1-1.11,1.84l-30.13,17.41c-.61.35-1.1.1-1.1-.56A2.34,2.34,0,0,1,314.69,210.86Z"/><path class="cls-23" d="M314.69,210.86l30.13-17.41c.61-.35,1.11-.1,1.11.55a2.38,2.38,0,0,1-1.11,1.84l-30.13,17.41c-.61.35-1.1.1-1.1-.56A2.34,2.34,0,0,1,314.69,210.86Z"/><path class="cls-3" d="M314.69,220.41l10.23-5.94c.6-.35,1.1-.1,1.1.56a2.43,2.43,0,0,1-1.1,1.84l-10.23,5.9c-.61.36-1.1.1-1.1-.56A2.34,2.34,0,0,1,314.69,220.41Z"/><path class="cls-23" d="M314.69,220.41l10.23-5.94c.6-.35,1.1-.1,1.1.56a2.43,2.43,0,0,1-1.1,1.84l-10.23,5.9c-.61.36-1.1.1-1.1-.56A2.34,2.34,0,0,1,314.69,220.41Z"/><path class="cls-3" d="M314.69,230l10.23-5.92c.6-.35,1.1-.1,1.1.57a2.4,2.4,0,0,1-1.1,1.83l-10.23,5.91c-.61.35-1.1.1-1.1-.56A2.31,2.31,0,0,1,314.69,230Z"/><path class="cls-23" d="M314.69,230l10.23-5.92c.6-.35,1.1-.1,1.1.57a2.4,2.4,0,0,1-1.1,1.83l-10.23,5.91c-.61.35-1.1.1-1.1-.56A2.31,2.31,0,0,1,314.69,230Z"/><path class="cls-3" d="M314.69,239.55l10.23-5.93c.6-.36,1.1-.11,1.1.55a2.38,2.38,0,0,1-1.1,1.83l-10.23,5.92c-.61.35-1.1.09-1.1-.56A2.36,2.36,0,0,1,314.69,239.55Z"/><path class="cls-23" d="M314.69,239.55l10.23-5.93c.6-.36,1.1-.11,1.1.55a2.38,2.38,0,0,1-1.1,1.83l-10.23,5.92c-.61.35-1.1.09-1.1-.56A2.36,2.36,0,0,1,314.69,239.55Z"/><path class="cls-3" d="M314.69,249.11l10.23-5.9c.6-.36,1.1-.1,1.1.55a2.4,2.4,0,0,1-1.1,1.83l-10.23,5.91c-.61.35-1.1.1-1.1-.56A2.34,2.34,0,0,1,314.69,249.11Z"/><path class="cls-23" d="M314.69,249.11l10.23-5.9c.6-.36,1.1-.1,1.1.55a2.4,2.4,0,0,1-1.1,1.83l-10.23,5.91c-.61.35-1.1.1-1.1-.56A2.34,2.34,0,0,1,314.69,249.11Z"/><path class="cls-3" d="M349.1,191l13.11-7.54c.6-.35,1.1-.1,1.1.56a2.4,2.4,0,0,1-1.1,1.83l-13.11,7.54c-.61.35-1.1.1-1.1-.55A2.36,2.36,0,0,1,349.1,191Z"/><path class="cls-23" d="M349.1,191l13.11-7.54c.6-.35,1.1-.1,1.1.56a2.4,2.4,0,0,1-1.1,1.83l-13.11,7.54c-.61.35-1.1.1-1.1-.55A2.36,2.36,0,0,1,349.1,191Z"/><path class="cls-22" d="M343.74,241.92l30.08-17.38c.61-.35,1.1-.1,1.1.57a2.38,2.38,0,0,1-1.1,1.84l-30.08,17.36c-.6.36-1.1.1-1.1-.56A2.34,2.34,0,0,1,343.74,241.92Z"/><path class="cls-22" d="M361.08,241.49l30.12-17.4c.62-.36,1.11-.11,1.11.55a2.35,2.35,0,0,1-1.11,1.83l-30.12,17.41c-.61.35-1.11.1-1.11-.55A2.38,2.38,0,0,1,361.08,241.49Z"/><path class="cls-22" d="M378.11,222l13.1-7.54c.62-.35,1.11-.1,1.11.56a2.36,2.36,0,0,1-1.11,1.84l-13.1,7.54c-.62.34-1.11.09-1.11-.57A2.38,2.38,0,0,1,378.11,222Z"/><path class="cls-3" d="M331.27,210.84l30.12-17.41c.61-.36,1.11-.1,1.11.56a2.38,2.38,0,0,1-1.11,1.84l-30.12,17.4c-.62.35-1.11.11-1.11-.56A2.34,2.34,0,0,1,331.27,210.84Z"/><path class="cls-23" d="M331.27,210.84l30.12-17.41c.61-.36,1.11-.1,1.11.56a2.38,2.38,0,0,1-1.11,1.84l-30.12,17.4c-.62.35-1.11.11-1.11-.56A2.34,2.34,0,0,1,331.27,210.84Z"/><path class="cls-3" d="M365.67,191l13.1-7.54c.62-.35,1.11-.1,1.11.56a2.33,2.33,0,0,1-1.11,1.83l-13.1,7.54c-.6.35-1.1.1-1.1-.56A2.34,2.34,0,0,1,365.67,191Z"/><path class="cls-23" d="M365.67,191l13.1-7.54c.62-.35,1.11-.1,1.11.56a2.33,2.33,0,0,1-1.11,1.83l-13.1,7.54c-.6.35-1.1.1-1.1-.56A2.34,2.34,0,0,1,365.67,191Z"/><g id="freepik--speech-bubbles--inject-29"><path class="cls-3" d="M461.89,124.18V112.66l-9.68-.83a.58.58,0,0,0-.41.07l-9.67,5.53a.7.7,0,0,0-.25,1l.09.13,10.27,11.14Z"/><path class="cls-3" d="M452.24,129.7,442,118.56a.72.72,0,0,1,.06-1,.68.68,0,0,1,.52-.18l9.69.85Z"/><path class="cls-3" d="M461.88,112.66l-9.64,5.52-9.71-.81a1,1,0,0,0-.35,0c.78-.46,9.24-5.29,9.58-5.47a.59.59,0,0,1,.41-.08Z"/><path class="cls-12" d="M461.88,112.66l-9.64,5.52-9.71-.81a1,1,0,0,0-.35,0c.78-.46,9.24-5.29,9.58-5.47a.59.59,0,0,1,.41-.08Z"/><path class="cls-3" d="M452.26,105.27a7.76,7.76,0,0,1,3.49-6l2.84-1.68a7.69,7.69,0,0,1,7,0l30.31,17.54a7.71,7.71,0,0,1,3.49,6v35a7.72,7.72,0,0,1-3.49,6.06l-2.84,1.64a7.75,7.75,0,0,1-7,0l-8.94-5.17L465.49,152l-9.74-5.62a7.75,7.75,0,0,1-3.49-6Z"/><path class="cls-9" d="M499.38,156.14a7.72,7.72,0,0,1-3.49,6.06l-2.84,1.64a7.91,7.91,0,0,1-6.39.28c1.65.62,2.9-.32,2.9-2.3v-35a7.1,7.1,0,0,0-1-3.45l9.81-5.63a7.21,7.21,0,0,1,1,3.45Z"/><path class="cls-12" d="M452.37,104.27c.42-1.48,1.77-2,3.38-1l30.32,17.46a6.93,6.93,0,0,1,2.46,2.61l9.82-5.64a6.9,6.9,0,0,0-2.46-2.6l-30.3-17.56a7.75,7.75,0,0,0-6.93,0l-2.86,1.65A7.78,7.78,0,0,0,452.37,104.27Z"/><polygon class="cls-15" points="470.91 118.06 459.37 116.44 460.99 137.74 470.91 150.63 470.91 118.06"/><polygon class="cls-13" points="470.91 118.06 482.45 129.78 480.83 149.2 470.91 150.63 470.91 118.06"/><path class="cls-11" d="M475.66,145.76l2.65,1.54-7.38-26-7.37,17.48,2.64,1.53,1.6-3.79,6.27,3.62Zm-6.92-11.53,2.17-5.18,2.18,7.7Z"/><path class="cls-3" d="M461.89,189.54V178.07l-9.68-.85a.84.84,0,0,0-.41.08c-.38.2-9.55,5.46-9.67,5.53a.72.72,0,0,0-.25,1l.09.12L452.24,195Z"/><path class="cls-24" d="M452.24,195.05,442,184a.71.71,0,0,1,0-1,.66.66,0,0,1,.56-.19l9.69.84Z"/><path class="cls-3" d="M461.88,178.06l-9.64,5.52-9.68-.84a.65.65,0,0,0-.34,0c.77-.47,9.23-5.3,9.57-5.49a.77.77,0,0,1,.42-.08Z"/><path class="cls-22" d="M461.88,178.06l-9.64,5.52-9.68-.84a.65.65,0,0,0-.34,0c.77-.47,9.23-5.3,9.57-5.49a.77.77,0,0,1,.42-.08Z"/><path class="cls-24" d="M452.26,170.63a7.75,7.75,0,0,1,3.49-6l2.84-1.64a7.69,7.69,0,0,1,7,0l30.31,17.5a7.71,7.71,0,0,1,3.49,6.05v35a7.71,7.71,0,0,1-3.49,6l-2.84,1.64a7.69,7.69,0,0,1-7,0l-8.94-5.16-11.63-6.72-9.74-5.61a7.75,7.75,0,0,1-3.49-6.05Z"/><path class="cls-2" d="M499.38,221.52a7.71,7.71,0,0,1-3.49,6l-2.84,1.64a7.79,7.79,0,0,1-6.39.29c1.65.62,2.9-.31,2.9-2.31v-35a7.09,7.09,0,0,0-1-3.44l9.83-5.67a7.08,7.08,0,0,1,1,3.44Z"/><path class="cls-22" d="M452.37,169.63c.42-1.48,1.77-1.95,3.38-1l30.32,17.51a6.9,6.9,0,0,1,2.46,2.6l9.82-5.66a6.93,6.93,0,0,0-2.46-2.61L465.59,163a7.73,7.73,0,0,0-7,0l-2.86,1.64A7.75,7.75,0,0,0,452.37,169.63Z"/><polygon class="cls-3" points="470.91 192.04 473.45 187.24 482.45 192.44 470.91 214.15 459.37 179.11 468.36 184.3 470.91 192.04"/><polygon class="cls-19" points="470.91 192.04 473.45 187.24 482.45 192.44 470.91 214.15 459.37 179.11 468.36 184.3 470.91 192.04"/><path class="cls-13" d="M470.91,192l-2.55-7.73-4-2.32,6.56,19.91,6.56-12.34-4-2.32Z"/><path class="cls-3" d="M461.89,254.9V243.42l-9.68-.84a.66.66,0,0,0-.41.08l-9.67,5.53a.71.71,0,0,0-.25,1,.62.62,0,0,0,.09.12l10.27,11.09Z"/><path class="cls-13" d="M452.24,260.41,442,249.32a.71.71,0,0,1,.58-1.19l9.69.85Z"/><path class="cls-3" d="M461.88,243.42l-9.64,5.52-9.68-.85a1,1,0,0,0-.34,0l9.57-5.48a.77.77,0,0,1,.42-.08Z"/><path class="cls-15" d="M461.88,243.42l-9.64,5.52-9.68-.85a1,1,0,0,0-.34,0l9.57-5.48a.77.77,0,0,1,.42-.08Z"/><path class="cls-13" d="M452.26,236a7.75,7.75,0,0,1,3.49-6.05l2.84-1.64a7.75,7.75,0,0,1,7,0l30.31,17.49a7.74,7.74,0,0,1,3.49,6.05v35a7.72,7.72,0,0,1-3.49,6l-2.84,1.63a7.63,7.63,0,0,1-7,0l-8.94-5.15-11.63-6.72L455.75,277a7.73,7.73,0,0,1-3.49-6.05Z"/><path class="cls-21" d="M499.38,286.86a7.71,7.71,0,0,1-3.49,6.05l-2.84,1.64a7.79,7.79,0,0,1-6.39.28c1.65.63,2.9-.3,2.9-2.29v-35a7.13,7.13,0,0,0-1-3.45l9.83-5.68a7.12,7.12,0,0,1,1,3.45Z"/><path class="cls-15" d="M452.37,235c.42-1.48,1.77-2,3.38-1l30.32,17.51a6.9,6.9,0,0,1,2.46,2.6l9.82-5.66a6.79,6.79,0,0,0-2.46-2.61l-30.3-17.51a7.73,7.73,0,0,0-7,0L455.75,230A7.7,7.7,0,0,0,452.37,235Z"/><path class="cls-3" d="M477.66,262.74c.71-3.63.42-7-1-8.86a3.36,3.36,0,0,0-2.74-1.45h-.26a5.43,5.43,0,0,0-2.67,1c-2-3.82-4-6.15-5.47-6.15h-.21a1.29,1.29,0,0,0-.91.68c-.7,1.16-.73,3.67-.21,7a5.56,5.56,0,0,0-3.77.27,2.37,2.37,0,0,0-1.17,2.2c0,2.18,1.92,5.19,4.92,8.06-.72,3.63-.42,7,1,8.86a3.81,3.81,0,0,0,1.14,1,3,3,0,0,0,1.58.42,3.91,3.91,0,0,0,1.08-.15,6.43,6.43,0,0,0,1.92-1c1.62,3,3.25,5.21,4.55,6a2,2,0,0,0,1,.3h.2a1.28,1.28,0,0,0,.91-.68c.7-1.16.73-3.67.2-7a9.76,9.76,0,0,0,1.61.16,4.07,4.07,0,0,0,2.06-.46,2.36,2.36,0,0,0,1.17-2.2C482.58,268.61,480.65,265.6,477.66,262.74Zm-3.46,5.83a20.2,20.2,0,0,1-1.11,1.77c-.66-.32-1.37-.68-2.12-1.12s-1.46-.88-2.14-1.34c-.39-1-.78-2.08-1.15-3.19s-.7-2.13-1-3.14c.28-.62.58-1.25.92-1.86s.73-1.22,1.1-1.77c.68.32,1.39.68,2.13,1.12s1.53.93,2.25,1.41c.39,1,.77,2,1.16,3.17s.65,2,.93,3C474.89,267.24,474.56,267.89,474.2,268.57Zm1-5.15c-.21-.66-.45-1.32-.68-1.95a22.82,22.82,0,0,1,1.9,1.55c-.18.7-.39,1.41-.65,2.13-.2-.57-.38-1.15-.59-1.73ZM471,257.74c-.51-.29-1-.57-1.51-.82a13.59,13.59,0,0,1,1.43-1.51q.72,1.44,1.44,3.15c-.46-.28-.91-.56-1.38-.82Zm-4.28.89c-.19.33-.36.66-.53,1-.27-1.06-.5-2-.68-3q1,.3,2,.69a8.54,8.54,0,0,0-.79,1.28Zm0,6.27c.23.67.46,1.33.71,2-.72-.54-1.4-1.09-2-1.64a22.92,22.92,0,0,1,.71-2.27c.2.61.4,1.24.61,1.87Zm4.11,5.62c.51.3,1,.56,1.5.81a11.71,11.71,0,0,1-1.36,1.46q-.69-1.4-1.38-3c.42.26.84.52,1.26.76Zm4.29-.89c.21-.37.4-.74.58-1.13.29,1.11.53,2.16.73,3.13a19,19,0,0,1-2.08-.73c.28-.4.54-.83.79-1.27Zm-1.37-10.08c-.68-1.72-1.39-3.3-2.09-4.72a5.33,5.33,0,0,1,1.68-.85,3.13,3.13,0,0,1,.86-.12,2.25,2.25,0,0,1,1.16.29,2.37,2.37,0,0,1,.68.62c1,1.26,1.22,3.94.62,7-.92-.81-1.88-1.57-2.87-2.29Zm-5.58-3.21a20.52,20.52,0,0,0-3-1.08c-.5-3.12-.44-5.28.07-6.11a.61.61,0,0,1,.44-.41h.09a1.09,1.09,0,0,1,.55.18c.95.55,2.33,2.35,3.84,5.15a13.43,13.43,0,0,0-2,2.25Zm-2.64,4.71a23.73,23.73,0,0,0-1.12,3.3c-2.58-2.5-4.12-4.92-4.12-6.4a1.47,1.47,0,0,1,.76-1.35,3.52,3.52,0,0,1,1.72-.37,8.27,8.27,0,0,1,1.65.2c.29,1.38.66,2.95,1.13,4.6Zm2.63,7.78c.67,1.65,1.35,3.19,2,4.6a4.67,4.67,0,0,1-2.41,1,2.21,2.21,0,0,1-2-.9c-1-1.28-1.22-4-.61-7.05a34.49,34.49,0,0,0,3.05,2.32Zm5.47,3.13a19.83,19.83,0,0,0,3,1.11c.52,3.13.45,5.29-.05,6.14a.71.71,0,0,1-.45.36c-.93.16-2.65-1.88-4.54-5.44a12.87,12.87,0,0,0,2-2.21Zm2.7-4.83a27.31,27.31,0,0,0,1-3.18c2.57,2.5,4.12,4.92,4.12,6.4a1.52,1.52,0,0,1-.77,1.35,5.09,5.09,0,0,1-3.27.19,38.72,38.72,0,0,0-1.08-4.79Z"/><path class="cls-3" d="M473,265.31c0,1.51-.92,2.21-2,1.55a4.87,4.87,0,0,1-2-3.92c0-1.5.91-2.2,2-1.54A4.92,4.92,0,0,1,473,265.31Z"/><g class="cls-25"><path class="cls-18" d="M477.66,262.74c.71-3.63.42-7-1-8.86a3.36,3.36,0,0,0-2.74-1.45h-.26a5.43,5.43,0,0,0-2.67,1c-2-3.82-4-6.15-5.47-6.15h-.21a1.29,1.29,0,0,0-.91.68c-.7,1.16-.73,3.67-.21,7a5.56,5.56,0,0,0-3.77.27,2.37,2.37,0,0,0-1.17,2.2c0,2.18,1.92,5.19,4.92,8.06-.72,3.63-.42,7,1,8.86a3.81,3.81,0,0,0,1.14,1,3,3,0,0,0,1.58.42,3.91,3.91,0,0,0,1.08-.15,6.43,6.43,0,0,0,1.92-1c1.62,3,3.25,5.21,4.55,6a2,2,0,0,0,1,.3h.2a1.28,1.28,0,0,0,.91-.68c.7-1.16.73-3.67.2-7a9.76,9.76,0,0,0,1.61.16,4.07,4.07,0,0,0,2.06-.46,2.36,2.36,0,0,0,1.17-2.2C482.58,268.61,480.65,265.6,477.66,262.74Zm-3.46,5.83a20.2,20.2,0,0,1-1.11,1.77c-.66-.32-1.37-.68-2.12-1.12s-1.46-.88-2.14-1.34c-.39-1-.78-2.08-1.15-3.19s-.7-2.13-1-3.14c.28-.62.58-1.25.92-1.86s.73-1.22,1.1-1.77c.68.32,1.39.68,2.13,1.12s1.53.93,2.25,1.41c.39,1,.77,2,1.16,3.17s.65,2,.93,3C474.89,267.24,474.56,267.89,474.2,268.57Zm1-5.15c-.21-.66-.45-1.32-.68-1.95a22.82,22.82,0,0,1,1.9,1.55c-.18.7-.39,1.41-.65,2.13-.2-.57-.38-1.15-.59-1.73ZM471,257.74c-.51-.29-1-.57-1.51-.82a13.59,13.59,0,0,1,1.43-1.51q.72,1.44,1.44,3.15c-.46-.28-.91-.56-1.38-.82Zm-4.28.89c-.19.33-.36.66-.53,1-.27-1.06-.5-2-.68-3q1,.3,2,.69a8.54,8.54,0,0,0-.79,1.28Zm0,6.27c.23.67.46,1.33.71,2-.72-.54-1.4-1.09-2-1.64a22.92,22.92,0,0,1,.71-2.27c.2.61.4,1.24.61,1.87Zm4.11,5.62c.51.3,1,.56,1.5.81a11.71,11.71,0,0,1-1.36,1.46q-.69-1.4-1.38-3c.42.26.84.52,1.26.76Zm4.29-.89c.21-.37.4-.74.58-1.13.29,1.11.53,2.16.73,3.13a19,19,0,0,1-2.08-.73c.28-.4.54-.83.79-1.27Zm-1.37-10.08c-.68-1.72-1.39-3.3-2.09-4.72a5.33,5.33,0,0,1,1.68-.85,3.13,3.13,0,0,1,.86-.12,2.25,2.25,0,0,1,1.16.29,2.37,2.37,0,0,1,.68.62c1,1.26,1.22,3.94.62,7-.92-.81-1.88-1.57-2.87-2.29Zm-5.58-3.21a20.52,20.52,0,0,0-3-1.08c-.5-3.12-.44-5.28.07-6.11a.61.61,0,0,1,.44-.41h.09a1.09,1.09,0,0,1,.55.18c.95.55,2.33,2.35,3.84,5.15a13.43,13.43,0,0,0-2,2.25Zm-2.64,4.71a23.73,23.73,0,0,0-1.12,3.3c-2.58-2.5-4.12-4.92-4.12-6.4a1.47,1.47,0,0,1,.76-1.35,3.52,3.52,0,0,1,1.72-.37,8.27,8.27,0,0,1,1.65.2c.29,1.38.66,2.95,1.13,4.6Zm2.63,7.78c.67,1.65,1.35,3.19,2,4.6a4.67,4.67,0,0,1-2.41,1,2.21,2.21,0,0,1-2-.9c-1-1.28-1.22-4-.61-7.05a34.49,34.49,0,0,0,3.05,2.32Zm5.47,3.13a19.83,19.83,0,0,0,3,1.11c.52,3.13.45,5.29-.05,6.14a.71.71,0,0,1-.45.36c-.93.16-2.65-1.88-4.54-5.44a12.87,12.87,0,0,0,2-2.21Zm2.7-4.83a27.31,27.31,0,0,0,1-3.18c2.57,2.5,4.12,4.92,4.12,6.4a1.52,1.52,0,0,1-.77,1.35,5.09,5.09,0,0,1-3.27.19,38.72,38.72,0,0,0-1.08-4.79Z"/><path class="cls-18" d="M473,265.31c0,1.51-.92,2.21-2,1.55a4.87,4.87,0,0,1-2-3.92c0-1.5.91-2.2,2-1.54A4.92,4.92,0,0,1,473,265.31Z"/></g></g><g id="freepik--Character--inject-29"><g id="freepik--character--inject-29-2" data-name="freepik--character--inject-29"><path class="cls-26" d="M429.54,304.4c3.93.76,5.73,2.1,8,7.57s6.24,18.77,7.16,22.43c.43,1.63-9.92,16.26-9.48,16,.13-.06-4-7.05-4-7.05l5.09-9.72-3.62-8.85Z"/><path class="cls-3" d="M428.2,304.48s3.6-.65,6,1.33,2.74,3.3,4.35,7.34,4.26,12.51,4.26,12.51-.77,4.53-8.15,5.43l-6.34-14.26S426.09,308.21,428.2,304.48Z"/><path class="cls-15" d="M420.79,421.51a8.31,8.31,0,0,0,.22,3.84,8.66,8.66,0,0,0,3.11,3.74,15.47,15.47,0,0,1,2.58,3.13,13.27,13.27,0,0,0,2.69,3.37c.84.72,3.21.79,4.35.31s1.53-.91,1.46-2.73-5.6-2.45-5.6-2.45Z"/><path class="cls-3" d="M434.46,427.73c.47.17.59,1.07.66,2.86.06,1.35.62,3.33-1.24,4.18a4.54,4.54,0,0,1-4.91-1,59.23,59.23,0,0,0-3.93-4.93c-1.57-1.68-3.2-2.24-3.9-5.61-.45-2.16-.09-3,1.36-3.68,2-.85,5.15,1.93,6.72,2.37C430.58,422.26,434,427.55,434.46,427.73Z"/><path class="cls-9" d="M434.46,427.73c.47.17.59,1.07.66,2.86.06,1.35.62,3.33-1.24,4.18a4.54,4.54,0,0,1-4.91-1,59.23,59.23,0,0,0-3.93-4.93c-1.57-1.68-3.2-2.24-3.9-5.61-.45-2.16-.09-3,1.36-3.68,2-.85,5.15,1.93,6.72,2.37C430.58,422.26,434,427.55,434.46,427.73Z"/><path class="cls-11" d="M429.24,421.88l-.27-.09a5.16,5.16,0,0,0-4.34,2.84c-.26.59.56,1,1,.59a5.55,5.55,0,0,1,4.33-2.83A2.29,2.29,0,0,0,429.24,421.88Z"/><path class="cls-11" d="M430.52,422.9a5.11,5.11,0,0,0-4,2.82c-.26.58.55,1,1,.58a5.34,5.34,0,0,1,3.61-2.69A4.36,4.36,0,0,0,430.52,422.9Z"/><path class="cls-15" d="M395.64,449.14c-.31,1.52.24,2.3,2.19,3.43a10.94,10.94,0,0,0,8.25.58c3.22-.94,4.77-2.34,6.11-2.69s4.65-.36,6-.74,1.29-1.07,1.29-2.66Z"/><path class="cls-3" d="M418.17,439.37s.62,1.92,1,3.58c.28,1.34.66,3.55.2,4.54s-2.28,1.64-5,1.62c-1.82,0-4.66,1.22-6.6,2.3a10.15,10.15,0,0,1-6.3.88c-2.5-.3-5-1.74-5.48-2.77s-.51-1.82,5.37-4.33c.06,0,6.83-2.52,9.68-5.66Z"/><g class="cls-27"><path d="M418.17,439.37s.62,1.92,1,3.58c.28,1.34.66,3.55.2,4.54s-2.28,1.64-5,1.62c-1.82,0-4.66,1.22-6.6,2.3a10.15,10.15,0,0,1-6.3.88c-2.5-.3-5-1.74-5.48-2.77s-.51-1.82,5.37-4.33c.06,0,6.83-2.52,9.68-5.66Z"/></g><path class="cls-11" d="M406.84,451.8s-.5-5-4.6-6.5c-3.72-1.31-7,1.44-6.6,3.84C395.88,450.74,400.4,454.36,406.84,451.8Z"/><path class="cls-11" d="M403.28,444.35a4.82,4.82,0,0,1,2.8,1.25c1.19,1,1.22,1.66,1.22,1.66a.62.62,0,0,0,.88,0,.65.65,0,0,0,.19-.53s-.27-2.55-3.63-3A1.35,1.35,0,0,0,403.28,444.35Z"/><path class="cls-11" d="M405.63,443.28a4.15,4.15,0,0,1,2.83,1.13c1.18,1,1.19,1.78,1.19,1.78a.61.61,0,0,0,.88,0,.64.64,0,0,0,.19-.53s-.28-2.54-3.63-3.07A1.34,1.34,0,0,0,405.63,443.28Z"/><path class="cls-11" d="M408,441.89a4.19,4.19,0,0,1,2.9.94c1.25.91,1.31,1.7,1.31,1.7a.63.63,0,0,0,.88-.1.62.62,0,0,0,.12-.49s-.45-2.53-3.83-2.82A1.36,1.36,0,0,0,408,441.89Z"/><path class="cls-26" d="M434.46,424.84v3.42a5.35,5.35,0,0,1-5.54.16c-.1-.21-.37-3.58-.37-3.58Z"/><path class="cls-26" d="M418.17,437v2.56c0,.93-1.09,2.31-3.94,2.21-2-.07-3.38-.61-3.31-2.25v-2.37Z"/><path class="cls-15" d="M438.17,395.75c-.18-7.23-1.66-10.41-1.66-10.41s.55-8.93,1.76-19.87c1.82-16.64,1-19.87-2.3-27.37,0,0-28-2.83-28.88,8.81-1.07,14.51-1.19,44-.81,49.13s.37.4,1.62,10.77c1,8.2,3,30.35,3,30.35a7.7,7.7,0,0,0,7.24-.15s2.29-27.1,2-33a67.05,67.05,0,0,0-.7-9.07s3.28-23.38,3.79-27.14c0,0,.45,6.73.84,11.85s.36,9.26,1.43,19.85c.85,8.32,2.9,26.27,2.9,26.27a6.89,6.89,0,0,0,6.11-.46S438.32,401.6,438.17,395.75Z"/><path class="cls-11" d="M422.09,425.68s.15-4,5.56-4.56l.31.17a4.7,4.7,0,0,0-2.66-2,3.66,3.66,0,0,0-4.16,1.2C420.19,421.66,421.15,424.9,422.09,425.68Z"/><polygon class="cls-26" points="415.18 300.63 416.5 311.46 426.01 310.6 424.94 298.57 415.18 300.63"/><path class="cls-13" d="M435.31,309.63c-1-2.84-3.45-5.83-7.05-5.15-1,.18-1.8.31-2.7.49-.08,2.5-4.78,3.79-9.46,2.28-1.41.4-2.7.82-3.87,1.23-3.36,1.2-4.7,6.76-4.79,16.13S406,352.56,406,352.56s7.06,3.74,20.23,1.35,13-6.87,13-6.87S439,341.57,433,332.4C438.05,319,436.86,313.86,435.31,309.63Z"/><path class="cls-21" d="M408.1,286.87a8.35,8.35,0,0,1,.73-8.06c3.2-5,9.36-5.88,16.65-3.91a12.93,12.93,0,0,1,9.14,11.75c.35,5.35-14.58,9.3-14.25,13Z"/><path class="cls-28" d="M407.79,288.9s-2,3.25-1.74,3.58a4.91,4.91,0,0,0,1.63.66Z"/><path class="cls-26" d="M414,278.61c-2,1.11-5.52,3.17-6.23,10.76-.72,7.79,1.07,10.44,2.16,11.43.74.67,4.43.82,6.33.17,2.39-.82,7.53-3.53,9.87-7.6,2.75-4.8,3.17-11.09-.22-13.46A12.35,12.35,0,0,0,414,278.61Z"/><path class="cls-21" d="M414.08,287.78a7.73,7.73,0,0,1-5-6.22c-.75-4.95,5.42-7.06,5.42-7.06Z"/><path class="cls-21" d="M413.37,279s-1.59,7.13.67,11.55c0,0,1.18-2.8,3.57-2.07s2.29,3.93.44,5.61a3.5,3.5,0,0,1-3.67.88,15.81,15.81,0,0,0,3.55,5.39s7.06,3.16,13.25-3.77c5.57-6.31,4.53-17.28-4-19.87S413.37,279,413.37,279Z"/><path class="cls-21" d="M442.78,306.89h0a9.71,9.71,0,0,1-9.7-9.69V281h0a9.69,9.69,0,0,1,9.7,9.69Z"/><path class="cls-21" d="M434.16,278.87a1.67,1.67,0,0,0-1.08,2.1h0l3.19-1a1.68,1.68,0,0,0-2.1-1.11Z"/><path class="cls-26" d="M388.09,325.64c-1.38-1.59-1.6-5-3.44-7.47s-1.51-4.82-2.66-3.74-.29,5-.29,5-2.15,4-2.33,6,5.2,7.15,5.2,7.15Z"/><path class="cls-26" d="M382,319.16s-2.19,3-12-.92c-2.71-1.11-.88,4.73,2.45,7.14,3.09,2.24,6.94,2.94,10,5C382.43,330.1,382,319.16,382,319.16Z"/><path class="cls-26" d="M413,308.21c-2.8,1-5.24,2.1-7.87,7-3.36,6.31-9.45,18.67-9.45,18.67l-7.6-8.24s-1.1-1.57-3.16,1.84-1.15,4.35-1.15,4.35,8.85,11.85,10.48,13.35,4.3.34,6-2,10.75-18.68,10.75-18.68S417,314.16,413,308.21Z"/><path class="cls-3" d="M414.36,307.75a10.69,10.69,0,0,0-8.52,5.68c-3.35,6-6.88,12.87-6.88,12.87s2.44,5.86,8.61,6.3c0-.6,5-9.58,7-13.42S416.26,309.48,414.36,307.75Z"/><path class="cls-13" d="M423.29,367.81l.54-5.67a21.45,21.45,0,0,0,8.55-3.23s-1.83,2.91-6.82,4.24l-1.13,5.54-.29,11Z"/></g></g></svg>