<svg xmlns="http://www.w3.org/2000/svg" viewBox="0 0 42.03 54.75"><defs><style>.cls-1{fill:#fff;}</style></defs><title>Recurso 1</title><g id="Capa_2" data-name="Capa 2"><g id="Día_en_Adalab_Presencial_Clases" data-name="Día en Adalab Presencial Clases"><path class="cls-1" d="M41.23,48.66a.8.8,0,0,0,.8-.8v-38a.8.8,0,0,0-.8-.8H38.82V5.35a.8.8,0,0,0-.8-.81H35.61V.8a.8.8,0,0,0-.8-.8H.8A.8.8,0,0,0,0,.8V3.41a.8.8,0,0,0,1.6,0V1.6H34V44.06H1.6V6.9A.8.8,0,1,0,0,6.9v38a.8.8,0,0,0,.8.8H3.21v3.75a.8.8,0,0,0,.8.8H6.42V54a.8.8,0,0,0,.8.8h34A.8.8,0,0,0,42,54V51.3a.81.81,0,0,0-1.61,0v1.85H8V50.21h3.66a.81.81,0,0,0,0-1.61H4.81V45.66h30a.8.8,0,0,0,.8-.8V6.15h1.6V48.6H15.13a.81.81,0,0,0,0,1.61H38a.8.8,0,0,0,.8-.8V10.69h1.6V47.86a.8.8,0,0,0,.81.8Z"/><path class="cls-1" d="M29.18,13.31V6.9a.8.8,0,0,0-.8-.81H7.2a.8.8,0,0,0-.8.81v6.41a.8.8,0,0,0,.8.81H28.38a.8.8,0,0,0,.8-.81Zm-1.61-.8H8V7.7H27.57v4.81Z"/><path class="cls-1" d="M6,33.69a.8.8,0,0,0,.8.8h21.6a.81.81,0,1,0,0-1.61H6.77A.8.8,0,0,0,6,33.69Z"/><path class="cls-1" d="M6.77,37.91h21.6a.8.8,0,1,0,0-1.6H6.77a.8.8,0,0,0,0,1.6Z"/><path class="cls-1" d="M11.53,28.66a.81.81,0,0,0,1.61,0,4.44,4.44,0,1,1,8.87,0,.81.81,0,0,0,1.61,0,6,6,0,0,0-3.41-5.43,4,4,0,1,0-5.28,0A6,6,0,0,0,11.53,28.66Zm3.64-8.45a2.41,2.41,0,1,1,2.4,2.41A2.41,2.41,0,0,1,15.17,20.21Z"/></g></g></svg>