<svg xmlns="http://www.w3.org/2000/svg" xmlns:xlink="http://www.w3.org/1999/xlink" viewBox="0 0 487.63 580.55"><defs><style>.cls-1{fill:none;}.cls-2{fill:#f5f5f5;}.cls-21,.cls-3{fill:#e1e1e1;}.cls-4,.cls-5{fill:#2b454e;}.cls-11,.cls-12,.cls-20,.cls-5{opacity:0.2;}.cls-6,.cls-7{fill:#1a2e35;}.cls-25,.cls-28,.cls-7{opacity:0.4;}.cls-8,.cls-9{fill:#375a64;}.cls-9{opacity:0.1;}.cls-10{fill:#2bd8c4;}.cls-13{fill:#f0f0f0;}.cls-14,.cls-18,.cls-19,.cls-20{fill:#fff;}.cls-14,.cls-21{opacity:0.8;}.cls-15{fill:#ececec;}.cls-16,.cls-23{fill:#fafafa;}.cls-16,.cls-17,.cls-19{opacity:0.6;}.cls-22{clip-path:url(#clip-path);}.cls-24{fill:#ff9090;}.cls-26{opacity:0.7;}.cls-27{fill:#ffaaa8;}</style><clipPath id="clip-path"><path class="cls-1" d="M177.65,127.16c-16.85,9.5-30.51,33.15-30.51,52.84s13.66,27.74,30.51,18,30.5-33.39,30.5-52.84S194.49,117.65,177.65,127.16Z"/></clipPath></defs><title>Recurso 5</title><g id="Capa_2" data-name="Capa 2"><g id="Día_en_Adalab_Presencial_Clases" data-name="Día en Adalab Presencial Clases"><path class="cls-2" d="M71.41,542.82c95.22,50.31,249.6,50.31,344.81,0s95.22-131.87,0-182.17-249.59-50.31-344.81,0S-23.8,492.51,71.41,542.82Z"/><path class="cls-3" d="M131.89,500.92a7,7,0,0,1-3-5.52V136.55a7.17,7.17,0,0,1,3.25-5.63L357.44.81a7,7,0,0,1,6.3-.11,7,7,0,0,1,3.05,5.51L138.19,500.8A7,7,0,0,1,131.89,500.92Z"/><path class="cls-4" d="M134.93,143.36l91.53-59.88L220.36,80l-88.27,51a7.17,7.17,0,0,0-3.25,5.63v3.29Z"/><path class="cls-5" d="M134.93,143.36l91.53-59.88L220.36,80l-88.27,51a7.17,7.17,0,0,0-3.25,5.63v3.29Z"/><path class="cls-6" d="M165.27,153.76l-35.66-20.59a6.63,6.63,0,0,0-1,3.2V495.23a6.11,6.11,0,0,0,9.35,5.4l27.26-15.74Z"/><path class="cls-7" d="M165.27,153.76l-35.66-20.59a6.63,6.63,0,0,0-1,3.2V495.23a6.11,6.11,0,0,0,9.35,5.4l27.26-15.74Z"/><path class="cls-8" d="M138.19,500.8,363.54,370.7a7.18,7.18,0,0,0,3.25-5.64V6.21c0-2.07-1.45-2.91-3.25-1.88L138.19,134.44a7.18,7.18,0,0,0-3.25,5.64V498.93C134.94,501,136.39,501.84,138.19,500.8Z"/><path class="cls-9" d="M138.19,500.8,363.54,370.7a7.18,7.18,0,0,0,3.25-5.64V6.21c0-2.07-1.45-2.91-3.25-1.88L138.19,134.44a7.18,7.18,0,0,0-3.25,5.64V498.93C134.94,501,136.39,501.84,138.19,500.8Z"/><path class="cls-10" d="M153.64,223l54.11-31.24c3.59-2.07,6.51-.59,6.51,3.29s-2.92,8.73-6.51,10.8l-54.11,31.24c-3.59,2.08-6.5.6-6.5-3.29S150.05,225,153.64,223Z"/><path class="cls-10" d="M153.64,245.13l35.81-20.67c3.59-2.07,6.5-.6,6.5,3.29s-2.91,8.73-6.5,10.8l-35.81,20.67c-3.59,2.08-6.5.6-6.5-3.29S150.05,247.21,153.64,245.13Z"/><path class="cls-10" d="M153,262.61l7-4.05c1.44-.82,2.61-.15,2.61,1.51v8.08a5.76,5.76,0,0,1-2.61,4.51l-7,4c-1.43.83-2.6.15-2.6-1.51v-8.08A5.76,5.76,0,0,1,153,262.61Z"/><path class="cls-11" d="M153,262.61l7-4.05c1.44-.82,2.61-.15,2.61,1.51v8.08a5.76,5.76,0,0,1-2.61,4.51l-7,4c-1.43.83-2.6.15-2.6-1.51v-8.08A5.76,5.76,0,0,1,153,262.61Z"/><path class="cls-10" d="M153,290.79l7-4c1.44-.83,2.61-.16,2.61,1.5v8.08a5.76,5.76,0,0,1-2.61,4.51l-7,4c-1.43.83-2.6.16-2.6-1.5V295.3A5.77,5.77,0,0,1,153,290.79Z"/><g class="cls-12"><path d="M153,290.79l7-4c1.44-.83,2.61-.16,2.61,1.5v8.08a5.76,5.76,0,0,1-2.61,4.51l-7,4c-1.43.83-2.6.16-2.6-1.5V295.3A5.77,5.77,0,0,1,153,290.79Z"/></g><path class="cls-10" d="M168.69,303.84,211,279.42c1.8-1,3.26-.3,3.26,1.64a7,7,0,0,1-3.26,5.41l-42.31,24.42c-1.79,1-3.25.3-3.25-1.64A7,7,0,0,1,168.69,303.84Z"/><path class="cls-11" d="M168.69,303.84,211,279.42c1.8-1,3.26-.3,3.26,1.64a7,7,0,0,1-3.26,5.41l-42.31,24.42c-1.79,1-3.25.3-3.25-1.64A7,7,0,0,1,168.69,303.84Z"/><path class="cls-3" d="M153,319l7-4c1.44-.83,2.61-.16,2.61,1.5v8.08A5.76,5.76,0,0,1,160,329l-7,4c-1.43.83-2.6.16-2.6-1.5v-8.08A5.77,5.77,0,0,1,153,319Z"/><path class="cls-13" d="M168.69,332,211,307.6c1.8-1,3.26-.3,3.26,1.64a7,7,0,0,1-3.26,5.4l-42.31,24.43c-1.79,1-3.25.3-3.25-1.64A7,7,0,0,1,168.69,332Z"/><path class="cls-3" d="M153,347.22l7-4c1.44-.83,2.61-.15,2.61,1.5v8.09a5.74,5.74,0,0,1-2.61,4.5l-7,4.05c-1.43.82-2.6.15-2.6-1.51v-8.08A5.77,5.77,0,0,1,153,347.22Z"/><path class="cls-13" d="M168.69,360.28,211,335.85c1.8-1,3.26-.29,3.26,1.65a7,7,0,0,1-3.26,5.4l-42.31,24.42c-1.79,1-3.25.31-3.25-1.64A7,7,0,0,1,168.69,360.28Z"/><path class="cls-3" d="M153,375.4l7-4c1.44-.84,2.61-.16,2.61,1.49V381a5.74,5.74,0,0,1-2.61,4.5l-7,4.05c-1.43.82-2.6.15-2.6-1.51v-8.08A5.77,5.77,0,0,1,153,375.4Z"/><path class="cls-13" d="M168.69,388.46,211,364c1.8-1,3.26-.3,3.26,1.65a7,7,0,0,1-3.26,5.4l-42.31,24.43c-1.79,1-3.25.3-3.25-1.65A7,7,0,0,1,168.69,388.46Z"/><path class="cls-10" d="M150.39,423.62l30.11-17.38c1.79-1,3.25-.3,3.25,1.64a7,7,0,0,1-3.25,5.4l-30.11,17.38c-1.8,1-3.25.3-3.25-1.64A6.94,6.94,0,0,1,150.39,423.62Z"/><path class="cls-10" d="M150.39,437.71l60.61-35c1.8-1,3.26-.3,3.26,1.65a7,7,0,0,1-3.26,5.4l-60.61,35c-1.8,1-3.25.3-3.25-1.65A7,7,0,0,1,150.39,437.71Z"/><path class="cls-14" d="M150.39,437.71l60.61-35c1.8-1,3.26-.3,3.26,1.65a7,7,0,0,1-3.26,5.4l-60.61,35c-1.8,1-3.25.3-3.25-1.65A7,7,0,0,1,150.39,437.71Z"/><path class="cls-10" d="M150.39,437.71l42.31-24.43c1.8-1,3.25-.3,3.25,1.65a7,7,0,0,1-3.25,5.4l-42.31,24.42c-1.8,1-3.25.3-3.25-1.65A7,7,0,0,1,150.39,437.71Z"/><path class="cls-10" d="M150.39,451.78,180.5,434.4c1.79-1,3.25-.3,3.25,1.65a7,7,0,0,1-3.25,5.39l-30.11,17.39c-1.8,1-3.25.3-3.25-1.65A7,7,0,0,1,150.39,451.78Z"/><path class="cls-10" d="M168.69,275.66,211,251.24c1.8-1,3.26-.31,3.26,1.64a7,7,0,0,1-3.26,5.4l-42.31,24.43c-1.79,1-3.25.3-3.25-1.65A7,7,0,0,1,168.69,275.66Z"/><path class="cls-11" d="M168.69,275.66,211,251.24c1.8-1,3.26-.31,3.26,1.64a7,7,0,0,1-3.26,5.4l-42.31,24.43c-1.79,1-3.25.3-3.25-1.65A7,7,0,0,1,168.69,275.66Z"/><path class="cls-10" d="M150.39,451.78,180.5,434.4c1.79-1,3.25-.3,3.25,1.65a7,7,0,0,1-3.25,5.39l-30.11,17.39c-1.8,1-3.25.3-3.25-1.65A7,7,0,0,1,150.39,451.78Z"/><path class="cls-10" d="M150.39,465.87l60.61-35c1.8-1,3.26-.3,3.26,1.64a7,7,0,0,1-3.26,5.4l-60.61,35c-1.8,1-3.25.3-3.25-1.65A7,7,0,0,1,150.39,465.87Z"/><path class="cls-14" d="M150.39,465.87l60.61-35c1.8-1,3.26-.3,3.26,1.64a7,7,0,0,1-3.26,5.4l-60.61,35c-1.8,1-3.25.3-3.25-1.65A7,7,0,0,1,150.39,465.87Z"/><path class="cls-10" d="M150.39,465.87,204.9,434.4c1.8-1,3.26-.3,3.25,1.65a6.94,6.94,0,0,1-3.25,5.39l-54.51,31.48c-1.8,1-3.25.3-3.25-1.65A7,7,0,0,1,150.39,465.87Z"/><path class="cls-15" d="M363.54,4.33,226.46,83.48V449.84L363.54,370.7a7.18,7.18,0,0,0,3.25-5.64V6.21C366.79,4.14,365.34,3.3,363.54,4.33Z"/><path class="cls-16" d="M363.54,4.33,226.46,83.48V449.84L363.54,370.7a7.18,7.18,0,0,0,3.25-5.64V6.21C366.79,4.14,365.34,3.3,363.54,4.33Z"/><polygon class="cls-10" points="226.46 97.57 226.46 125.75 214.26 139.84 226.46 139.84 226.46 168.03 354.59 94.05 354.59 23.59 226.46 97.57"/><g class="cls-17"><path class="cls-18" d="M243.21,98.55l51.91-30c2.52-1.45,4.56-.27,4.56,2.63v.05a10.05,10.05,0,0,1-4.56,7.89l-51.9,30c-2.52,1.45-4.56.28-4.56-2.63v-.06A10.06,10.06,0,0,1,243.21,98.55Z"/></g><path class="cls-10" d="M240.29,121.29l100.47-58c.9-.52,1.62-.15,1.62.82a3.48,3.48,0,0,1-1.62,2.71l-100.47,58c-.9.52-1.63.15-1.63-.82A3.49,3.49,0,0,1,240.29,121.29Z"/><path class="cls-10" d="M240.29,121.29l100.47-58c.9-.52,1.62-.15,1.62.82a3.48,3.48,0,0,1-1.62,2.71l-100.47,58c-.9.52-1.63.15-1.63-.82A3.49,3.49,0,0,1,240.29,121.29Z"/><path class="cls-19" d="M240.29,121.29l100.47-58c.9-.52,1.62-.15,1.62.82a3.48,3.48,0,0,1-1.62,2.71l-100.47,58c-.9.52-1.63.15-1.63-.82A3.49,3.49,0,0,1,240.29,121.29Z"/><path class="cls-10" d="M240.29,131.86l100.47-58c.9-.52,1.62-.15,1.62.82a3.48,3.48,0,0,1-1.62,2.7l-100.47,58c-.9.52-1.63.15-1.63-.82A3.49,3.49,0,0,1,240.29,131.86Z"/><path class="cls-19" d="M240.29,131.86l100.47-58c.9-.52,1.62-.15,1.62.82a3.48,3.48,0,0,1-1.62,2.7l-100.47,58c-.9.52-1.63.15-1.63-.82A3.49,3.49,0,0,1,240.29,131.86Z"/><path class="cls-19" d="M240.29,142.43l100.47-58c.9-.52,1.62-.15,1.62.82a3.47,3.47,0,0,1-1.62,2.7L240.29,146c-.9.52-1.63.15-1.63-.82A3.46,3.46,0,0,1,240.29,142.43Z"/><path class="cls-10" d="M244.07,172l7-4c1.44-.82,2.6-.15,2.6,1.51v8.08a5.75,5.75,0,0,1-2.6,4.51l-7,4c-1.44.83-2.6.16-2.6-1.51v-8.08A5.73,5.73,0,0,1,244.07,172Z"/><path class="cls-20" d="M244.07,172l7-4c1.44-.82,2.6-.15,2.6,1.51v8.08a5.75,5.75,0,0,1-2.6,4.51l-7,4c-1.44.83-2.6.16-2.6-1.51v-8.08A5.73,5.73,0,0,1,244.07,172Z"/><path class="cls-10" d="M263,164.56l42.3-24.43c1.8-1,3.26-.3,3.26,1.64a7,7,0,0,1-3.26,5.41L263,171.6c-1.8,1-3.25.3-3.25-1.64A6.94,6.94,0,0,1,263,164.56Z"/><path class="cls-14" d="M263,164.56l42.3-24.43c1.8-1,3.26-.3,3.26,1.64a7,7,0,0,1-3.26,5.41L263,171.6c-1.8,1-3.25.3-3.25-1.64A6.94,6.94,0,0,1,263,164.56Z"/><path class="cls-10" d="M243.1,197.22l106.57-61.55c.9-.52,1.63-.15,1.63.82a3.48,3.48,0,0,1-1.63,2.7L243.1,200.74c-.9.51-1.63.15-1.63-.83A3.46,3.46,0,0,1,243.1,197.22Z"/><path class="cls-10" d="M243.1,207.78l106.57-61.54c.9-.52,1.63-.15,1.63.82a3.48,3.48,0,0,1-1.63,2.7L243.1,211.3c-.9.52-1.63.15-1.63-.82A3.49,3.49,0,0,1,243.1,207.78Z"/><path class="cls-10" d="M243.1,218.35l106.57-61.54c.9-.52,1.63-.15,1.63.82a3.49,3.49,0,0,1-1.63,2.7L243.1,221.87c-.9.52-1.63.15-1.63-.82A3.49,3.49,0,0,1,243.1,218.35Z"/><path class="cls-10" d="M243.1,229,349.67,167.4c.9-.51,1.63-.14,1.63.83a3.49,3.49,0,0,1-1.63,2.7L243.1,232.47c-.9.52-1.63.15-1.63-.82A3.46,3.46,0,0,1,243.1,229Z"/><path class="cls-3" d="M243.1,197.22l106.57-61.55c.9-.52,1.63-.15,1.63.82a3.48,3.48,0,0,1-1.63,2.7L243.1,200.74c-.9.51-1.63.15-1.63-.83A3.46,3.46,0,0,1,243.1,197.22Z"/><path class="cls-3" d="M243.1,207.78l106.57-61.54c.9-.52,1.63-.15,1.63.82a3.48,3.48,0,0,1-1.63,2.7L243.1,211.3c-.9.52-1.63.15-1.63-.82A3.49,3.49,0,0,1,243.1,207.78Z"/><path class="cls-3" d="M243.1,218.35l106.57-61.54c.9-.52,1.63-.15,1.63.82a3.49,3.49,0,0,1-1.63,2.7L243.1,221.87c-.9.52-1.63.15-1.63-.82A3.49,3.49,0,0,1,243.1,218.35Z"/><path class="cls-3" d="M243.1,229,349.67,167.4c.9-.51,1.63-.14,1.63.83a3.49,3.49,0,0,1-1.63,2.7L243.1,232.47c-.9.52-1.63.15-1.63-.82A3.46,3.46,0,0,1,243.1,229Z"/><path class="cls-21" d="M243.1,197.22l106.57-61.55c.9-.52,1.63-.15,1.63.82a3.48,3.48,0,0,1-1.63,2.7L243.1,200.74c-.9.51-1.63.15-1.63-.83A3.46,3.46,0,0,1,243.1,197.22Z"/><path class="cls-21" d="M243.1,207.78l106.57-61.54c.9-.52,1.63-.15,1.63.82a3.48,3.48,0,0,1-1.63,2.7L243.1,211.3c-.9.52-1.63.15-1.63-.82A3.49,3.49,0,0,1,243.1,207.78Z"/><path class="cls-21" d="M243.1,218.35l106.57-61.54c.9-.52,1.63-.15,1.63.82a3.49,3.49,0,0,1-1.63,2.7L243.1,221.87c-.9.52-1.63.15-1.63-.82A3.49,3.49,0,0,1,243.1,218.35Z"/><path class="cls-21" d="M243.1,229,349.67,167.4c.9-.51,1.63-.14,1.63.83a3.49,3.49,0,0,1-1.63,2.7L243.1,232.47c-.9.52-1.63.15-1.63-.82A3.46,3.46,0,0,1,243.1,229Z"/><path class="cls-3" d="M243.1,273.82l106.57-61.54c.9-.52,1.63-.15,1.63.82a3.49,3.49,0,0,1-1.63,2.7L243.1,277.34c-.9.52-1.63.15-1.63-.82A3.49,3.49,0,0,1,243.1,273.82Z"/><path class="cls-3" d="M243.1,284.39l106.57-61.54c.9-.52,1.63-.16,1.63.82a3.49,3.49,0,0,1-1.63,2.7L243.1,287.91c-.9.52-1.63.15-1.63-.82A3.49,3.49,0,0,1,243.1,284.39Z"/><path class="cls-3" d="M243.1,295l106.57-61.54c.9-.51,1.63-.15,1.63.82a3.49,3.49,0,0,1-1.63,2.71L243.1,298.48c-.9.51-1.63.15-1.63-.83A3.49,3.49,0,0,1,243.1,295Z"/><path class="cls-3" d="M243.1,305.56,349.67,244c.9-.52,1.63-.15,1.63.82a3.48,3.48,0,0,1-1.63,2.7L243.1,309.08c-.9.52-1.63.15-1.63-.83A3.46,3.46,0,0,1,243.1,305.56Z"/><path class="cls-21" d="M243.1,273.82l106.57-61.54c.9-.52,1.63-.15,1.63.82a3.49,3.49,0,0,1-1.63,2.7L243.1,277.34c-.9.52-1.63.15-1.63-.82A3.49,3.49,0,0,1,243.1,273.82Z"/><path class="cls-21" d="M243.1,284.39l106.57-61.54c.9-.52,1.63-.16,1.63.82a3.49,3.49,0,0,1-1.63,2.7L243.1,287.91c-.9.52-1.63.15-1.63-.82A3.49,3.49,0,0,1,243.1,284.39Z"/><path class="cls-21" d="M243.1,295l106.57-61.54c.9-.51,1.63-.15,1.63.82a3.49,3.49,0,0,1-1.63,2.71L243.1,298.48c-.9.51-1.63.15-1.63-.83A3.49,3.49,0,0,1,243.1,295Z"/><path class="cls-21" d="M243.1,305.56,349.67,244c.9-.52,1.63-.15,1.63.82a3.48,3.48,0,0,1-1.63,2.7L243.1,309.08c-.9.52-1.63.15-1.63-.83A3.46,3.46,0,0,1,243.1,305.56Z"/><path class="cls-3" d="M243.1,351.93l106.57-61.55c.9-.51,1.63-.15,1.63.83a3.49,3.49,0,0,1-1.63,2.7L243.1,355.45c-.9.52-1.63.15-1.63-.82A3.48,3.48,0,0,1,243.1,351.93Z"/><path class="cls-3" d="M243.1,362.5,349.67,301c.9-.51,1.63-.15,1.63.83a3.49,3.49,0,0,1-1.63,2.7L243.1,366c-.9.52-1.63.15-1.63-.82A3.48,3.48,0,0,1,243.1,362.5Z"/><path class="cls-3" d="M243.1,373.06l106.57-61.54c.9-.52,1.63-.15,1.63.82a3.46,3.46,0,0,1-1.63,2.7L243.1,376.59c-.9.51-1.63.15-1.63-.83A3.49,3.49,0,0,1,243.1,373.06Z"/><path class="cls-3" d="M243.1,383.66l106.57-61.54c.9-.52,1.63-.15,1.63.82a3.49,3.49,0,0,1-1.63,2.7L243.1,387.19c-.9.51-1.63.15-1.63-.83A3.49,3.49,0,0,1,243.1,383.66Z"/><path class="cls-21" d="M243.1,351.93l106.57-61.55c.9-.51,1.63-.15,1.63.83a3.49,3.49,0,0,1-1.63,2.7L243.1,355.45c-.9.52-1.63.15-1.63-.82A3.48,3.48,0,0,1,243.1,351.93Z"/><path class="cls-21" d="M243.1,362.5,349.67,301c.9-.51,1.63-.15,1.63.83a3.49,3.49,0,0,1-1.63,2.7L243.1,366c-.9.52-1.63.15-1.63-.82A3.48,3.48,0,0,1,243.1,362.5Z"/><path class="cls-21" d="M243.1,373.06l106.57-61.54c.9-.52,1.63-.15,1.63.82a3.46,3.46,0,0,1-1.63,2.7L243.1,376.59c-.9.51-1.63.15-1.63-.83A3.49,3.49,0,0,1,243.1,373.06Z"/><path class="cls-21" d="M243.1,383.66l106.57-61.54c.9-.52,1.63-.15,1.63.82a3.49,3.49,0,0,1-1.63,2.7L243.1,387.19c-.9.51-1.63.15-1.63-.83A3.49,3.49,0,0,1,243.1,383.66Z"/><path class="cls-10" d="M244.07,249.48l7-4c1.44-.83,2.6-.16,2.6,1.5V255a5.75,5.75,0,0,1-2.6,4.51l-7,4c-1.44.83-2.6.16-2.6-1.5V254A5.73,5.73,0,0,1,244.07,249.48Z"/><path class="cls-20" d="M244.07,249.48l7-4c1.44-.83,2.6-.16,2.6,1.5V255a5.75,5.75,0,0,1-2.6,4.51l-7,4c-1.44.83-2.6.16-2.6-1.5V254A5.73,5.73,0,0,1,244.07,249.48Z"/><path class="cls-10" d="M263,242.06l42.3-24.43c1.8-1,3.26-.3,3.26,1.65a7,7,0,0,1-3.26,5.4L263,249.1c-1.8,1-3.25.3-3.25-1.64A7,7,0,0,1,263,242.06Z"/><path class="cls-14" d="M263,242.06l42.3-24.43c1.8-1,3.26-.3,3.26,1.65a7,7,0,0,1-3.26,5.4L263,249.1c-1.8,1-3.25.3-3.25-1.64A7,7,0,0,1,263,242.06Z"/><path class="cls-10" d="M244.07,327l7-4c1.44-.83,2.6-.16,2.6,1.5v8.08a5.75,5.75,0,0,1-2.6,4.51l-7,4c-1.44.83-2.6.16-2.6-1.5v-8.09A5.73,5.73,0,0,1,244.07,327Z"/><path class="cls-20" d="M244.07,327l7-4c1.44-.83,2.6-.16,2.6,1.5v8.08a5.75,5.75,0,0,1-2.6,4.51l-7,4c-1.44.83-2.6.16-2.6-1.5v-8.09A5.73,5.73,0,0,1,244.07,327Z"/><path class="cls-10" d="M263,319.56l42.3-24.43c1.8-1,3.26-.3,3.26,1.65a7,7,0,0,1-3.26,5.4L263,326.6c-1.8,1-3.25.3-3.25-1.64A7,7,0,0,1,263,319.56Z"/><path class="cls-14" d="M263,319.56l42.3-24.43c1.8-1,3.26-.3,3.26,1.65a7,7,0,0,1-3.26,5.4L263,326.6c-1.8,1-3.25.3-3.25-1.64A7,7,0,0,1,263,319.56Z"/><path class="cls-10" d="M254,395.21l7-4c1.44-.83,2.6-.15,2.6,1.5v8.09a5.73,5.73,0,0,1-2.6,4.5l-7,4c-1.44.83-2.6.16-2.6-1.5v-8.08A5.75,5.75,0,0,1,254,395.21Z"/><path class="cls-3" d="M243.1,422.67,272,406c.9-.52,1.63-.15,1.63.82a3.49,3.49,0,0,1-1.63,2.7L243.1,426.19c-.9.52-1.63.15-1.63-.82A3.49,3.49,0,0,1,243.1,422.67Z"/><path class="cls-10" d="M292.88,372.77l7-4c1.43-.83,2.6-.16,2.6,1.5v8.08a5.77,5.77,0,0,1-2.6,4.51l-7,4c-1.43.83-2.6.16-2.6-1.51v-8.08A5.76,5.76,0,0,1,292.88,372.77Z"/><path class="cls-3" d="M281.94,400.22l28.88-16.67c.91-.52,1.63-.15,1.63.82a3.45,3.45,0,0,1-1.63,2.7l-28.88,16.68c-.89.52-1.62.15-1.62-.83A3.51,3.51,0,0,1,281.94,400.22Z"/><path class="cls-10" d="M318,257.58l4.44-2.56c.91-.52,1.65-.1,1.65.95v5.13a3.63,3.63,0,0,1-1.65,2.85L318,266.51c-.91.53-1.65.1-1.65-.95v-5.12A3.66,3.66,0,0,1,318,257.58Z"/><path class="cls-20" d="M254,395.21l7-4c1.44-.83,2.6-.15,2.6,1.5v8.09a5.73,5.73,0,0,1-2.6,4.5l-7,4c-1.44.83-2.6.16-2.6-1.5v-8.08A5.75,5.75,0,0,1,254,395.21Z"/><path class="cls-20" d="M292.88,372.77l7-4c1.43-.83,2.6-.16,2.6,1.5v8.08a5.77,5.77,0,0,1-2.6,4.51l-7,4c-1.43.83-2.6.16-2.6-1.51v-8.08A5.76,5.76,0,0,1,292.88,372.77Z"/><path class="cls-20" d="M318,257.58l4.44-2.56c.91-.52,1.65-.1,1.65.95v5.13a3.63,3.63,0,0,1-1.65,2.85L318,266.51c-.91.53-1.65.1-1.65-.95v-5.12A3.66,3.66,0,0,1,318,257.58Z"/><path class="cls-3" d="M311,275l18.3-10.56c.57-.33,1-.1,1,.52a2.23,2.23,0,0,1-1,1.71L311,277.22c-.57.33-1,.09-1-.52A2.22,2.22,0,0,1,311,275Z"/><g class="cls-22"><path class="cls-23" d="M177.65,127.16c-16.85,9.5-30.51,33.15-30.51,52.84s13.66,27.74,30.51,18,30.5-33.39,30.5-52.84S194.49,117.65,177.65,127.16Z"/><path class="cls-1" d="M177.65,127.16c-16.85,9.5-30.51,33.15-30.51,52.84s13.66,27.74,30.51,18,30.5-33.39,30.5-52.84S194.49,117.65,177.65,127.16Z"/><path class="cls-1" d="M177.65,127.16c-16.85,9.5-30.51,33.15-30.51,52.84s13.66,27.74,30.51,18,30.5-33.39,30.5-52.84S194.49,117.65,177.65,127.16Z"/><path class="cls-4" d="M192.43,187.81,168,194.35a2.67,2.67,0,0,1-3.47-2.79V150c0-6.82,5.15-13.72,11.51-15.42l8.34-2.24c6.36-1.7,11.51,2.44,11.51,9.25v41.58A5,5,0,0,1,192.43,187.81Z"/><path class="cls-24" d="M193.6,198.56,191,187.22s0-15.31-2.19-16.72a28.09,28.09,0,0,0-2.8-1.68c2.79-1,8.68-1.7,10.55,3.69,1.76,5.07,4.39,17.59,5.63,23.75Z"/><path class="cls-10" d="M193.39,198.62,184.69,169c3.86-1.51,8.8-2.75,11.21,1.24,2.16,3.57,5.62,22.29,6.3,26.07Z"/><g class="cls-25"><path d="M193.39,198.62,184.69,169c3.86-1.51,8.8-2.75,11.21,1.24,2.16,3.57,5.62,22.29,6.3,26.07Z"/></g><path class="cls-10" d="M194.56,198.3,186,200.6c.57-3,1.43-5.66,2.4-7a13.9,13.9,0,0,1,7-5.28A50.82,50.82,0,0,0,194.56,198.3Z"/><path class="cls-10" d="M194.56,198.3,186,200.6c.57-3,1.43-5.66,2.4-7a13.9,13.9,0,0,1,7-5.28A50.82,50.82,0,0,0,194.56,198.3Z"/><g class="cls-26"><path d="M194.56,198.3,186,200.6c.57-3,1.43-5.66,2.4-7a13.9,13.9,0,0,1,7-5.28A50.82,50.82,0,0,0,194.56,198.3Z"/></g><path class="cls-10" d="M192.73,198.8l-24,6.41L166.11,197s7-16.42-1.65-20.63c1.1-.83,10.34-4.44,10.34-4.44l9.93-3c1.89-.51,9.54,2.88,11.47,10.4.69,2.68.45,5.05-3.43,18.9A2.75,2.75,0,0,0,192.73,198.8Z"/><path class="cls-27" d="M190.75,137.42c1.66.6,3.7,4.52,3.5,13.93-.17,8-2.57,10.59-3.78,11.47s-3.52,1.17-5.78,1.37V169s3.12,3.05,2.92,5.29-4.5,3.91-7.43,2.55S174.8,172,174.8,172l0-11s-1.32,1.74-3.58.23a4.27,4.27,0,0,1-1-6c1.45-2,4.13-2.25,5.16-.28,0,0,1.26-4.07,6.46-7.28C186.55,144.76,189.1,142.18,190.75,137.42Z"/><path class="cls-4" d="M186,151.57a1.38,1.38,0,0,1-.88,1.32.72.72,0,0,1-1-.72,1.37,1.37,0,0,1,.88-1.32A.73.73,0,0,1,186,151.57Z"/><path class="cls-24" d="M186.23,158.23l2.17.16A1.51,1.51,0,0,1,187,159.6C186.39,159.56,186.06,158.94,186.23,158.23Z"/><path class="cls-4" d="M193.62,146.47l-1.89-.9a1.28,1.28,0,0,1,1.57-.76A1.2,1.2,0,0,1,193.62,146.47Z"/><path class="cls-4" d="M183.28,150l1.88-1.9c-.34-.48-1-.45-1.56.08A1.49,1.49,0,0,0,183.28,150Z"/><path class="cls-4" d="M193.18,148.92a1.35,1.35,0,0,1-.88,1.32.73.73,0,0,1-1-.72,1.37,1.37,0,0,1,.89-1.32A.72.72,0,0,1,193.18,148.92Z"/><polygon class="cls-24" points="188.79 149.53 188.94 155.5 191.89 153.73 188.79 149.53"/><path class="cls-24" d="M184.69,164.19c-2.38.3-7.28.11-8-1.76a3.83,3.83,0,0,0,1.71,2.19c1.47.95,6.33,1.16,6.33,1.16Z"/><polygon class="cls-10" points="168.84 205.19 167.83 201.62 170.48 204.76 168.84 205.19"/><path class="cls-10" d="M166.86,205.73a104,104,0,0,0-4.39-15.12c-2.53-6.92.29-12.9,2-14.22S174.8,172,174.8,172c3.13,8.9,4,20.8,4,30.56Z"/><path class="cls-28" d="M166.86,205.73a104,104,0,0,0-4.39-15.12c-2.53-6.92.29-12.9,2-14.22S174.8,172,174.8,172c3.13,8.9,4,20.8,4,30.56Z"/><path class="cls-10" d="M162.6,206.87l-8.58,2.3a6.9,6.9,0,0,1-.68-.55s4.07-15.66,5.36-20.85,2.28-8.77,5.76-11.38c6.26,4.07,3.37,15.38,3.37,15.38Z"/><path class="cls-28" d="M162.6,206.87l-8.58,2.3a6.9,6.9,0,0,1-.68-.55s4.07-15.66,5.36-20.85,2.28-8.77,5.76-11.38c6.26,4.07,3.37,15.38,3.37,15.38Z"/><path class="cls-1" d="M177.65,127.16c-16.85,9.5-30.51,33.15-30.51,52.84s13.66,27.74,30.51,18,30.5-33.39,30.5-52.84S194.49,117.65,177.65,127.16Z"/><path class="cls-1" d="M177.65,127.16c-16.85,9.5-30.51,33.15-30.51,52.84s13.66,27.74,30.51,18,30.5-33.39,30.5-52.84S194.49,117.65,177.65,127.16Z"/></g></g></g></svg>