<svg xmlns="http://www.w3.org/2000/svg" viewBox="0 0 49.19 49.19"><defs><style>.cls-1{fill:#fff;}</style></defs><title>Recurso 2</title><g id="Capa_2" data-name="Capa 2"><g id="Día_en_Adalab_Presencial_Clases" data-name="Día en Adalab Presencial Clases"><g id="vdo_call" data-name="vdo call"><path class="cls-1" d="M46.73,0H2.46A2.46,2.46,0,0,0,0,2.46V46.73a2.47,2.47,0,0,0,2.46,2.46H46.73a2.48,2.48,0,0,0,2.46-2.46V2.46A2.47,2.47,0,0,0,46.73,0Zm.82,46.73a.82.82,0,0,1-.82.82H2.46a.82.82,0,0,1-.82-.82V8.2H47.55Zm0-40.17H1.64V2.46a.82.82,0,0,1,.82-.82H46.73a.82.82,0,0,1,.82.82Z"/><path class="cls-1" d="M3.28,3.28H4.92V4.92H3.28Z"/><path class="cls-1" d="M6.56,3.28H8.2V4.92H6.56Z"/><path class="cls-1" d="M9.84,3.28h1.64V4.92H9.84Z"/><path class="cls-1" d="M45.62,38.83a.8.8,0,0,0-.63-.3h-.72V16.4a.82.82,0,0,0-.82-.82H23v-.82A2.46,2.46,0,0,0,20.5,12.3H5.74a2.46,2.46,0,0,0-2.46,2.46v9.83a2.48,2.48,0,0,0,1.64,2.32V38.53H4.2a.8.8,0,0,0-.63.3.83.83,0,0,0-.17.69l.72,3.28a.81.81,0,0,0,.8.65H44.27a.81.81,0,0,0,.8-.65l.71-3.28a.79.79,0,0,0-.16-.69ZM23,24.59V17.22H42.63V38.53H37.71L36.07,37.3V35a5.73,5.73,0,0,0,2.39-3.89h.89A1.64,1.64,0,0,0,41,29.51v-.82a1.65,1.65,0,0,0-1.33-1.61L40.75,26a.87.87,0,0,0,.24-.59v-.82a5.73,5.73,0,0,0-5.74-5.73H30.33a5.74,5.74,0,0,0-5.74,5.73v.82a.92.92,0,0,0,.24.59l1.09,1.08a1.66,1.66,0,0,0-1.33,1.61v.82a1.65,1.65,0,0,0,1.64,1.64h.89A5.73,5.73,0,0,0,29.51,35V37.3l-1.64,1.23h-.82a.82.82,0,0,0-.82.82H23a.82.82,0,0,0-.82-.82H6.56V27.05h7.86l3,3a.82.82,0,0,0,.59.24.85.85,0,0,0,.31-.06.84.84,0,0,0,.51-.76V27.05H20.5A2.46,2.46,0,0,0,23,24.59ZM34.76,38.37l.22.16H30.6l.22-.16a.82.82,0,0,0,.33-.66V35.83a5.72,5.72,0,0,0,3.28,0v1.88a.82.82,0,0,0,.33.66Zm-2-3.94a4.1,4.1,0,0,1-4.1-4.1V25.92l2.56-1.28,5.64,1.41v4.28A4.1,4.1,0,0,1,32.79,34.43Zm-6.56-9.35v-.49a4.11,4.11,0,0,1,4.1-4.1h4.92a4.11,4.11,0,0,1,4.1,4.1v.49l-.82.82v-.49a.82.82,0,0,0-.62-.79L31.35,23a.81.81,0,0,0-.57.06L27.5,24.68a.83.83,0,0,0-.45.73v.49Zm.82,3.61v.82h-.82v-.82Zm12.3,0v.82h-.82v-.82ZM4.92,24.59V14.76a.82.82,0,0,1,.82-.82H20.5a.81.81,0,0,1,.81.82v9.83a.81.81,0,0,1-.81.82H18a.83.83,0,0,0-.83.82v1.31l-1.87-1.89a.86.86,0,0,0-.58-.24h-9A.82.82,0,0,1,4.92,24.59ZM43.61,41.81h-38l-.35-1.64H21.31a.82.82,0,0,0,.82.82h4.92a.82.82,0,0,0,.82-.82H44Z"/><path class="cls-1" d="M30.33,27.05H32v1.64H30.33Z"/><path class="cls-1" d="M33.61,27.05h1.64v1.64H33.61Z"/><path class="cls-1" d="M6.56,15.58H8.2v1.64H6.56Z"/><path class="cls-1" d="M9.84,15.58h9.83v1.64H9.84Z"/><path class="cls-1" d="M6.56,18.86H19.67v1.63H6.56Z"/><path class="cls-1" d="M6.56,22.13H19.67v1.64H6.56Z"/></g></g></g></svg>