<svg xmlns="http://www.w3.org/2000/svg" viewBox="0 0 55.28 55.28"><defs><style>.cls-1{fill:#fff;}</style></defs><title>Recurso 4</title><g id="Capa_2" data-name="Capa 2"><g id="Día_en_Adalab_Presencial_Clases" data-name="Día en Adalab Presencial Clases"><path class="cls-1" d="M44.22,29.48a3.66,3.66,0,0,0-2.76,1.27,3.64,3.64,0,0,0-5.53,0,3.68,3.68,0,0,0-2.76-1.27,3.74,3.74,0,0,0-1.85.51V27.13l.36-.1.27-.1c.28-.09.55-.18.82-.29l.22-.09c.31-.13.62-.27.92-.43l.05,0a13.77,13.77,0,0,0,3.48-2.54s0-.08.07-.11a13.85,13.85,0,0,0,4-9.63A13.81,13.81,0,0,0,27,0a13.8,13.8,0,0,0-9.17,23.47.25.25,0,0,1,0,.07l.2.18.14.13q.34.33.72.63l.22.18c.25.2.5.38.76.56l.19.13c.32.21.64.41,1,.59l.24.12.79.38.37.15.75.28.36.12.41.12v14l-3-3a4.17,4.17,0,0,0-7.13,3A4.11,4.11,0,0,0,15,44L24,52.9v1.46a.93.93,0,0,0,.93.92H46.07a.92.92,0,0,0,.92-.92V50.89l.82-1.65a1,1,0,0,0,.1-.41V33.16A3.69,3.69,0,0,0,44.22,29.48ZM18,20.89a12,12,0,0,1,9.06-19,11.94,11.94,0,0,1,10.23,19,10.17,10.17,0,0,0-5.51-6.17,5.45,5.45,0,0,0,1.4-3.65,5.53,5.53,0,1,0-9.66,3.66A10.21,10.21,0,0,0,18,20.89Zm13.33-9.83a3.66,3.66,0,0,1-1.84,3.17h0a3.89,3.89,0,0,1-.79.33l-.14,0c-.1,0-.2,0-.3.06a2.94,2.94,0,0,1-.51.05h-.16a2.84,2.84,0,0,1-.51-.05c-.1,0-.2,0-.3-.06l-.15,0a4.14,4.14,0,0,1-.79-.33h0a3.68,3.68,0,1,1,5.52-3.17ZM24,22.11v3.1a11.73,11.73,0,0,1-1.12-.43l-.31-.15c-.26-.12-.51-.25-.76-.39a4.05,4.05,0,0,1-.35-.21c-.24-.14-.47-.3-.7-.46l-.3-.21c-.3-.23-.59-.47-.86-.72a.6.6,0,0,1-.08-.08A8.3,8.3,0,0,1,25.24,16,5.51,5.51,0,0,0,30,16a8.29,8.29,0,0,1,5.76,6.51c-.12.12-.24.24-.37.35l-.08.07A13.77,13.77,0,0,1,34,24l-.07,0-.54.31-.52.27-.46.21c-.32.14-.65.27-1,.38l-.07,0v-3.1a3.69,3.69,0,0,0-7.37,0Zm22.12,26.5-.83,1.65a1,1,0,0,0-.1.41v2.76H25.8v-.92a.93.93,0,0,0-.27-.65l-9.18-9.18a2.33,2.33,0,1,1,3.3-3.3L24.22,44a.91.91,0,0,0,1,.2.93.93,0,0,0,.57-.85V22.11a1.84,1.84,0,0,1,3.68,0V38.69h1.84V33.17a1.85,1.85,0,1,1,3.69,0v5.52h1.84V33.17a1.85,1.85,0,1,1,3.69,0v5.52h1.84V33.17a1.85,1.85,0,1,1,3.69,0Z"/><path class="cls-1" d="M9.42,17.31a4.61,4.61,0,1,0-5.94,0A6.47,6.47,0,0,0,0,23V25.8a.92.92,0,0,0,.92.92H12a.92.92,0,0,0,.92-.92V23A6.47,6.47,0,0,0,9.42,17.31Zm-3-6.25a2.76,2.76,0,1,1-2.76,2.76A2.77,2.77,0,0,1,6.45,11.06Zm4.61,13.82H1.84V23a4.61,4.61,0,0,1,9.22,0Z"/><path class="cls-1" d="M51.8,16.39a4.61,4.61,0,1,0-5.94,0,6.45,6.45,0,0,0-3.48,5.72v2.77a.92.92,0,0,0,.92.92H54.36a.92.92,0,0,0,.92-.92V22.11A6.47,6.47,0,0,0,51.8,16.39Zm-3-6.26a2.77,2.77,0,1,1-2.76,2.77A2.77,2.77,0,0,1,48.83,10.13ZM53.44,24H44.22V22.11a4.61,4.61,0,0,1,9.22,0Z"/></g></g></svg>