<svg xmlns="http://www.w3.org/2000/svg" viewBox="0 0 22.16 22"><defs><style>.cls-1{fill:#2bc9b5;}</style></defs><title>Recurso 10+2</title><g id="Capa_2" data-name="Capa 2"><g id="Módulo_Búsqueda_de_empleo" data-name="Módulo Búsqueda de empleo"><path class="cls-1" d="M21.26,9.68a.86.86,0,0,1,.9.91v.57a.86.86,0,0,1-.9.91h-9v9a.91.91,0,0,1-.25.66.89.89,0,0,1-.66.25h-.62a.89.89,0,0,1-.66-.25.91.91,0,0,1-.24-.66v-9H.91A.86.86,0,0,1,0,11.16v-.57a.86.86,0,0,1,.91-.91H9.85V.91a.89.89,0,0,1,.24-.66A.89.89,0,0,1,10.75,0h.62A.89.89,0,0,1,12,.25a.9.9,0,0,1,.25.66V9.68Z"/></g></g></svg>