<svg xmlns="http://www.w3.org/2000/svg" viewBox="0 0 164.58 84.91"><defs><style>.cls-1{fill:none;stroke-width:0.88px;}.cls-1,.cls-2{stroke:#fff;}.cls-2,.cls-3{fill:#fff;}.cls-2{stroke-miterlimit:10;stroke-width:0.87px;}</style></defs><title>Recurso 5ECARE</title><g id="Capa_2" data-name="Capa 2"><g id="FINANCIACIÓN_Y_COSTES_PRINCIPAL" data-name="FINANCIACIÓN Y COSTES PRINCIPAL"><path id="Oval" class="cls-1" d="M42.45.44a42,42,0,1,1-42,42A42,42,0,0,1,42.45.44Z"/><path id="Shape" class="cls-1" d="M63.32,21.59A20.87,20.87,0,1,1,42.45.72,20.87,20.87,0,0,1,63.32,21.59Z"/><path id="Shape-2" data-name="Shape" class="cls-1" d="M63.32,63.32A20.87,20.87,0,1,1,42.45,42.45,20.87,20.87,0,0,1,63.32,63.32Z"/><path id="Shape-3" data-name="Shape" class="cls-1" d="M63.32,42.45A20.87,20.87,0,1,1,42.45,21.59,20.87,20.87,0,0,1,63.32,42.45Z"/><circle id="Oval-2" data-name="Oval" class="cls-1" cx="24.44" cy="31.94" r="20.87"/><path id="Oval-3" data-name="Oval" class="cls-1" d="M60.49,11.07A20.87,20.87,0,1,1,39.62,31.94,20.87,20.87,0,0,1,60.49,11.07Z"/><path id="Oval-4" data-name="Oval" class="cls-1" d="M24.44,31.94A20.87,20.87,0,1,1,3.57,52.81,20.87,20.87,0,0,1,24.44,31.94Z"/><path id="Oval-5" data-name="Oval" class="cls-1" d="M60.49,31.94A20.87,20.87,0,1,1,39.62,52.81,20.87,20.87,0,0,1,60.49,31.94Z"/><path id="Shape-4" data-name="Shape" class="cls-2" d="M101,25.57v.19a.09.09,0,0,1-.1.1H98.33v10a.09.09,0,0,1-.1.1H98a.1.1,0,0,1-.11-.1v-10H96.44a.09.09,0,0,1-.1-.1v-.19a.09.09,0,0,1,.1-.1h1.49v-1.2c0-2,1-3.05,2.75-3.05a.1.1,0,0,1,.11.11v.16a.1.1,0,0,1-.11.11c-1.49,0-2.35.93-2.35,2.67v1.2h2.52a.09.09,0,0,1,.1.1"/><path id="Shape-5" data-name="Shape" class="cls-2" d="M103.43,25.47a.1.1,0,0,1,.11.1v7.18c0,1.76.77,3,2.45,3s2.46-1.22,2.46-3V25.57a.1.1,0,0,1,.11-.1h.18a.1.1,0,0,1,.11.1v7.18c0,2-1,3.36-2.86,3.36s-2.85-1.39-2.85-3.36V25.57a.09.09,0,0,1,.1-.1Z"/><path id="Shape-6" data-name="Shape" class="cls-2" d="M111.83,35.86V28.68c0-2,1-3.36,2.86-3.36s2.85,1.38,2.85,3.36v7.18a.09.09,0,0,1-.1.1h-.19a.1.1,0,0,1-.11-.1V28.68c0-1.77-.77-3-2.45-3s-2.46,1.21-2.46,3v7.18a.09.09,0,0,1-.1.1h-.19a.1.1,0,0,1-.11-.1"/><path id="Shape-7" data-name="Shape" class="cls-2" d="M126.34,21.37V33a3,3,0,1,1-6,0V28.47a3.05,3.05,0,0,1,3-3.15,2.85,2.85,0,0,1,2.58,1.74V21.37a.1.1,0,0,1,.11-.11h.19a.11.11,0,0,1,.1.11Zm-.4,7.1a2.59,2.59,0,1,0-5.16,0V33a2.59,2.59,0,1,0,5.16,0Z"/><path id="Shape-8" data-name="Shape" class="cls-2" d="M129,32.86c0-1.83,1.13-2.94,3.32-2.94h2.22V28.49c0-1.76-.92-2.79-2.41-2.79A2.36,2.36,0,0,0,129.6,28a.1.1,0,0,1-.11.1h-.19a.09.09,0,0,1-.1-.1,2.72,2.72,0,0,1,3-2.67c1.74,0,2.81,1.17,2.81,3.17v4.37c0,2-1,3.25-2.81,3.25-2,0-3.13-1.17-3.13-3.25m5.54,0V30.29h-2.22c-1.93,0-2.92,1-2.92,2.57a2.55,2.55,0,0,0,2.73,2.87c1.55,0,2.41-1.11,2.41-2.87"/><path id="Shape-9" data-name="Shape" class="cls-2" d="M137.66,32.92V28.66c0-2,1.17-3.34,2.94-3.34A2.72,2.72,0,0,1,143.52,28a.1.1,0,0,1-.11.11h-.19a.1.1,0,0,1-.1-.11,2.35,2.35,0,0,0-2.52-2.28c-1.53,0-2.54,1.17-2.54,3v4.26a2.57,2.57,0,0,0,2.6,2.81,2.51,2.51,0,0,0,2.56-2.6.1.1,0,0,1,.11-.1h.19a.09.09,0,0,1,.1.1,2.88,2.88,0,0,1-3,3,2.92,2.92,0,0,1-3-3.19"/><path id="Shape-10" data-name="Shape" class="cls-2" d="M145.78,23.22a.47.47,0,1,1,.47.46.44.44,0,0,1-.47-.46M146,35.86V25.57a.1.1,0,0,1,.1-.11h.19a.11.11,0,0,1,.11.11V35.86a.1.1,0,0,1-.11.1h-.19a.09.09,0,0,1-.1-.1"/><path id="Shape-11" data-name="Shape" class="cls-2" d="M149.46,32.92V28.51a3,3,0,1,1,6,0v4.41a3,3,0,1,1-6,0m5.56,0V28.51a2.59,2.59,0,1,0-5.16,0v4.41a2.59,2.59,0,1,0,5.16,0m-1.3-10.81-1.43,2.05a.15.15,0,0,1-.12.07H152c-.08,0-.11,0-.06-.13L153.28,22a.14.14,0,0,1,.12-.06h.26c.08,0,.1.06.06.13"/><path id="Shape-12" data-name="Shape" class="cls-2" d="M158.26,35.86V28.68c0-2,1-3.36,2.85-3.36S164,26.7,164,28.68v7.18a.1.1,0,0,1-.11.1h-.19a.09.09,0,0,1-.1-.1V28.68c0-1.77-.78-3-2.46-3s-2.45,1.21-2.45,3v7.18a.1.1,0,0,1-.11.1h-.19a.09.09,0,0,1-.1-.1"/><path id="Shape-13" data-name="Shape" class="cls-3" d="M97.69,58.38V51.56A5.14,5.14,0,1,1,108,51.42a4.83,4.83,0,0,1-5.14,4.91H99.6v2.05a3.13,3.13,0,0,0,3.23,3.43c1.88,0,3.12-1.38,3.19-3.43a.3.3,0,0,1,.34-.34h1.24a.32.32,0,0,1,.33.34c-.1,3.16-2.15,5.28-5.1,5.28a4.92,4.92,0,0,1-5.14-5.28Zm5.14-3.9a3,3,0,0,0,3.22-3.06,3.07,3.07,0,0,0-3.22-3.32c-2.09,0-3.23,1.38-3.23,3.46v2.92Z"/><path id="Shape-14" data-name="Shape" class="cls-3" d="M112.91,57.91V45.28c0-3.46,2.18-5.78,5.47-5.78s5.38,2.48,5.48,6.21a.33.33,0,0,1-.34.34h-1.34a.31.31,0,0,1-.34-.34c-.1-2.79-1.44-4.33-3.46-4.33-2.18,0-3.46,1.44-3.46,3.9V57.91c0,2.45,1.28,3.9,3.46,3.9s3.56-1.69,3.63-4.51a.3.3,0,0,1,.34-.33h1.34c.2,0,.34.1.34.3-.1,3.86-2.35,6.42-5.65,6.42s-5.47-2.32-5.47-5.78"/><path id="Shape-15" data-name="Shape" class="cls-3" d="M128.29,58.45a4.84,4.84,0,0,1,5.11-4.84h3.26V51.42a3.07,3.07,0,0,0-3.16-3.36,3,3,0,0,0-3,3.1c0,.23-.14.33-.34.33H128.9a.32.32,0,0,1-.34-.33c.17-2.86,2.05-4.95,4.94-4.95a4.92,4.92,0,0,1,5.07,5.21v7a5.14,5.14,0,1,1-10.28,0m8.37,0v-3H133.4a3,3,0,0,0-3.19,3,3.1,3.1,0,0,0,3.26,3.36,3.07,3.07,0,0,0,3.19-3.36"/><path id="Shape-16" data-name="Shape" class="cls-3" d="M144,63V51.63a5,5,0,0,1,5.27-5.18h1.48a.32.32,0,0,1,.34.34V48a.33.33,0,0,1-.34.34h-1.48a3.13,3.13,0,0,0-3.36,3.32V63a.32.32,0,0,1-.33.34h-1.25A.31.31,0,0,1,144,63"/><path id="Shape-17" data-name="Shape" class="cls-3" d="M154.29,58.38V51.56a5.15,5.15,0,1,1,10.29-.14,4.83,4.83,0,0,1-5.14,4.91h-3.23v2.05a3.13,3.13,0,0,0,3.23,3.43c1.88,0,3.12-1.38,3.19-3.43A.3.3,0,0,1,163,58h1.25a.32.32,0,0,1,.33.34c-.1,3.16-2.15,5.28-5.1,5.28a4.93,4.93,0,0,1-5.15-5.28Zm5.15-3.9a3,3,0,0,0,3.22-3.06,3.07,3.07,0,0,0-3.22-3.32c-2.09,0-3.23,1.38-3.23,3.46v2.92Z"/></g></g></svg>