<svg xmlns="http://www.w3.org/2000/svg" viewBox="0 0 27.35 20.4"><defs><style>.cls-1{fill:#30c7b4;fill-rule:evenodd;}</style></defs><title>Recurso 1XYZ</title><g id="Capa_2" data-name="Capa 2"><g id="FINANCIACIÓN_Y_COSTES_PRINCIPAL" data-name="FINANCIACIÓN Y COSTES PRINCIPAL"><path class="cls-1" d="M27.35,3.21a2.48,2.48,0,0,1-1,1.77c-4.85,4.85-9.72,9.67-14.54,14.54-1.06,1.07-1.93,1.25-3.06.09C6.14,17,3.52,14.32.84,11.75c-1.4-1.34-.86-2.28.29-3.37S3.23,6.1,4.8,7.82C6.15,9.29,7.67,10.61,9,12.09c.89,1,1.48.95,2.4,0C15.05,8.37,18.76,4.7,22.46,1c.59-.59,1.27-1.45,2.18-.79A6.36,6.36,0,0,1,27.35,3.21Z"/></g></g></svg>