<svg xmlns="http://www.w3.org/2000/svg" viewBox="0 0 26.98 39.64"><defs><style>.cls-1{fill:#2ed9c3;}</style></defs><title>Recurso 4</title><g id="Capa_2" data-name="Capa 2"><g id="nombre_alumna" data-name="nombre alumna"><path class="cls-1" d="M2.1,9.84Q0,8.4,0,7V1.38a1.36,1.36,0,0,1,.39-1,1.36,1.36,0,0,1,1-.39A1.31,1.31,0,0,1,2.1.2l23,15.49a5.15,5.15,0,0,1,1.48,1.24A2.5,2.5,0,0,1,27,18.44V21.2a2.48,2.48,0,0,1-.43,1.51A5.32,5.32,0,0,1,25.07,24L2.1,39.45a1.39,1.39,0,0,1-.72.19,1.36,1.36,0,0,1-1-.39,1.33,1.33,0,0,1-.39-1V32.69c0-1,.7-1.93,2.1-2.89l14.83-10Z"/></g></g></svg>