<svg xmlns="http://www.w3.org/2000/svg" viewBox="0 0 319.76 97.36"><defs><style>.cls-1{fill:#fff}</style></defs><g id="Capa_2" data-name="Capa 2"><g id="Capa_1-2" data-name="Capa 1"><path id="Fill-1" class="cls-1" d="M5.4 94.41a3.71 3.71 0 001.37-.26 4 4 0 001.15-.72 3.5 3.5 0 00.79-1.07 3 3 0 00.29-1.3 3.09 3.09 0 00-.29-1.31 3.63 3.63 0 00-.79-1.07A3.79 3.79 0 006.77 88a3.52 3.52 0 00-1.37-.3H3v6.71zM0 97.25V84.86h5.4a7.15 7.15 0 011.74.22 6.86 6.86 0 011.58.63 6.67 6.67 0 011.33 1 6.46 6.46 0 011 1.25 6.36 6.36 0 01.66 1.48 5.68 5.68 0 01.29 1.62 5.56 5.56 0 01-.24 1.64 6.36 6.36 0 01-.66 1.48 5.91 5.91 0 01-1 1.25 6.67 6.67 0 01-1.33 1 6.42 6.42 0 01-1.63.57 6.7 6.7 0 01-1.74.23z"/><path id="Fill-3" class="cls-1" d="M23.01 97.25H26V84.86h-2.99v12.39z"/><path id="Fill-5" class="cls-1" d="M48.78 90.3v5.38a5.21 5.21 0 01-1.12.84 6.31 6.31 0 01-1.24.5 6.52 6.52 0 01-1.33.26 12.44 12.44 0 01-1.37.08 6.93 6.93 0 01-1.72-.23 6.71 6.71 0 01-3-1.62 6.07 6.07 0 01-1.05-1.27 6.21 6.21 0 01-.67-1.51 6 6 0 010-3.36 6.21 6.21 0 01.67-1.51A6.39 6.39 0 0139 86.58a6.63 6.63 0 011.36-1A7.53 7.53 0 0142 85a7.4 7.4 0 011.77-.22 6.46 6.46 0 011.45.17 7.75 7.75 0 011.4.49 7.67 7.67 0 011.31.78 8.8 8.8 0 011.19 1l-.76.75a1.94 1.94 0 01-1.43.56 2 2 0 01-1.1-.32 4.55 4.55 0 00-1-.46 3.55 3.55 0 00-1.09-.16 3.83 3.83 0 00-1.43.27 3.91 3.91 0 00-1.17.75 3.46 3.46 0 00-.81 1.11 3.23 3.23 0 000 2.74 3.39 3.39 0 00.84 1.1 4 4 0 001.21.73 3.91 3.91 0 001.44.26 6 6 0 001-.09 4.15 4.15 0 00.94-.29V93a2.53 2.53 0 01-.8-.14 2 2 0 01-.62-.35A1.58 1.58 0 0144 92a1.45 1.45 0 01-.15-.66v-1z"/><path id="Fill-6" class="cls-1" d="M60.24 97.25h2.99V84.86h-2.99v12.39z"/><path id="Fill-7" class="cls-1" d="M73.82 87.5v-2.65h10.24v2.65h-3.62v9.75h-2.98V87.5h-3.64z"/><path id="Fill-8" class="cls-1" d="M96.66 92.21h2.79l-1.14-2.6a2 2 0 01-.13-.33 2.27 2.27 0 01-.07-.28 1.32 1.32 0 010-.26v.27l-.08.28a2.56 2.56 0 01-.12.32zm.12-7.35h2.57l5.7 12.39h-1.93A2.33 2.33 0 01102 97a1.89 1.89 0 01-.74-.81l-.63-1.38h-5.2l-.61 1.38a1.8 1.8 0 01-.31.43 2.51 2.51 0 01-.44.35 2.08 2.08 0 01-.53.23 1.87 1.87 0 01-.56.09h-1.91z"/><path id="Fill-9" class="cls-1" d="M114.6 97.25V84.86h2.98v9.74h5.16v2.65h-8.14z"/><path id="Fill-10" class="cls-1" d="M150.8 87.57a3.57 3.57 0 00-.46 0 1.37 1.37 0 00-.39.13.89.89 0 00-.28.21.52.52 0 00-.11.32.59.59 0 00.15.43 1.38 1.38 0 00.44.27 7.45 7.45 0 00.74.23l1 .31a7.54 7.54 0 011.38.59 4.73 4.73 0 011.07.82 3.3 3.3 0 01.93 2.37 3.36 3.36 0 01-.4 1.65 4.15 4.15 0 01-1.07 1.29 5.17 5.17 0 01-1.54.83 5.6 5.6 0 01-1.82.3 5.08 5.08 0 01-1.52-.23 4.92 4.92 0 01-1.33-.62 4.85 4.85 0 01-1.06-1 4.28 4.28 0 01-.71-1.22l.94-.51a2.3 2.3 0 01.49-.2 1.93 1.93 0 01.53-.07 1.6 1.6 0 01.7.15c.21.11.42.22.62.34a6.08 6.08 0 00.62.33 1.53 1.53 0 00.72.16 2.16 2.16 0 00.6-.08 2.69 2.69 0 00.6-.24 1.44 1.44 0 00.46-.38.85.85 0 00.19-.54.67.67 0 00-.17-.46 1.5 1.5 0 00-.46-.32 4.18 4.18 0 00-.66-.24l-.78-.27c-.45-.16-.9-.34-1.33-.53a5.11 5.11 0 01-1.18-.7 3.33 3.33 0 01-.84-1 3.07 3.07 0 01-.32-1.49 3 3 0 01.36-1.49 3.35 3.35 0 01.95-1.1 4.31 4.31 0 011.35-.69 5.18 5.18 0 011.56-.24 3.41 3.41 0 011.14.19 5.15 5.15 0 011 .48 5.61 5.61 0 01.92.68 8.08 8.08 0 01.77.78l-.92.73a1.63 1.63 0 01-.57.32 2.18 2.18 0 01-.66.1 1.83 1.83 0 01-.45.04l-.41-.15a3.12 3.12 0 00-.39-.15 1.12 1.12 0 00-.42-.08"/><path id="Fill-11" class="cls-1" d="M168.08 91.05a3.25 3.25 0 00.3 1.35 3.45 3.45 0 00.82 1.11 3.6 3.6 0 001.18.75 3.85 3.85 0 004-.75 3.57 3.57 0 00.81-1.11 3.09 3.09 0 000-2.7 3.46 3.46 0 00-.81-1.11 4.15 4.15 0 00-1.19-.75 3.9 3.9 0 00-2.85 0 4 4 0 00-1.18.75 3.34 3.34 0 00-.82 1.11 3.25 3.25 0 00-.3 1.35m-3 0a6.25 6.25 0 01.23-1.68 5.9 5.9 0 01.69-1.51 6.34 6.34 0 011-1.28 6.63 6.63 0 011.36-1A7.75 7.75 0 01170 85a7.48 7.48 0 011.78-.22 7.33 7.33 0 011.77.22 7.62 7.62 0 011.61.64 6.31 6.31 0 011.35 1 6.81 6.81 0 011.06 1.28 6.21 6.21 0 01.67 1.51 6 6 0 010 3.36 6.21 6.21 0 01-.67 1.51 6.44 6.44 0 01-1.06 1.27 6.35 6.35 0 01-1.35 1 7.1 7.1 0 01-1.61.63 6.87 6.87 0 01-1.77.23 7 7 0 01-1.78-.23 7.2 7.2 0 01-1.6-.63 6.67 6.67 0 01-1.36-1 6 6 0 01-1-1.27 5.9 5.9 0 01-.69-1.51 6.25 6.25 0 01-.23-1.68"/><path id="Fill-12" class="cls-1" d="M189.22 97.25V84.86h2.98v9.74h5.16v2.65h-8.14z"/><path id="Fill-13" class="cls-1" d="M210.42 92.26a2.06 2.06 0 00.2.88 2.61 2.61 0 00.54.73 2.58 2.58 0 00.78.49 2.44 2.44 0 00.93.18 2.5 2.5 0 00.94-.18 2.86 2.86 0 00.78-.49 2.28 2.28 0 00.54-.73 1.92 1.92 0 00.2-.88v-7.4h3v7.4a4.62 4.62 0 01-.43 2 5.06 5.06 0 01-1.16 1.62 5.62 5.62 0 01-3.85 1.49 5.26 5.26 0 01-1.44-.18 5.18 5.18 0 01-1.29-.51 5.43 5.43 0 01-1.1-.8 4.94 4.94 0 01-1.41-2.25 4.71 4.71 0 01-.2-1.36v-7.4h3z"/><path id="Fill-14" class="cls-1" d="M228.32 87.5v-2.65h10.24v2.65h-3.62v9.75h-2.98V87.5h-3.64z"/><path id="Fill-15" class="cls-1" d="M249.19 97.25h2.99V84.86h-2.99v12.39z"/><path id="Fill-16" class="cls-1" d="M266.19 91.05a3.1 3.1 0 00.3 1.35 3.57 3.57 0 00.81 1.11 3.83 3.83 0 002.62 1 3.81 3.81 0 001.42-.27 3.76 3.76 0 001.19-.75 3.57 3.57 0 00.81-1.11 3.19 3.19 0 000-2.7 3.46 3.46 0 00-.81-1.11 4.15 4.15 0 00-1.19-.75 3.81 3.81 0 00-1.42-.27 3.75 3.75 0 00-1.43.27 4.15 4.15 0 00-1.19.75 3.46 3.46 0 00-.81 1.11 3.1 3.1 0 00-.3 1.35m-3 0a5.88 5.88 0 01.24-1.68 6.23 6.23 0 01.68-1.51 6.39 6.39 0 011.05-1.28 6.85 6.85 0 011.35-1 7.84 7.84 0 011.61-.64 7.27 7.27 0 013.55 0 7.84 7.84 0 011.61.64 6.56 6.56 0 011.35 1 6.39 6.39 0 011.05 1.28 6.23 6.23 0 01.68 1.51 6 6 0 010 3.36 6.23 6.23 0 01-.68 1.51 6.07 6.07 0 01-1.05 1.27 6.61 6.61 0 01-1.35 1 7.28 7.28 0 01-1.61.63 7 7 0 01-3.55 0 7.28 7.28 0 01-1.61-.63 6.89 6.89 0 01-1.35-1 6.07 6.07 0 01-1.05-1.27 6.23 6.23 0 01-.68-1.51 5.88 5.88 0 01-.24-1.68"/><path id="Fill-17" class="cls-1" d="M299.52 97.25h-3l-6.24-8.57v8.57h-3V84.86h2.93a2.37 2.37 0 01.78.12 1.12 1.12 0 01.52.37l4.56 6.35a1.11 1.11 0 01.17.3l.13.31a1 1 0 01.08.24.87.87 0 010 .13v-7.82h3z"/><path id="Fill-18" class="cls-1" d="M314.93 87.57a3.57 3.57 0 00-.47 0 1.37 1.37 0 00-.39.13.89.89 0 00-.28.21.51.51 0 00-.1.32.59.59 0 00.14.43 1.28 1.28 0 00.44.27 7.45 7.45 0 00.74.23l1 .31a7.85 7.85 0 011.38.59 4.67 4.67 0 011.06.82 3.65 3.65 0 01.69 1.06 3.47 3.47 0 01.24 1.31 3.36 3.36 0 01-.4 1.65 4 4 0 01-.98 1.33 5.17 5.17 0 01-1.54.83 5.54 5.54 0 01-1.81.3 5.27 5.27 0 01-2.86-.85 4.63 4.63 0 01-1.06-1 4.28 4.28 0 01-.71-1.22l.95-.51a2 2 0 01.48-.2 1.93 1.93 0 01.53-.07 1.57 1.57 0 01.7.15c.21.11.42.22.62.34a6.08 6.08 0 00.62.33 1.54 1.54 0 00.73.16 2.14 2.14 0 00.59-.08 2.69 2.69 0 00.6-.24 1.44 1.44 0 00.46-.38.79.79 0 00.19-.54.67.67 0 00-.17-.46 1.5 1.5 0 00-.46-.32 4.18 4.18 0 00-.66-.24l-.78-.27c-.45-.16-.89-.34-1.33-.53a5.11 5.11 0 01-1.18-.7 3.48 3.48 0 01-.84-1 3.07 3.07 0 01-.32-1.49 3 3 0 01.36-1.49 3.35 3.35 0 01.95-1.1 4.42 4.42 0 011.35-.69 5.2 5.2 0 011.57-.24 3.39 3.39 0 011.13.19 4.91 4.91 0 011 .48 5.61 5.61 0 01.92.68 7.18 7.18 0 01.78.78l-.92.73a1.83 1.83 0 01-.57.32 2.28 2.28 0 01-.66.1 1.85 1.85 0 01-.51-.07l-.41-.15a3.12 3.12 0 00-.39-.15 1.11 1.11 0 00-.41-.08"/><path id="Fill-19" class="cls-1" d="M80.08 22L90.2 45.46H70zM85 6.09h-9.81l-27.71 64h6.67a7.75 7.75 0 007.15-4.67l3.91-9.09h29.7l4 9.09a7.67 7.67 0 002.87 3.43 7.75 7.75 0 004.22 1.28h6.68z"/><path id="Fill-20" class="cls-1" d="M123.07 70.13h10.82V6.09h-10.82v64.04z"/><path id="Fill-21" class="cls-1" d="M156.89 17h12.31a7.91 7.91 0 013.19.65 8.6 8.6 0 012.63 1.8 8.77 8.77 0 011.78 2.64 8.45 8.45 0 010 6.45 8.77 8.77 0 01-1.8 2.64 8.25 8.25 0 01-2.6 1.82 8.09 8.09 0 01-3.2.64h-12.31zm19.66 26a18.89 18.89 0 003.77-2.12 19.5 19.5 0 004.21-4.15 18.8 18.8 0 002.75-5.3 19.24 19.24 0 001-6.13 18.92 18.92 0 00-1.5-7.5 19.29 19.29 0 00-4.07-6.1 19.6 19.6 0 00-6.05-4.1 18.67 18.67 0 00-7.46-1.5h-23.13v64h10.82V44.49h7.31l15.63 21.26a9.21 9.21 0 003.58 3.25 10.69 10.69 0 004.91 1.1h8.15z"/><path id="Fill-22" class="cls-1" d="M312.94 36.51a19.35 19.35 0 00-2.83-1.81c-.94-.49-1.92-1-2.92-1.39s-2-.81-3-1.18-2-.75-3-1.15c-2-.67-3.7-1.32-5.08-1.91a15.21 15.21 0 01-3.24-1.8 5.26 5.26 0 01-1.63-1.94 6.51 6.51 0 01-.51-2.74 4.84 4.84 0 01.66-2.47 6.92 6.92 0 011.88-2.06 9.8 9.8 0 012.84-1.41 11.64 11.64 0 013.49-.51 7.39 7.39 0 012.84.64 15.89 15.89 0 013.23 1.87 7.52 7.52 0 004.09 1.14 7 7 0 004.71-1.73l3-2.24-.63-.77a29.4 29.4 0 00-3-3.11 26.62 26.62 0 00-4.07-3 24.66 24.66 0 00-4.84-2.28 16.23 16.23 0 00-5.3-.91 22.78 22.78 0 00-7 1.12 19.69 19.69 0 00-6.14 3.28 16.82 16.82 0 00-4.49 5.27 15.42 15.42 0 00-1.66 7.21 15.92 15.92 0 001.54 7.37 15.39 15.39 0 004.05 5 24.69 24.69 0 005.59 3.38c2 .89 4.08 1.76 6.19 2.6 1.55.62 3 1.17 4.36 1.68a18.8 18.8 0 013.78 1.89 9.31 9.31 0 012.62 2.45 6.26 6.26 0 01.95 3.59 7.75 7.75 0 01-1 4 10 10 0 01-2.73 3 13.48 13.48 0 01-12 1.82 11.35 11.35 0 01-3.34-2l-.64-.52a7.19 7.19 0 00-5.34-2.27 5.57 5.57 0 00-3.37 1.2l-3 1.71.4.82a7.27 7.27 0 00.36.65l.31.55c.39.72.77 1.35 1.12 1.89.13.2.24.39.34.57a7.49 7.49 0 00.88 1.31 21.34 21.34 0 002.06 2.1 21 21 0 0014.41 5.18 24 24 0 008.27-1.45 22.37 22.37 0 007-4.1 19.54 19.54 0 004.84-6.3 18.33 18.33 0 001.81-8.13 16.93 16.93 0 00-6.82-14.11"/><path id="Fill-23" class="cls-1" d="M23.63 37.7c-.13-.17-.26-.32-.39-.47.13-.14.27-.31.41-.49L46.05 6.1H37.9A10.69 10.69 0 0033 7.19a9.2 9.2 0 00-3.58 3.3L12.31 33.86a8.37 8.37 0 01-1 1.13l-.06.06V6.1H.48v64H11.3V39.48l.08.08a7.76 7.76 0 01.94 1l18.5 25.14A9.25 9.25 0 0034.4 69a10.75 10.75 0 004.91 1.09h8.15z"/><path id="Fill-24" class="cls-1" d="M242.8 69.48c-14.53 2.84-23.8-4.77-23.8-4.77s6.88-6.62 7.73-7.89c6 3.55 14 2.1 14 2.1 8.69-2.07 12.22-7.39 12.22-7.39L263 55.85c-3.56 5.09-9.4 11.52-20.22 13.63zm-19.32-38.67l-5.32-3a21 21 0 0114.33-10.58 22.39 22.39 0 014.12-.41V23A15 15 0 01249 29.74l5.09-3.42a21.4 21.4 0 011.93 19.92l-5.65-2.36a15.21 15.21 0 01-8.1 8.14 15 15 0 01-16.26-3.27l-4.33 4.37a21.17 21.17 0 01-3.82-5.27l5.45-2.85a15.29 15.29 0 01.17-14.21zm-7.63 11.1L206.08 47a32.85 32.85 0 01.22-18.59s7.47 4.73 9.64 5.41a21.21 21.21 0 00-.09 8.09zm27-35.2a32.28 32.28 0 0116.26 8.77s-7.6 4.5-9.2 6.13a20.77 20.77 0 00-7.08-3.81zm23.13 43.64a32.22 32.22 0 00-2.92-30l5-3.4A38 38 0 00236.61 0v6.09a31.34 31.34 0 00-6.2.62 31.68 31.68 0 00-21.62 16l-5.35-3a38.58 38.58 0 00-.44 35.93l5.38-2.82a32 32 0 005.75 7.92l-4.27 4.31s10.39 11.44 26.72 11.15c15.93-.3 28.79-9 34.93-23.52z"/></g></g></svg>