<svg data-name="Layer 1" xmlns="http://www.w3.org/2000/svg" viewBox="0 0 1291.78 274.73"><path d="M741.51 168.66l76.82-75.07h-75.66V58.24h129.41v35.93l-76.83 74.81h78.29v35.35h-132zM686.93 10.2h40.02v36.34h-40.02zM686.39 58.68h40.02v146.06h-40.02zM202.35 131.27a75.7 75.7 0 110 .51zm112.46 0c0-20.74-16.36-38-36.8-38-20.74 0-36.52 17.24-36.52 38s15.78 38 36.52 38c20.44 0 36.81-17.26 36.81-38zM534.27 58.24h39.74V74.6c9.34-12 23.65-19.28 40.3-19.28 34.48 0 55.22 22.2 55.22 59.88v89.1h-40.58v-83.84c0-19.57-9.06-31-26.87-31-15.19 0-27.75 10.51-27.75 35v79.75h-40zM875.82 131.27c0-51.71 38-76 71-76 19 0 33.89 7 43.52 17.24V58.24h40V204.3h-40v-16.32c-9.63 11.39-25.12 19.28-44.1 19.28-30.97-.04-70.42-24.54-70.42-75.99zm115.67-.29c0-21.62-15.77-39.15-37.39-39.15-22.15 0-39.15 16.65-39.15 39.15s16.94 39.43 39.14 39.43c21.64 0 37.41-17.82 37.41-39.43zM1046.52 58.24h39.73V74.6c9.35-12 23.66-19.28 40.31-19.28 34.47 0 55.21 22.2 55.21 59.88v89.1h-40.61v-83.84c0-19.57-9-31-26.87-31-15.19 0-27.75 10.51-27.75 35v79.75h-40z" fill="#fff"/><path d="M741.51 204.3v-35.64l76.82-75.07h-75.66V58.24h129.41v35.93l-76.83 74.81M159.66 129.98l-.55 1.16c-11 23.29-31.37 36.65-55.75 36.65-35.35 0-63-27.94-63-63.6 0-36.57 27.46-64.14 63.88-64.14 23.6 0 41.53 11 53.3 32.86l.63 1.16 35.62-22.77-.6-1C174.69 18.81 141.43-.02 104.24-.02 44.81-.02 0 44.81 0 104.23c0 60.4 43.84 104.24 104.24 104.24 38.93 0 73.32-21.61 92-57.8l.56-1.09zM363.75 131.27c0-51.71 38-76 71-76 19 0 33.88 7.89 43.52 18.69V58.24h40v142c0 41.19-26 74.49-75.37 74.49-37.1 0-64.26-19.29-76-42.07l35.35-19.86c7.59 15.19 21 24.83 40.6 24.83 21.62 0 35.34-16.94 35.34-35.93v-13.72c-9.64 11.39-25.12 19.28-44.1 19.28-30.91-.04-70.34-24.54-70.34-75.99zm115.67-.29c0-21.62-15.77-39.15-37.39-39.15-22.2 0-39.14 16.65-39.14 39.15s16.94 39.43 39.14 39.43c21.62 0 37.39-17.82 37.39-39.43zM1280.33 94.17V58.24h-27.46V10.06h-40v48.18h-24.85v35.93h24.8v46.74c0 47.62 15.19 63.39 61.64 63.39h5.84v-37.39c-24.54 0-27.46-3.51-27.46-26.29V94.17zM1288.82 27.49a10.19 10.19 0 01-14.41 0 9.92 9.92 0 01-3-7.25 10.21 10.21 0 1117.42 7.25zm-13.44-13.45a8.49 8.49 0 00-2.56 6.22 8.65 8.65 0 002.54 6.26 8.75 8.75 0 0012.39.05v-.05a8.6 8.6 0 002.56-6.26 8.76 8.76 0 00-15-6.22zm6 .57a8.57 8.57 0 013.06.4 2.78 2.78 0 011.74 2.84 2.48 2.48 0 01-1.09 2.22 4.25 4.25 0 01-1.62.54 2.72 2.72 0 011.92 1.1 3 3 0 01.61 1.73v1.66a1.9 1.9 0 00.09.58l.07.14h-1.85v-1.48a2.74 2.74 0 00-1.06-2.57 4.73 4.73 0 00-2.2-.36h-1.56v4.41h-2V14.61zm2.13 1.76a5 5 0 00-2.39-.41h-1.69v4.02h1.79a5.21 5.21 0 001.88-.25 2 2 0 001-2.64 1.91 1.91 0 00-.59-.76z" fill="#fff"/></svg>