<svg xmlns="http://www.w3.org/2000/svg" viewBox="0 0 57.7 51.02"><defs><style>.cls-1{fill:#fff;}</style></defs><title>Recurso 3</title><g id="Capa_2" data-name="Capa 2"><g id="Día_en_Adalab_Presencial_Clases" data-name="Día en Adalab Presencial Clases"><path class="cls-1" d="M53.59,18.05l-.31-.3V14.5a5.87,5.87,0,0,0-5.86-5.86H37.15V5.7A5.7,5.7,0,0,0,31.45,0H21.83a5.7,5.7,0,0,0-5.7,5.7V8.64H5.86A5.87,5.87,0,0,0,0,14.5V40.57a5.87,5.87,0,0,0,5.86,5.86H18.08a.85.85,0,0,0,.85-.85.84.84,0,0,0-.85-.84H5.86a4.17,4.17,0,0,1-4.17-4.17v-17a9.93,9.93,0,0,0,7.5,4.36V31a3.19,3.19,0,1,0,6.37,0V27.91H29.68v0a13.92,13.92,0,0,0,2.47,7.94l-1.8,1.8a1.86,1.86,0,0,0-1.82.47l-6.89,6.89a3.5,3.5,0,0,0,4.95,5l6.89-6.89A1.86,1.86,0,0,0,34,41.29l1.8-1.8a14.05,14.05,0,0,0,15.84,0v1a4.17,4.17,0,0,1-4.17,4.17H34.07a.84.84,0,0,0-.84.84.85.85,0,0,0,.84.85H47.42a5.87,5.87,0,0,0,5.86-5.86V38.16l.31-.3a14,14,0,0,0,0-19.81ZM17.82,5.7a4,4,0,0,1,4-4h9.62a4,4,0,0,1,4,4V8.64H33.65V5.7a2.21,2.21,0,0,0-2.2-2.21H21.83A2.21,2.21,0,0,0,19.62,5.7V8.64h-1.8Zm3.49,2.94V5.7a.52.52,0,0,1,.52-.52h9.62A.51.51,0,0,1,32,5.7V8.64ZM13.87,28.36h-3V25.52a1.5,1.5,0,1,1,3,0Zm-1.5,4.1A1.5,1.5,0,0,1,10.88,31v-.91h3V31A1.5,1.5,0,0,1,12.37,32.46Zm3.19-6.24v-.7a3.19,3.19,0,1,0-6.37,0v.67A8.25,8.25,0,0,1,1.69,18V14.5a4.17,4.17,0,0,1,4.17-4.17H47.42a4.17,4.17,0,0,1,4.17,4.17v1.88a14,14,0,0,0-21.8,9.84ZM25.39,48.8a1.79,1.79,0,0,1-2.55,0,1.8,1.8,0,0,1,0-2.55l4.77-4.78L30.17,44Zm6.9-6.89-.93.92-2.55-2.55.92-.93a.16.16,0,0,1,.11-.05.17.17,0,0,1,.12.05h0l2.33,2.33a.17.17,0,0,1,0,.23Zm.63-2-1.21-1.21,1.49-1.48c.19.22.38.42.58.62s.42.4.63.59ZM35,36.66a12.31,12.31,0,1,1,17.41,0A12.23,12.23,0,0,1,35,36.66Z"/><path class="cls-1" d="M53,29.11a.85.85,0,0,0-1,.65,8.46,8.46,0,1,1,0-3.62.84.84,0,1,0,1.65-.36,10.08,10.08,0,1,0,0,4.34A.85.85,0,0,0,53,29.11Z"/></g></g></svg>