<svg xmlns="http://www.w3.org/2000/svg" viewBox="0 0 1566.32 634.98"><defs><style>.cls-1{fill:#fff}</style></defs><g id="Capa_2" data-name="Capa 2"><g id="Capa_1-2" data-name="Capa 1"><path class="cls-1" d="M1426.45 211.79c105.91-63 151.8-118.4 137.24-165.31C1549.12-.88 1479-12 1354.53 13c81.19-7.15 129.73 15.19 144.74 67.47q13.89 47.53-72.82 131.32zM1284.53 290c-6.87-11.58-4.72-25.31 6.43-41.62l69.5-55.35c18.45-16.3 17.6-36.47-3-59.64-16.73-7.29-31.75-7.29-46.34 0l-94.38 53.21c-21.88 12.44-36.9 26.6-45.91 42.9-10.3 15-9.44 35.62 2.14 60.93 21 36.91 48 77.24 80.67 120.14 11.15 21.89 13.72 40.77 6.85 56.21-23.59 36.9-68.64 67.79-136 91.39-25.31 9.87-41.61 20.6-48.91 31.76-8.15 17.59-4.72 31.32 9.87 40.33 6.86 2.14 16.73 2.14 30.46 0a594.52 594.52 0 00152.31-59.64 236.3 236.3 0 0087.1-101.7c8.15-32.17 9.43-58.35 3.43-78.94-5.15-15.88-15.87-30.47-30.89-44.2-24.46-23.59-38.62-42.05-43.33-55.78zM1067.62 191.32c14.58-6.87 23.59-12.88 26.17-18.45 6-5.15 7.29-15 4.29-29.18-.87-7.29-5.15-14.59-12.87-20.59-9-4.3-18.45-4.72-28.32-2.15-51.92 15.88-99.11 32.18-140.3 50.2-41.61 17.59-67.36 36.9-78.08 57.5-5.15 9.44-5.58 21-.43 35.61a12.77 12.77 0 00.85 3.86c7.3 20.6 36.05 62.64 86.67 126.15 14.59 24 9.87 52.78-13.73 85-23.16 32.56-60.87 61.31-112.87 86.2-14.17 11.15-21.88 21.45-22.75 31.75-3.42 15 .87 25.75 11.59 31.32 7.3 4.29 21.45 4.29 43.33 0 28.32-9 62.64-28.32 103.83-57.5 30.89-21.88 61.78-52.34 92.68-91a127.63 127.63 0 0019.3-67.37c.43-27-9.44-49.33-28.75-67.79l-47.62-45.48q-10.93-10.29-9-24.46c.86-14.16 9-27.88 24-42 16.79-12.02 44.25-25.75 82.01-41.62zM546.18 137.68c-14.16-21-31.75-31.75-51.91-32.18-23.6 3.44-39.9 14.16-49.34 32.18q-62.43 156.4-125.71 312.79c-7.29 10.3-14.59 12-21 3.87a2210.43 2210.43 0 01-184.94-259.16l-9.44-15.88C94.4 168.15 85.4 160 76 154q-31.53-11.6-59.2 11.58C-2.13 181-5.13 204.19 8.17 234.22Q183.22 547 305.92 632.4c23.17 6.87 42 0 56.2-20.16L390.87 538c7.29-23.17 27-35.62 58.78-38.19l110.69-4.72c15.45 4.72 27.46 18 35.18 39.47 7.72 20.6 21.45 44.2 41.62 70.8s42.47 33 66.5 19.31c15.44-13.73 19.74-30 13.73-49.34a4232.72 4232.72 0 01-171.19-437.65zm-97.39 269c-7.72-2.14-9.44-7.29-4.72-15.45l42.05-78.09c5.15-6 10.29-6 15.87 0l27 76.38c3 8.15 3 12.44 0 13.3-31.29-2.11-57.89-.82-80.2 3.89z"/></g></g></svg>