<?xml version="1.0" encoding="UTF-8"?>
<svg width="800px" height="217px" viewBox="0 0 800 217" version="1.1" xmlns="http://www.w3.org/2000/svg" xmlns:xlink="http://www.w3.org/1999/xlink">
    <title>Adtuo Logo Color</title>
    <g id="Adtuo-Logo-Color" stroke="none" stroke-width="1" fill="none" fill-rule="evenodd">
        <g id="Logo-Copy-2">
            <path d="M414.341145,23.0962889 L414.341145,66.5389413 L528.103618,66.5389413 L528.103618,146.938017 C528.103618,170.318611 540.491989,179.821691 556.961236,179.821691 C573.284737,179.821691 585.818853,170.318611 585.818853,146.938017 L585.818853,66.5389413 L623.712695,66.5389413 L623.712695,150.407395 C623.712695,196.565214 592.231657,216.476429 556.961236,216.476429 C521.545069,216.476429 490.064031,196.565214 490.064031,150.407395 L490.063141,101.534289 L414.341145,101.534411 L414.341145,154.932672 C414.341145,173.184619 423.66886,179.821691 435.474249,179.821691 C444.510473,179.821691 454.275424,175.145572 461.999938,170.318611 L475.99151,201.09049 C463.603139,209.839357 449.320076,216.476429 429.207191,216.476429 C394.22826,216.476429 376.301558,195.961843 376.301558,158.100365 L376.301558,101.534411 L349.047141,101.534411 L349.047141,66.5389413 L376.301558,66.5389413 L376.301558,23.0962889 L414.341145,23.0962889 Z M723.483589,62.6170352 C767.498744,62.6170352 800,95.5007096 800,139.546732 C800,183.592755 767.498744,216.476429 723.483589,216.476429 C679.614181,216.476429 647.25867,183.592755 647.25867,139.546732 C647.25867,95.5007096 679.614181,62.6170352 723.483589,62.6170352 Z M723.483589,99.2717732 C702.058995,99.2717732 686.026985,115.864453 686.026985,139.546732 C686.026985,163.229012 702.058995,179.821691 723.483589,179.821691 C744.908184,179.821691 761.08594,163.229012 761.08594,139.546732 C761.08594,115.864453 744.908184,99.2717732 723.483589,99.2717732 Z" id="Combined-Shape" fill="#827ED2"></path>
            <path d="M150.32077,69.6533286 L150.32077,212.952852 L112.51821,212.952852 L112.51821,197.129272 C103.178754,208.664218 89.243692,216.64995 69.5270624,216.64995 C29.9455578,216.64995 0,184.26337 0,141.229148 C0,98.1949261 29.9455578,65.8083465 69.5270624,65.8083465 C89.243692,65.8083465 103.030508,73.7940785 112.51821,85.4769085 L112.51821,69.6533286 L150.32077,69.6533286 Z M76.6428385,101.74414 C53.9613021,101.74414 39.5815046,119.342327 39.5815046,141.229148 C39.5815046,163.115969 53.9613021,180.714156 76.6428385,180.714156 C98.7313935,180.714156 113.704172,163.855389 113.704172,141.229148 C113.704172,118.602908 98.7313935,101.74414 76.6428385,101.74414 Z M244.983624,65.8083465 C264.255518,65.8083465 277.894089,73.3504267 287.233545,84.589605 L287.233545,0 L325.777332,0 L325.777332,212.952852 L287.974771,212.952852 L287.974771,197.129272 C278.635315,208.664218 264.700254,216.64995 244.983624,216.64995 C205.40212,216.64995 175.456562,184.26337 175.456562,141.229148 C175.456562,98.1949261 205.40212,65.8083465 244.983624,65.8083465 Z M252.0994,101.74414 C229.417864,101.74414 215.038066,119.342327 215.038066,141.229148 C215.038066,163.115969 229.417864,180.714156 252.0994,180.714156 C274.187955,180.714156 289.160734,163.855389 289.160734,141.229148 C289.160734,118.602908 274.187955,101.74414 252.0994,101.74414 Z" id="adtuo" fill="#5853C3"></path>
        </g>
    </g>
</svg>