<?xml version="1.0" encoding="utf-8"?>
<!-- Generator: Adobe Illustrator 24.2.1, SVG Export Plug-In . SVG Version: 6.00 Build 0)  -->
<svg version="1.1" id="logo" xmlns="http://www.w3.org/2000/svg" xmlns:xlink="http://www.w3.org/1999/xlink" x="0px" y="0px"
	 viewBox="0 0 170.23 63.86" style="enable-background:new 0 0 170.23 63.86;" xml:space="preserve">
<style type="text/css">
	.st0{fill:none;}
	.st1{fill:#8A8A8A;}
	.st2{fill-rule:evenodd;clip-rule:evenodd;fill:#FFA814;}
</style>
<g>
	<rect class="st0" width="170.23" height="63.86"/>
	<path class="st1" d="M25.75,38.25c-0.82-0.49-2.08-0.74-2.96-0.74c-2.7,0-4.71,1.79-4.71,4.53c0,2.57,1.61,4.61,4.3,4.61
		c1.46,0,2.06-0.37,3.19-0.74l1.09,2.66c-1.01,0.56-2.66,1.05-4.71,1.05c-4.8,0-7.7-3.05-7.7-7.66c0-4.45,2.98-7.41,8.17-7.41
		c1.94,0,3.52,0.43,4.47,1.03L25.75,38.25z"/>
	<path class="st1" d="M32.41,37.68h1.5c1.48,0,2.2,0.51,2.2,1.69c0,1.44-1.24,1.69-2.12,1.69h-1.67L32.41,37.68z M32.47,43.77h0.56
		c0.82,0,1.17,0.62,1.6,1.48l2.04,3.95h4.18l-2.49-4.45c-0.51-0.93-1.13-1.81-1.96-2.06v-0.04c2.04-0.08,3.48-1.65,3.42-3.68
		c0-3.23-2.49-4.01-5.45-4.01h-5.6L28.64,49.2h3.74L32.47,43.77z"/>
	<path class="st1" d="M42.45,34.96h9.84v2.96h-6.11l-0.04,2.74h6.09v2.84h-6.11l-0.04,2.74h6.09v2.96h-9.84L42.45,34.96z"/>
	<path class="st1" d="M60.39,38.17h0.04l1.46,4.92h-3.05L60.39,38.17z M52.92,49.2h3.81l1.11-3.27h4.92l1.09,3.27h4.03l-5.21-14.24
		h-4.24L52.92,49.2z"/>
	<path class="st1" d="M69.12,34.96h3.71l-0.12,11.16h6.42l-0.06,3.09H69.01L69.12,34.96z"/>
	<path class="st1" d="M82.88,42.08c0-3.13,1.73-4.57,3.85-4.57c2.14,0,3.87,1.44,3.87,4.57s-1.73,4.57-3.87,4.57
		C84.61,46.65,82.88,45.21,82.88,42.08z M79.05,42.08c0,4.14,2.84,7.53,7.7,7.53c4.84,0,7.68-3.4,7.68-7.53
		c0-4.14-2.84-7.53-7.68-7.53C81.89,34.55,79.05,37.94,79.05,42.08z"/>
	<path class="st1" d="M121.43,41.79l-3.95-6.83h4.18l2.16,4.38l2.51-4.38h4.01l-4.26,6.88l4.4,7.37h-4.34l-2.51-4.76l-2.43,4.76
		h-4.26L121.43,41.79z"/>
	<path class="st1" d="M105.35,43.35l-0.06,2.98c-0.25,0.16-0.78,0.35-1.44,0.33c-2.7,0-4.3-2.04-4.3-4.61
		c0-2.74,2.02-4.37,4.71-4.53c1.22-0.07,2.86,0.38,4.67,1.39l0.05-3.05c-1.57-0.87-3.15-1.31-5.09-1.31c-5.19,0-8.17,2.96-8.17,7.41
		c0,4.61,2.9,7.66,7.7,7.66c1.89,0,3.73-0.23,5.45-1.01l0.08-6.23L105.35,43.35z"/>
	<polygon class="st1" points="111.89,41.59 111.84,49.2 115.55,49.2 115.59,40.6 	"/>
	<polygon class="st1" points="111.92,34.96 111.9,38.9 115.6,37.91 115.61,34.96 	"/>
	<path class="st2" d="M143.14,21.9c0,0-7.1-7-8.86-7.54c-1.38-0.43-2.67,0.48-1.46,1.83c1.75,1.96,3.74,5.02,4.73,7.3
		c0.35,0.81,0.51,1.61-0.77,1.61c-1.29,0-7.73-0.06-9.41,0.28c-1.01,0.21-1.93,1.4-0.45,2c2.29,0.93,8.36,2.3,9.65,2.4
		c0.59,0.05,1.2,0.06,1.2,1.6c0,2.34-1.69,8.22-1.85,9.41c-0.16,1.23,0.85,3.23,2.49,0.84c1.71-2.49,3.29-6.81,4.98-8.87
		c0.56-0.68,1.29-0.89,1.79-0.39c1,1,4.81,4.55,8.23,5.62c2.26,0.71,2.45-0.49,1.89-1.05c-2.9-2.86-6.34-6.83-7.25-8.98
		c-0.36-0.85-0.3-1.34,0.58-2.47c0.33-0.42,5.22-5.96,6.59-7.03c1.1-0.86,1.2-3.16-0.84-2.33c-2.27,0.92-7.85,5.45-9.29,5.86
		C144.21,22.23,143.94,22.7,143.14,21.9z"/>
</g>
</svg>
