<svg id="Capa_1" data-name="Capa 1" xmlns="http://www.w3.org/2000/svg" viewBox="0 0 520.31 113.38"><defs><style>.cls-1{fill:#1d1d1b;}</style></defs><title>Logo neozink</title><path class="cls-1" d="M170.36,289.43c0-2.36-1.25-3.47-3.46-3.47h-6.49V272.89h14.67c6.76,0,10.08,3,10.08,8.82v3a35.54,35.54,0,0,1-.3,4.59h.3c3.17-6.93,12.61-18.28,30-18.28,18.9,0,27.4,10.25,27.4,30.57v34.52c0,2.36,1.27,3.47,3.48,3.47h6.47v13.07H237.35c-7.12,0-10.1-3-10.1-10.09V305c0-11.19-2.21-20-15-20-12.29,0-22.05,8.05-25.22,19.54a32.88,32.88,0,0,0-1.4,10.73v37.35H170.36Z" transform="translate(-160.41 -241.15)"/><path class="cls-1" d="M290.61,271C313,271,325,287.69,325,308.35c0,2-.46,6.3-.46,6.3H266.35c.92,17,13.23,26.65,27.41,26.65,13.71,0,23.34-9.31,23.34-9.31l6.63,10.86A46.73,46.73,0,0,1,293,354.53c-25.21,0-42.39-18.14-42.39-41.78,0-25.36,17.35-41.75,40-41.75m18.6,32.46c-.47-13.25-8.82-20.32-18.73-20.32-11.67,0-21.13,7.07-23.51,20.32Z" transform="translate(-160.41 -241.15)"/><path class="cls-1" d="M374.13,271c23.8,0,43,17.49,43,41.6s-19.21,41.93-43,41.93-42.87-17.67-42.87-41.93S350.33,271,374.13,271m0,70.3c15.12,0,27.43-12,27.43-28.7,0-16.54-12.31-28.36-27.43-28.36-15,0-27.25,11.82-27.25,28.36,0,16.71,12.29,28.7,27.25,28.7" transform="translate(-160.41 -241.15)"/><path class="cls-1" d="M512.22,339.56c-2.22,0-3.47-1.11-3.47-3.47V283c0-7.1-3-10.08-10.1-10.08H426.3c-7.07,0-10.07,3-10.07,10.08v11.82h14v-5.36A3.16,3.16,0,0,1,433.7,286h21.75a71.62,71.62,0,0,0,7.74-.31V286s-3.14,3.15-6.63,7.42l-40.82,50.41v8.84h60.53c7.08,0,10.09-3,10.09-10.09V330.72H472.5v5.37a3.18,3.18,0,0,1-3.48,3.47H443.48a72.94,72.94,0,0,0-7.71.3v-.3s3.31-3.32,6.61-7.25L479.9,286h10.25c2.21,0,3.46,1.11,3.46,3.47v53.11c0,7.1,3,10.09,10.08,10.09h15V339.56Z" transform="translate(-160.41 -241.15)"/><path class="cls-1" d="M675.83,339.56c-4,0-5.51-.64-6.78-3.17l-11.82-21.58c-2.68-5.05-5.4-6-5.4-6v-.32s2.4-1.11,6-6l21.59-29.62h-17.5l-18.42,25.83c-2,2.7-5.53,3.47-8.38,3.47h-7.06V250.51c0-7.09-3-9.17-10.1-9.17H602.85v13.1h6.46c2.23,0,3.46,1.1,3.46,3.48v81.64H601.12c-2.23,0-3.48-1.11-3.48-3.47V301.57c0-20.32-8.51-30.57-27.45-30.57-17.3,0-26.77,11.35-29.93,18.28h-.32a33.36,33.36,0,0,0,.32-4.59v-3c0-5.84-3.3-8.82-10.08-8.82H515.51V286H522c2.21,0,3.46,1.11,3.46,3.47v63.2h15.29V315.28a32.6,32.6,0,0,1,1.42-10.73C545.3,293.06,555.07,285,567.38,285c12.74,0,15,8.84,15,20v37.5c0,7.1,3,10.09,10.08,10.09h35.65V315.11h6c2.53,0,6.16.32,7.88,3.32l14.5,26.79c3.47,6.16,5.83,7.41,13.22,7.41h11.06V339.56Z" transform="translate(-160.41 -241.15)"/><path class="cls-1" d="M508.68,250a8.83,8.83,0,1,1-8.82-8.84,8.82,8.82,0,0,1,8.82,8.84" transform="translate(-160.41 -241.15)"/></svg>