<?xml version="1.0" encoding="utf-8"?>
<!-- Generator: Adobe Illustrator 22.1.0, SVG Export Plug-In . SVG Version: 6.00 Build 0)  -->
<svg version="1.1" id="Capa_1" xmlns="http://www.w3.org/2000/svg" xmlns:xlink="http://www.w3.org/1999/xlink" x="0px" y="0px"
	 viewBox="0 0 1563.2 390.8" style="enable-background:new 0 0 1563.2 390.8;" xml:space="preserve">
<style type="text/css">
	.st0{fill:#065C2E;}
</style>
<g>
	<g>
		<path class="st0" d="M226.3,69.8v90.2c0,27.3-4.2,38.4-17.8,46.2c-12.1,7.1-24.1,8.4-74.1,8.4c-48.9,0-63.7-3-74.1-14.8
			c-7.2-8.4-9.3-18.3-9.3-44.7V69.8h32.6v74.9c0,19.1,0,19.1,1.1,25.1c2.3,15.2,10.6,18,52.9,18c19,0,36.6-0.9,41.5-2.1
			c8.3-2.1,12.7-7.3,14-16.3c0.4-2.6,0.4-2.6,0.6-22.5V69.8H226.3z"/>
		<path class="st0" d="M1086.4,69.8v90.2c0,27.3-4.2,38.4-17.8,46.2c-12.1,7.1-24.1,8.4-74.1,8.4c-48.9,0-63.7-3-74.1-14.8
			c-7.2-8.4-9.3-18.3-9.3-44.7V69.8h32.6v74.9c0,19.1,0,19.1,1.1,25.1c2.3,15.2,10.6,18,52.9,18c19,0,36.6-0.9,41.5-2.1
			c8.3-2.1,12.7-7.3,14-16.3c0.4-2.6,0.4-2.6,0.6-22.5V69.8H1086.4z"/>
		<path class="st0" d="M481.1,69.8h121.6c25.2,0,36.6,3,44.3,11.4c6.2,6.9,9.3,18,9.3,34.4c0,15.7-1.9,24.5-6.2,29.8
			c-4.3,5.4-9.5,7.9-18.1,9.4c18.1,1.5,22.2,7.1,21.9,29.8V213h-33.3v-21.5c-0.4-19.5-4.9-23.4-26.7-23.2H514V213h-32.9V69.8z
			 M592.8,141.9c24.1,0,30.1-4.3,30.1-21.5c0-19.8-4.9-23.8-29.5-23.8H514v45.3H592.8z"/>
		<path class="st0" d="M868,82.7c6,6.7,9.2,15.9,10.5,30.3c0.6,6.7,0.9,14.4,0.9,30.3c0,35.9-3.4,49.6-14.4,59.3
			c-7.9,6.9-18.7,10.3-36.7,11.4c-6.9,0.4-32.9,0.9-52.8,0.9c-43.8,0-55.6-1.3-67.9-7.9c-9.4-5.2-15.7-15-17.6-29.2
			c-1.3-9.4-1.7-17.2-1.7-40.6c0-33.5,3.2-46.8,13.5-55.8c7.7-6.9,17.8-10.1,36.3-11.6c7.3-0.6,28.8-1.1,55-1.1
			C843.8,68.5,857.3,71.1,868,82.7z M722,141.7c0,27.9,2.1,36.9,10.1,41c7.9,4.3,14.8,4.9,55.8,4.9c36.9,0,46.2-1.5,52-7.9
			c4.9-5.4,6.4-14.6,6.4-38.9c0-44.9-0.4-45.3-62.3-45.3C722.9,95.5,722,96.2,722,141.7z"/>
		<path class="st0" d="M1118.3,69.8h51.7l108.3,119.2l-0.6-119.2h31.8V213h-51.9L1149.8,94.5l0.6,118.5h-32.2V69.8z"/>
		<path class="st0" d="M1514.7,85.4c-9.7-10.5-27.3-15.7-54.5-15.7h-119v27.1h115.1c30.9,0,37.1,7.9,37.1,47.7
			c0,22.1-3.4,33.1-11.8,37.6c-5.8,3.2-13.7,4.7-25.3,4.7l-115.1,0V213h122.4c24,0,39.3-3.9,48.3-12.2c11-10.1,15-25.8,15-57.8
			C1526.9,111.4,1523.5,95.3,1514.7,85.4z"/>
		<path class="st0" d="M385.6,137v21.5h30.3c0,9.8-1.1,16.6-4,20.2c-6.7,9.2-11.4,10-55.6,10c-40.4,0-48.9-1.1-55.4-6.6
			c-6.3-5.1-8-14.7-8-42.4c0-22.1,1.6-31.5,6.3-36.6c5.8-6.6,14.1-7.4,67.9-7.4c15,0,66.4,0,66.4,0s0-18,0-26c-15.3,0-19.2,0-62.8,0
			c-43.8,0-59.6,0.6-73.5,2.6c-11.8,1.5-20.6,5.3-26.8,11.7c-9.6,10-12.1,21.9-12.1,59.4c0,20.2,0.7,29.6,2.5,37.7
			c3.1,15.1,10.5,23.4,24.8,28.5c9.2,3.4,28.4,4.7,67.9,4.7c44.9,0,57.6-0.4,65.7-2.3c11.6-2.8,19-7.4,23.5-15.1
			c5.4-9.4,6.9-18.7,6.9-44.7V137H385.6z"/>
	</g>
	<g>
		<path d="M309.6,283.1h-7.4c0-5.3-0.9-8.7-2.7-10.1c-1.8-1.4-5.9-2.1-12.5-2.1c-7.8,0-12.8,0.7-15.1,2.1c-2.3,1.4-3.4,4.4-3.4,9.1
			c0,5.3,0.9,8.5,2.7,9.7c1.8,1.2,7,1.9,15.8,2.4c10.3,0.5,16.8,1.8,19.6,3.9c2.8,2.2,4.2,7,4.2,14.5c0,8.1-1.6,13.3-4.8,15.7
			c-3.2,2.4-10.3,3.6-21.2,3.6c-9.5,0-15.8-1.2-18.9-3.6c-3.1-2.4-4.7-7.2-4.7-14.5l0-2.9h7.4v1.6c0,5.9,0.9,9.5,2.7,11
			c1.8,1.4,6.4,2.1,13.8,2.1c8.5,0,13.8-0.7,15.7-2.1c2-1.4,2.9-5.3,2.9-11.5c0-4-0.7-6.7-2-8c-1.3-1.3-4.1-2.1-8.4-2.4l-7.7-0.4
			l-7.3-0.4c-11.2-0.8-16.7-6.6-16.7-17.4c0-7.5,1.6-12.5,4.9-15c3.2-2.5,9.7-3.8,19.4-3.8c9.8,0,16.3,1.2,19.3,3.5
			C308.1,270.4,309.6,275.4,309.6,283.1z"/>
		<path d="M324.5,271.5v22.4H358v6.3h-33.4v24.6h34.9v6.3h-42.3v-65.9h42.3v6.3H324.5z"/>
		<path d="M441.3,265.2v65.9h-7.4v-52.7v-4l0-2l0-2h-0.2l-0.6,1.5c-0.3,0.8-0.5,1.3-0.6,1.5l-1.3,3.1l-22.4,54.5h-7.4L379,277.2
			l-1.3-3l-0.6-1.5c-0.2-0.4-0.4-0.9-0.6-1.5h-0.2l0,1.8l0,1.8v3.6v52.7H369v-65.9h12.9l17.6,42.6l2.8,6.9l1.4,3.4l1.4,3.4h0.2
			l1.4-3.4c0.7-1.6,1.1-2.8,1.4-3.4l2.8-6.9l17.5-42.7H441.3z"/>
		<path d="M494.2,317.1h-33.3l-5.1,13.9H448l24.1-65.9h10.4l24.6,65.9h-7.8L494.2,317.1z M492.1,311.5l-14.6-40.2L463,311.5H492.1z"
			/>
		<path d="M570.1,265.2v65.9h-12.2l-27.6-44.8l-4.5-7.4l-2.2-3.7l-2.2-3.7h-0.2l0,2.5l0,2.5v4.9v49.7h-7.4v-65.9H526l24.1,39.3
			l6.3,10.3l3.1,5.1l3.1,5.2h0.2l0-2.5l0-2.5v-4.9v-50H570.1z"/>
		<path d="M605.7,272.1v59h-7.4v-59h-21.5v-6.9h50.2v6.9H605.7z"/>
		<path d="M641,265.2v65.9h-7.4v-65.9H641z"/>
		<path d="M696.9,309.1h7.4v2.5c0,9-1.5,14.6-4.6,16.8c-3.1,2.2-10.7,3.4-23.1,3.4c-11,0-18-2-21-5.9c-3-3.9-4.5-13.2-4.5-27.8
			c0-11.4,0.3-18.6,1-21.5c0.7-2.9,2.6-5.6,5.8-7.9c3.7-2.7,11.8-4.1,24.2-4.1c8.4,0,14,1.3,17,3.9c2.9,2.6,4.4,7.6,4.4,15.1l0,1.8
			H696l0-2c0-5.3-0.9-8.7-2.6-10.2c-1.7-1.5-5.6-2.3-11.7-2.3c-10.6,0-17.1,0.9-19.4,2.7c-2.3,1.8-3.5,6.7-3.5,14.7
			c0,18.5,0.8,29.3,2.4,32.5c1.6,3.2,7,4.8,16.2,4.8c8.7,0,14.2-0.7,16.4-2.1c2.2-1.4,3.3-4.9,3.3-10.4L696.9,309.1z"/>
		<path d="M742.1,271.5v22.4h33.4v6.3h-33.4v24.6H777v6.3h-42.3v-65.9H777v6.3H742.1z"/>
		<path d="M842.8,265.2v65.9h-12.2L803,286.2l-4.5-7.4l-2.2-3.7l-2.2-3.7h-0.2l0,2.5l0,2.5v4.9v49.7h-7.4v-65.9h12.2l24.1,39.3
			l6.3,10.3l3.1,5.1l3.1,5.2h0.2l0-2.5l0-2.5v-4.9v-50H842.8z"/>
		<path d="M878.9,298.3h28.2c0.1,1.7,0.2,4.1,0.2,7.2c0,11.9-1.5,19.2-4.4,22c-2.9,2.8-10.5,4.2-22.8,4.2c-11.6,0-19.1-1.7-22.4-5
			c-3.3-3.3-5-10.8-5-22.4l0-9.7l0-5.8c0-9.7,1.8-16.2,5.5-19.4c3.7-3.2,11.1-4.8,22.3-4.8c11.2,0,18.4,1.1,21.7,3.2
			c3.2,2.1,4.9,6.8,4.9,14.1v2.5h-7.3v-1.6c0-5.4-1.1-8.7-3.3-10c-2.2-1.3-8-1.9-17.2-1.9c-8.6,0-14,1-16.1,3.1
			c-2.2,2-3.2,7.2-3.2,15.3l-0.1,8.7l0,9.4c0,8.3,1.2,13.4,3.6,15.3c2.4,1.9,8.8,2.8,19.2,2.8c7.9,0,12.9-0.9,14.7-2.7
			c1.9-1.8,2.8-6.5,2.8-14.1c0-0.6-0.1-2-0.4-4.1h-20.9V298.3z"/>
		<path d="M924,265.2v65.9h-7.4v-65.9H924z"/>
		<path d="M992.9,265.2v65.9h-12.2l-27.6-44.8l-4.5-7.4l-2.2-3.7l-2.2-3.7H944l0,2.5l0,2.5v4.9v49.7h-7.4v-65.9h12.2l24.1,39.3
			l6.3,10.3l3.1,5.1l3.1,5.2h0.2l0-2.5l0-2.5v-4.9v-50H992.9z"/>
		<path d="M1010.2,271.5v22.4h33.4v6.3h-33.4v24.6h34.9v6.3h-42.3v-65.9h42.3v6.3H1010.2z"/>
		<path d="M1059.5,271.5v22.4h33.4v6.3h-33.4v24.6h34.9v6.3H1052v-65.9h42.3v6.3H1059.5z"/>
		<path d="M1103.9,331.1v-65.9h31.4c7.1,0,12.1,1.4,15,4.2c2.9,2.8,4.3,7.7,4.3,14.6c0,6.1-0.8,10.3-2.4,12.7
			c-1.6,2.4-4.6,3.9-9,4.7v0.1c7,0.5,10.5,4.8,10.5,12.7v16.8h-7.4v-15.2c0-7.7-3.3-11.5-10-11.5h-2.5h-22.4v26.7H1103.9z
			 M1111.3,298.1h21.5c5.7,0,9.5-0.9,11.6-2.6c2.1-1.7,3.1-5,3.1-9.7c0-6-0.8-9.8-2.3-11.6c-1.5-1.8-4.8-2.7-9.8-2.7h-24V298.1z"/>
		<path d="M1172.9,265.2v65.9h-7.4v-65.9H1172.9z"/>
		<path d="M1241.9,265.2v65.9h-12.2l-27.6-44.8l-4.5-7.4l-2.2-3.7l-2.2-3.7h-0.2l0,2.5l0,2.5v4.9v49.7h-7.4v-65.9h12.2l24.1,39.3
			l6.3,10.3l3.1,5.1l3.1,5.2h0.2l0-2.5l0-2.5v-4.9v-50H1241.9z"/>
		<path d="M1277.9,298.3h28.2c0.1,1.7,0.2,4.1,0.2,7.2c0,11.9-1.5,19.2-4.4,22c-2.9,2.8-10.5,4.2-22.8,4.2c-11.6,0-19.1-1.7-22.4-5
			c-3.3-3.3-5-10.8-5-22.4l0-9.7l0-5.8c0-9.7,1.8-16.2,5.5-19.4c3.7-3.2,11.1-4.8,22.3-4.8c11.2,0,18.4,1.1,21.7,3.2
			c3.2,2.1,4.9,6.8,4.9,14.1v2.5h-7.3v-1.6c0-5.4-1.1-8.7-3.3-10c-2.2-1.3-8-1.9-17.2-1.9c-8.6,0-14,1-16.1,3.1
			c-2.2,2-3.2,7.2-3.2,15.3l-0.1,8.7l0,9.4c0,8.3,1.2,13.4,3.6,15.3c2.4,1.9,8.8,2.8,19.2,2.8c7.9,0,12.9-0.9,14.7-2.7
			c1.9-1.8,2.8-6.5,2.8-14.1c0-0.6-0.1-2-0.4-4.1h-20.9V298.3z"/>
	</g>
</g>
</svg>
