<?xml version="1.0" encoding="UTF-8"?>
<svg width="529px" height="310px" viewBox="0 0 529 310" version="1.1" xmlns="http://www.w3.org/2000/svg" xmlns:xlink="http://www.w3.org/1999/xlink">
    <!-- Generator: Sketch 43.2 (39069) - http://www.bohemiancoding.com/sketch -->
    <title>Untitled</title>
    <desc>Created with Sketch.</desc>
    <defs></defs>
    <g id="Page-1" stroke="none" stroke-width="1" fill="none" fill-rule="evenodd">
        <g id="logo-black" fill-rule="nonzero" fill="#F48787">
            <g id="logo-circle" transform="translate(129.000000, 0.000000)">
                <path d="M4.43485752,232.413767 C31.2848871,278.726152 81.469588,309.884961 138.948047,309.884961 C196.426506,309.884961 246.611207,278.726152 273.461235,232.413767 L255.279892,232.413721 C230.196794,269.836994 187.456644,294.479696 138.948047,294.479696 C90.43945,294.479696 47.6993002,269.836994 22.616201,232.413721 L4.43483264,232.413721 L4.43485752,232.413767 Z M0.233818523,85.2183643 C25.8068773,34.667166 78.3199593,0 138.948047,0 C199.576134,0 252.089216,34.667166 277.662273,85.2183643 L260.112982,85.2183643 C235.938893,43.4860582 190.730092,15.4052607 138.948047,15.4052607 C87.1660022,15.4052607 41.9572038,43.4860582 17.7831154,85.2183643 L0.233818523,85.2183643 Z" id="Combined-Shape"></path>
            </g>
            <path d="M78.6574665,123.852599 L33.4342548,182.990645 L78.6574665,182.990645 L80.5900824,203.283112 L3.28544701,203.283112 L0,189.948062 L44.643427,130.230232 L7.15067878,130.230232 L2.31913906,109.551242 L77.3046354,109.551242 L78.6574665,123.852599 Z M144.173145,205.602251 C127.93909,205.602251 115.151743,201.157279 105.81072,192.267201 C96.4696962,183.377124 91.7992546,171.459445 91.7992546,156.513808 C91.7992546,141.56817 96.018757,129.586071 104.457889,120.567152 C112.89702,111.548233 124.39597,107.038841 138.955082,107.038841 C153.643036,107.038841 164.433367,111.902542 171.326398,121.630091 C178.219429,131.357639 181.665893,142.856589 181.665893,156.127284 L181.665893,163.857748 L118.469354,163.857748 C119.628929,170.04215 122.463404,174.970271 126.972864,178.642259 C131.482323,182.314248 137.408953,184.150215 144.75293,184.150215 C149.004706,184.150215 152.837689,183.602646 156.251994,182.507491 C159.666299,181.412337 163.628122,179.83405 168.137582,177.772582 L175.481522,195.939172 C171.100904,199.289056 165.786264,201.737012 159.537441,203.283112 C153.288619,204.829212 148.167238,205.602251 144.173145,205.602251 Z M157.894718,147.04399 C156.606301,140.730746 154.287185,136.060305 150.937301,133.032525 C147.587416,130.004745 143.400124,128.490877 138.375297,128.490877 C133.221629,128.490877 128.905497,130.069164 125.426771,133.225786 C121.948045,136.382408 119.693349,140.98843 118.662615,147.04399 L157.894718,147.04399 Z M221.671042,119.600844 C225.922818,115.349068 231.237459,111.999234 237.615123,109.551242 C243.992787,107.103249 249.693947,105.879271 254.718774,105.879271 C267.474102,105.879271 276.525096,109.615625 281.872027,117.088443 C287.218958,124.561262 289.892383,133.708886 289.892383,144.531589 L289.892383,203.283112 L264.768376,203.283112 L264.768376,145.691159 C264.768376,139.76444 263.351139,135.222838 260.516621,132.066217 C257.682104,128.909595 253.559231,127.331308 248.14788,127.331308 C244.540312,127.331308 240.771749,128.265396 236.842077,130.133601 C232.912405,132.001805 229.337101,134.159872 226.116059,136.607864 L226.116059,203.283112 L200.992052,203.283112 L200.992052,109.551242 L214.13384,109.551242 L221.671042,119.600844 Z M368.163326,134.86851 C363.653867,132.807042 359.466574,131.228755 355.601323,130.133601 C351.736072,129.038446 347.613199,128.490877 343.232581,128.490877 C340.011539,128.490877 337.531373,129.102866 335.79201,130.326862 C334.052647,131.550858 333.182979,133.257985 333.182979,135.448294 C333.182979,136.994395 334.245907,138.476052 336.371795,139.893311 C338.497683,141.31057 341.944147,142.856647 346.71129,144.531589 C354.570634,147.366107 361.850081,151.327929 368.549849,156.417177 C375.249618,161.506424 378.599452,168.109462 378.599452,176.22649 C378.599452,185.503092 375.281828,192.718119 368.64648,197.871788 C362.011132,203.025456 352.31594,205.602251 339.560611,205.602251 C335.566518,205.602251 330.251878,204.829212 323.61653,203.283112 C316.981182,201.737012 311.473282,199.289056 307.092664,195.939172 L314.629866,177.772582 C319.139326,179.83405 323.487668,181.412337 327.675023,182.507491 C331.862379,183.602646 335.695362,184.150215 339.174088,184.150215 C343.812389,184.150215 347.355483,183.506016 349.803475,182.217599 C352.251468,180.929182 353.475445,179.254265 353.475445,177.192798 C353.475445,174.615963 352.251468,172.296848 349.803475,170.23538 C347.355483,168.173913 343.49029,166.305736 338.20778,164.630794 C330.734961,162.182802 323.680984,158.671918 317.045636,154.098038 C310.410288,149.524157 307.092664,143.372058 307.092664,135.641556 C307.092664,126.751478 310.378078,119.761921 316.949005,114.672674 C323.519932,109.583426 332.409876,107.038841 343.619104,107.038841 C347.613197,107.038841 352.766788,107.876299 359.080032,109.551242 C365.393275,111.226184 370.933385,113.674139 375.700528,116.895182 L368.163326,134.86851 Z M445.081438,205.602251 C428.847384,205.602251 416.060037,201.157279 406.719013,192.267201 C397.37799,183.377124 392.707548,171.459445 392.707548,156.513808 C392.707548,141.56817 396.92705,129.586071 405.366182,120.567152 C413.805314,111.548233 425.304263,107.038841 439.863376,107.038841 C454.55133,107.038841 465.34166,111.902542 472.234692,121.630091 C479.127723,131.357639 482.574187,142.856589 482.574187,156.127284 L482.574187,163.857748 L419.377647,163.857748 C420.537222,170.04215 423.371697,174.970271 427.881157,178.642259 C432.390617,182.314248 438.317246,184.150215 445.661223,184.150215 C449.912999,184.150215 453.745983,183.602646 457.160288,182.507491 C460.574593,181.412337 464.536416,179.83405 469.045875,177.772582 L476.389816,195.939172 C472.009198,199.289056 466.694557,201.737012 460.445735,203.283112 C454.196912,204.829212 449.075531,205.602251 445.081438,205.602251 Z M458.803011,147.04399 C457.514594,140.730746 455.195478,136.060305 451.845594,133.032525 C448.49571,130.004745 444.308417,128.490877 439.283591,128.490877 C434.129923,128.490877 429.81379,130.069164 426.335064,133.225786 C422.856338,136.382408 420.601642,140.98843 419.570909,147.04399 L458.803011,147.04399 Z M514.462349,68 C518.456441,68 521.838485,69.3528176 524.608582,72.0584934 C527.378679,74.7641691 528.763706,78.1140032 528.763706,82.108096 C528.763706,86.1021888 527.378679,89.4520228 524.608582,92.1576986 C521.838485,94.8633743 518.456441,96.2161919 514.462349,96.2161919 C510.597098,96.2161919 507.311683,94.8633743 504.606008,92.1576986 C501.900332,89.4520228 500.547514,86.1021888 500.547514,82.108096 C500.547514,78.1140032 501.900332,74.7641691 504.606008,72.0584934 C507.311683,69.3528176 510.597098,68 514.462349,68 Z M527.024352,109.551242 L527.024352,203.283112 L501.900345,203.283112 L501.900345,109.551242 L527.024352,109.551242 Z" id="zensei"></path>
        </g>
    </g>
</svg>